<mxfile host="65bd71144e">
    <diagram id="HIP3nbAZw_EuaXWnEj3U" name="Page-1">
        <mxGraphModel dx="2367" dy="1303" grid="1" gridSize="10" guides="1" tooltips="1" connect="1" arrows="1" fold="1" page="1" pageScale="1" pageWidth="850" pageHeight="1100" background="#00FFFF" math="0" shadow="0">
            <root>
                <mxCell id="0"/>
                <mxCell id="1" parent="0"/>
                <mxCell id="7" value="&lt;font style=&quot;font-size: 37px;&quot; color=&quot;#ff0000&quot;&gt;Weather&lt;/font&gt;" style="swimlane;whiteSpace=wrap;html=1;startSize=80;fillColor=#ffff00;" vertex="1" parent="1">
                    <mxGeometry x="-30" y="40" width="1240" height="770" as="geometry"/>
                </mxCell>
                <mxCell id="12" value="The temperature is: 25Â°C" style="text;html=1;align=left;verticalAlign=middle;resizable=0;points=[];autosize=1;strokeColor=none;fillColor=none;fontSize=55;fontColor=#000000;" vertex="1" parent="7">
                    <mxGeometry x="20" y="330" width="640" height="80" as="geometry"/>
                </mxCell>
                <mxCell id="18" value="" style="shape=image;verticalLabelPosition=bottom;labelBackgroundColor=default;verticalAlign=top;aspect=fixed;imageAspect=0;image=data:image/png,iVBORw0KGgoAAAANSUhEUgAAAyAAAAMgCAYAAADbcAZoAAAgAElEQVR4nOzdeZxkVX338c+5Vb1OT8/KMAwISEYFREMUFBWhMYawaQwxLsQQ46M8isYoIgHRIFFCEBEJ+rglGpO4b0EjgrMwICAissk+MAzDMAPDMEtPd1V3dd37e/6o6umtllv33tq6v+/Xq52uW+f+zmmcqapvn3PuBRGRJjEzbGzoJMtnfmb5zHrLZ/aYn/295bNfMxs9vNnjExERERGRWcJs10LLZ260fMbKfI3ZWOYKM2v2UEVEREREpJ2ZWX9hpqNs+Jj4Gstc2uzxioiISHK8Zg9AROagfPYTmB0Rqq3jfMtnz6jziERERKRBXLMHICJzi9mepfipp4DOGk57mlTPC5xzQ/Ual4iIiDSGZkBEpLF87xhqCx8Ay8lnL6zHcERERKSxFEBEpLGc97Jo53Ge2cjKhEcjIiIiDaYAIiKNFVhPxDM9fLsq0bGIiIhIwymAiEgbsVMsP3xKs0chIiIi0SmAiEh7MXeFmaWbPQwRERGJRgFERNqL41CC7AebPQwRERGJRgFERNqP2UVmQ8ubPQwRERGpnQKIiDRab/wSrh/fXRa/joiIiDSaAoiINJZztd4DpFyhMy2XeUUytURERKRRFEBEpH15XGVmzR6FiIiI1EABRETa2TH4I2c2exAiIiISngKIiLQ5u8zM+ps9ChEREQlHAURE2t1y8tmLmj0IERERCUcBRETan+ODZiMrmz0MERERqU4BRERmgzS+XdXsQYiIiEh1CiAiMkvYKZYfPqXZoxAREZHKFEBEZPYwd5WZJXSfEREREakHBRARmT0cKwlGzmn2MERERKQ8BRARmV0suMBsaHmzhyEiIiKlKYCISINZX33ru358d1l9+xAREZGoFEBEpNEa8LrjzrRc5pj69yMiIiK1UgARkdnJ42oz02uciIhIi9Gbs4jMVkfhj7yz2YMQERGRqRRARGQWs0vMrL/ZoxAREZEJCiAiMpstJ5+9qNmDEBERkQkKICIyuzk+aDZ6aLOHISIiIgUKICIy26Xx81c1exAiIiJSoAAiIm1hbOtvY5ztTrT88GmJDUZEREQiUwARkbYwdMMFWH4kegFzV5pZZ3IjEhERkSgUQESkLQRDT5L57ZXRCzhWEoyck9yIREREJAoFEBFpDw6yd1xBMPhk9BpmF5plViQ3KBEREamVAoiINJhbGO00h41lGfrVx+J03ofP5XEKiIiISDwKICLSHlzhK/fIjxnbfGOcSmdYLnNMQqMSERGRGimAiEhbcK7whYPhG88D86MX87jazPT6JyIi0gR6AxaR9lEMIf5z9zHy+6/HqXQUfuZdSQ1LREREwks3ewAiImE4Z4UZEAAHmd/8E10v/Atc9+KoFS812/lD5xbtSmqMIjI3mZlHfuTVEPwJzluO2RDO/Z5U9w+dc0PNHp9Iq9EMiIi0BRsb3LsPxAGM7iDzm3+KU3Ip+a6LExmciMxZNjr0Uvzsb3D2K5z7R7CzcJwD9g387FbzM+eZWbOHKdJSFEBEpC2M7wEZ3weCg9H7v46//d4YRTnbbPTQpMYoInOL5TNvJuX9DjiqTJM+jMvws99SCBGZoAAiIu1jfAbEjX/rk7nl/DgV0/j5q5IZnIjMJZbPvAX4HuGWs59BkHlvnYck0jYUQESkLTjGZ0DclOmQ/JabyD32kziVT7T88JuSGqeIzH6Wz7wN+A61fI4yd7mZ9dVtUCJtRAFERNqDmzL1MfGtg5HbPoblM3GKX2lm3QmNVERmMctn30Gt4aOgDz8zkPyIRNqPAoiItIXJgWPyPhAcBENPMnr35+KUP5hg5Jwkxikis5fls2eCfTN6AV6T4HBE2pYCiIg0WrTXHTfza/JqrNF7Pk+w54noozK7wCyzInoBEZnNLJ99J9g3iPPZyfOyiQ1IpI0pgIhIg0VcAz0tcEyfBSEYYfT2j8cZWB8+l8cpICKzk+Wz7wL7d2J/brIdiQxIpM0pgIhIW9gbOKDkDIhzMPb4T8hvvSlON2fYWPbY2IMVkVnD8sPvTiZ8AIGLcd1wkdlDAURE2kO5GZDic+PPj/76XAjy0fvx7Goz02ujiGD+8FngvpZQuQzp7tsSqiXS1vQmKyJtYcqSK5gaSPY+7wh2PUjuwRifF4wj8TPvij1gEWlr5g+fjbmvJFfR3eScyyVXT6R9KYCISHswf8YsyIwpkfGlWHdfgo3GWWrtLjXbuTCpoYtIezE/8wHMfTHRos7WJFpPpI0pgIhIe/CHS4SO0suybGw3ubs+Fae3peS7Lk5m4CLSTszPfBDj6sQL+7Y28ZoibUoBRETaQ5nQMX1Z1vjz+Ue+QbDz9zH642wb3XNE/IGLSLswP/MhjKvqUHoHHb1316GuSFtSABGRtjDjJoR7D5bbnO6Tu/1cwKJ2mSaVqscHERFpQeZnzsG4sk7l1zrngjrVFmk7CiAi0h5KbT4vdT+QSceDZ28l//gP4vT6OssPvynmyEWkxZmfOQ/jirp1oP0fIlMogIhIW6i07Grm1bAmnh+75yLIZ+L0fKWZdccoICItzPzs+RiX1bUTL7W6rvVF2owCiIi0hzKzHJVmQJwDhjcz9mCsVRUHE4ycG3f4ItJ6zM9+DLNL69zNJue6H61zHyJtRQFERBqtM8pJYZddOSYfLxzMP3gVNvRE9BGbXWCWPTB6ARFpNeZnP47ZJQ3oSVe/EplGAUREGsu53mjnUTZwuGmBY/xr77fBCPm7L4gz6l58uzxOARFpHeZn/xGzWNfqDs9b1Zh+RNqHAoiItIWy+zxKBY4SsyT+U/9L8EysX0S+xcayx8b+QUSkqWxs+FOYNe4+PylfMyAi0yiAiEh7mBw4GA8cLvSyLOcgf9cFYPnoY/DsajPT66ZIm7Kx4Utw7uMN69C5B5zre7ph/Ym0Cb2Rikh7qBQ4oPLVsMa/9jyI/+i/RR+DcSRB5qxYP4eINIWNZS7FuY81tNPAdPUrkRIUQESk9fmjpQNF2c3nhdNKLcnyH7gERrdHH4u5S8wGF8f5cUSksWwscxmO8xvese7/IVKSAoiItL5gtMrmc2Y+P/25YnuX341//yfjjGYxfrpx68dFJBYby1yO47wmdB2QGl3XhH5FWp4CiIi0hTCBI2wgCZ74b2zXPXGG814b3XNErB9IROrKzLCxzJU4mnUfn9udWzzYpL5FWpoCiIi0hwiBY+YsSHHzOkZw7/mARR1NmlTq6tg/k4jUhZlBPnsVjg81cRC6+pVIGQogItIWatnnMSNwTNvAjgPbcSu2+YdxhjRg+cyb4xQQkeSZGfjZq3F8sLkj0f0/RMpRABGR9hByn0e5wFHq/OCBT0B+KM6orjCzaDdWFJHEFcPHF4EPNHkoI6S7b23yGERalgKIiLSFSrMcbnLoYPrzFWZJRrYSrL8izrAOJBg5J04BEUlGIXyMfAk4O4l6/u5NjDz8o6ijudk5l0tiHCKzkQKIiDSWWXek8yosq6p4ed5yV8Maf27DFyHzRJyf5wKz7IHRC4hIXMXw8TWw9yZRz9/9BLu+/6ekFz4/WgHntPxKpAIFEBFptM4oJ4VdVhUqdDDpORvFHrggzs/Ti2+xplFEJDoz8/Az/w727iTq+bseZ9f3TyTI7Sa97A8jFtEGdJFKFEBEpD3ECBxVL8/7zM9he6z7hb3ZxrIDcQqISO0mwod7VxL1/F0b2PWDkwj2bKbrwOPBpaKU2UVH751JjEdktlIAEZG2MCVQQKzAUXLZ1oMXgI1FH6DH1Wam11SRBimGj2+Ae2cS9fydj7L7RydhQ5vBQcfzBqKWWuucC5IYk8hspTdLEWkP1ZZV1Rg4Ji/ncg4Yehg2fjn6+MyOIMicFb2AiIRVCB/Zb4I7M4l6/s717P7xyQRDT+19/eg8cCBaMWexplNF5gIFEBFpfX4GiLHPo1TgKHUTwscuh9z26OM0d4nZ4OLoBUSkmmL4+C/gHUnU83c+wuBPTsaGt+x9XfH69ye1+EXRCnpp7f8QqUIBRERan+Vjz3JUveu5A/K74ZGL44x0MX7HJXEKiEh5xfDxHeCMJOr5Ox5iz09Owoa3TvlFRucBA1FLbnau66EkxiYymymAiEh7iLKsKkzomDSDAsBT/w2Dd8UYqJ1luaEjYxQQkRLMLI2f/R7wliTq+TseZM81JxNkn9n7+jL+etARdfkVuvqVSBgKICLSFhIPHK5MGwvg/o9Wr1Weh+ddFfVkEZmpGD6+A7w5iXr+zgfZc80pWHbbxEUtmLjIRUfkGRBP9/8QCUEBRETaw94PCDUuq6oWOEq1H/wtbPlu9LHCcZbPJPJBSWSuM7PO4sxHMuFjx/0MXXMyNvLs3t9eTJ5VTS1+EV7fimjFU5oBEQlDAURE2kKo0BE1cJRqv/5i8IeiDHXcFWbWG6eAyFw3KXycnkQ9/7nfM/S/p2Ij26dd0nsiiES+/K7xkHO9W5IYp8hspwAiIu0tqcAx3chW2BDrBucHks/EusW6yFxWDB8/At6URD3/uXsY/vmpUAwfUy5mAXv/p+N5r4vWgUOzHyIhKYCISKP1xTo7zixHrfWf+CIMPxZllMVa7lyz7MHRC4jMTYXwMfIT4LQk6vnP3U3m2tOw0R1Tgsf0q+rhpUivODbqqLX/QyQkBRARaTCXjnYayc9yVGsfjMLDsSYxuvHt8jgFROaaYvi4BuyUJOr5z91F5henYaM7p812TJ/9gPQ+R+K6FkbpJiA1ti6B4YrMCQogItLekgwcpTx3PTwX68bGb7ax7ECcAiJzhZl1F8PHSUnU87ffRfYXb4DcrpnLrko8jrz/A+50buGuJMYsMhcogIhI+6ln4CjV/uHzwcYiDLTI42ozizbzIzJHmFlvsuHjd4xcfxo2tptCypg621EqiKT3H4jWmbE6gSGLzBkKICLSHuq17yNMQBl+BDZ9OcwoSzM7giB7dvQCIrNbIXxkrgE7MYl6/rO/YeSXb8TGBieFjJmX3AUmgkm6m9S+x0Ts0Ys1TSoy1yiAiEjrC6pcDrcuG9Nt4ssZPH4ZjD4TZrTlyl1sNrg0egGR2akQPrI/A/f6JOr5z97G6OrTYWxwxmzH9EvuTrn7+fJX4tI9UbocId11cxJjF5krFEBEpPVZMPVxXfZ9TAsc09vnB+HRT9Y48CkW4nd8Kk4BkdmmGD5+DkS89u1UwbO/JrfmdCw/OHOJFTMvuYtzezNJasVA1G5vdc6NxB68yByiACIi7aHRgaOUp78De+4KPeQSfZ5luaEjYxQQmTWK4eMXwEAS9YJnb2Vk7elYfk/ZTealH7t4+z+c0/IrkRopgIjI7FDLsqqwgWNG3QAeOpeKd2OvzMPzrjaLfL7IrGBmffjZ64HjkqgXbLuF0RtOx+WHZuztcJUej391LSC19GXROvdNG9BFaqQAIiLtKc4sR5y6g7+Frd+ONOSiY/FHzohTQKSdmVl/MXxEvePfFMG2m8jd+BfgZ0rOdlDpMYU/08uPBZeK0LsbpKPnjiR+DpG5RAFERNpDvZZVRdlP8tgnC3tCIrPLzKw3RgGRtmS2o7+47OrVSdQLnrmB3E1vAT9T3NYxnjAmzXaEWIaVWhF1C4qtc84F1duJyGQKICLS5uIuqwphevvcM7DxM1EGO+4A8plYt1gXaTeF8NF9PYmFjzWM3fx2XHHmY2qoGH9QYRnWpHNS+x0fbRCOVQn8KCJzjgKIiDSY9cc8n8SXVUVpv/krkHks3JBL9uHONcseHL2ASPsoho9VQNQbbUwRPL2G/C1nTCy7otzsxqQgMn0ZFsU/e5fjLTw02kDy/tokfh6RuUYBRETaRJ2XVdXa3kbh0fNDNC6rG9+ujFNApB2Y7VqI370GeEUS9YJnVpP/9dshyJYMFaU3nZdflpXebyDqUJ52XfMfiPOziMxVCiAi0h6SXFaVVEB57vrCV3RvsrGRRO78LNKKzHYvJuhcAxyVSL2nf4n/67fjgpGyezvKbzovsSzLgbc88oW4dPUrkYgUQESkPcUJEUnWfvR8CEZDFC3DsyvNLB29gEhrMhtcTNCxBiPi9W2n1Xv6OvK/+avCv7eKsx3MCBmV9oeklp8QcUS6/4dIVAogItIGLF7gSDqgTG6ffQw2fznkSSWYHU6QPTt6AZHWYza4lCC9BiORG2/a1mvxb/9rXJDDTQoQ1a5uVS2IuAUvwM07INqgUrr/h0hUCiAi0vr8EJe8bWRAmd5+0+WFK2NFZVxstmdp9AIircNsT8Lh438J7vgbnOWmhYrJD0Isw4KJf7t7Zz8iLr8yHnGud3Ocn0tkLlMAEZH21MzAAUy5Gld+Nzx+UYiiZS3ET18ap4BIKzDbs4wgfQPGSxOpt/WnBL/7WyiGj9KzHcV/oKWWYVWZHfH2jbj8yjld/UokBgUQEWkfUZdJJR04Si0Je/rbsOe3IQdWsv67LDecyEZdkWYwG1pG3rsBsyMSqbf1Guyud+EsNyVUlJ7tKLMsq3jOjGACOM/DW/baqKPT/T9EYlAAEZH20JR9HxUCR6m2j3wELPJNkT08d6WZRT1fpGnMhpaTdzfi3OGJFNz6Y7jrb3E2VluoKLEsq9wMiFv4ElzX4iijC0jl18X6+UTmOAUQEWlf9VxWNT10hDF8F2z7dsjGJR2LP3JGnAIijWY2vJy8dwPORbyb3zRbfgj3vAfwQy2jKr8sa2oQmb4/xNsv6vIr7nauf0f8H1Rk7lIAEZH20cjAEbX+45+EfIhN82XZ5WbWF6OASMOYDa8ozHyQUPj4Ptx7Flh+6rIrqPy4TMiotD/E2+f4aGMMdP8PkbgUQESkYcws+mtO2FmIRgeO6XLPwKbLQg62pBXksxfGKSDSCGaZFeTdDThemEjBLd+Fe98L5u89tDdEVJv9oPTzZfeHpLrw9nlVxIEGuv+HSEwKICLSQDuT/81+TbMc1drWWrtM2y1fgszDITooW+scs5FDohcQqS+zzAH4/Cqx8PHUt+H3ZzO+7Gpab7UHEUo9nliW5ZYcDaneKCPNkZ53c5QTRWSCAoiItJdGLquKOg4bgw3/EKKzsjrxgyviFBCpF7PsgfjcCCQTkjf/F9z3/ikzH+X+bZdahhVlf0jk5Vdwm3MuE/VkESlQABGR9tDMZVW1tBu3aw3suD5Ew7LeZGMjJ8YpIJK0QviwBMPHf8L9fweUuHpcmX9rM5ZZQclgMrnGjGVZ+w5EG69zuvyuSAIUQESkzTQocExvG8b09o+fD8FoyJNLCa4ys3SMAiKJMcseXAwfBydS8Mn/gPs/yIzlkdNVDCIRlmV19uMWvTzamAPTDQhFEqAAIiKtz/JE3sdRS/ukw0z2UXjqCyEHWbL+oQTZD0YvIJKM5MPH1+HBD7H33/RkNQWRGvaHFL+8xa8GFyXX2yDpntsjnCgi0yiAiEjrCzKtsawqSvunPgujW0I0LsPcRWZ7lkYvIBKP2cgh+PYr4MBECj75b/DgOUyZwSylpuOl94dMf+wcuMj7P9xNzrl8xJNFZBIFEBFpf/VaVpVEQPGHYNMnQ5xcjvXjpy+NUUAkMrORlfjBjcABiRTc9GV46FxmzHzUuPwq7P6QkvtFlg1EG7tDl98VSYgCiIi0n6iBo9YQEWsck/apbPsO7ImzcsPeZbnho2IUEKmZ2cgLEw0fT/w/ePh89s58lJJoECmxLKt7Gcw/LNLwyQe6AaFIQhRARKQ9NGsfR+hxTNscP6W9wYZzKXmln3A8PHe1WYn18iJ1UAwfNwArEin4xBfgkWL4GJfY8qtytUrsD1l6XIUiFW2jc959UU4UkZkUQESkvTUycFQMHVXaD98Jz/xXiA7LOgZ/5Mw4BUTCMBs9tDjzkVD4+FdY/7GJMF6n5Vd7n5thYn+IWxr5/h9rnYsUXESkBAUQEWk/tQSIWtuHDhwlrshVrf6miyC/O+SgS7FLzSz5u8mLFJmNHo7v3wgsT6TgE5+H9R+feqzeQaTCsiyWDFQZcDm6/4dIkhRARKSBOjojn9oqy6ri1M5vh6f+JcRJZa0gn70wTgGRcmx0z+H4/g3AskQKbvwsPPqPlYPC9BlEyrQdPx4niPQ+H3ojXsgrhe7/IZIgBRARaaB0b13KJrasqtI+jpC1q7Xf+mXIPhyyUMna55iNrIxeQGQmGx06glTqRpIKH49/Bh77p6nHSv2b2Hss5GwIEY87YEnk5VcbnOvZGPVkEZlJAURE2k+z9nEkMR4bg43nhShaVie+XRWngMhklht6KSnvBiCZ+808/i/w+KdrCwqN2B8SOYA4Xf1KJGEKICLSHlplH0cS7XevgR3/G+LEcuwUyw+fFKOACACWGzoSz1tDYuHjnwtf46IEiHLLsuIEEefFCCCm+3+IJEwBRERmh1oCR8X2VWon1X7T+RCMhChWhrkrzSwdvYDMdZYbflmy4ePTsLHMHqdaAsSUZVk17A+p1G/f4dC5pEyjigJSee3/EEmYAoiItD4bnXmskcuqamlbrf14m9GN8PQXQxQvW+dQguwHoxeQuawQPtwaYHEiBTd8EjZ+pvB9Uvs3at0fUqnfpSeUeaIKx33O9W+PdrKIlKMAIiKtLxhp7WVVUetuuRxyW0J0VobZRWZDyVwuVeYMyw0fVQwfCxMpuOEfYdPnZh5Pav9GEvtDoi6/CtD+D5E6UAARkTbUAvs4kqjrD8GTH6/SqOKg+vHdZTEKyBxjucwrisuukgkfj30cNn2+8H2igaPM8Sj7Q1wHLHpViQYhONP9P0TqQAFERNpEC+7jiDKO6e2f+wHsuSXkiSWLnWm54aNiFJA5wnKZY/DcKrD+RApu+Bg8eRWJ7dMIczzK/pCFR0Mq0v0786R6b45yoohUpgAiIu2jnvs4amkfO8xMDlMBPPHRwp9Ree5qM6veTuYsG8u8Gs9dn0z4MHjsfHjy6vKBIMo+jXrtD1lyXJnCVd3mnBuKerKIlKcAIiLtoV2WVZVsX+ZKXOOy98Cz/xmicFnH4I+cGaeAzF42lj0WR3Lh49GPwuZpF1BIKojUY39I1P0fzmn5lUidKICISPtqlWVVtQaOUuN46iLI7w7RWTl2mVlCS2tk1iiED/sFEGkN0rRq8OhHYMtXQsxW1LAsq577Q9J9sODoMp1XEaDL74rUiQKIiDSQ645fgvoHjkjLuyoEjpLtpxnbDls+HaLjspaTz14Up4DMLjaWPQ5n15NY+PgwbPnaxKGqISHkbAgRj1fcH1K06FXgOsoUqWiIdPdtUU4UkeoUQESkcXL5zkjn1WPfR72XVUWp/+xXYeSBEI3L1viA2cjK6AVktrCx7EBx5qM3gWrw6N/D1n+POFtRp2VZlDk+eVnW4qh3P3c3O+fyEU8WkSoUQESkvbXKPo4kloNZvnCH9Og68e2qOAWk/dlY9nU4+zlJhY/1fwdbvzFxqOIyqDLHm7U/ZMkJZQZVhS6/K1JXCiAi0l7qtY9jRvsGBI5SBtfArp+FHHApdorlh0+JUUDamI2NnIizn5FE+DAf1r8fnvlm+A/+oWYrGrQ/pHMJ9L24TPEq/EA3IBSpIwUQEWkPDV9WVaV9zbVraL/5/MLd36Myd5WZRVvuJm3LxoZOxAXXkGj4+K+JYzUvg6p0vAH7QxYNVGhU0XY65t0b5UQRCUcBRERaX5AtfbyVl1WFUa796EZ45sqQRUrWXUmQ/VD0AtJubGzoJJx3DRD/Qg/mw6Pvg2e/NfO5xJdN1XF/SOT9H6x1LlJwEZGQFEBEpPXZ2MT3rRo4km7/9Ocg92SIomWYXWg2tDx6AWkXlh9ONnysPwu2fafwOMnAUcqUZVkJB5FFUe//YWuinSgiYSmAiEh7iDwL0SaBY3p7y8CWOFfVdf347rIYBaQNWH74NHDXAPGX3JkP698Nz36PkoGglFr2b4QKDzXsD6nUb8+B0Pv8Mo2q8FLa/yFSZwogItLe4sxy1Fq/5rHEbL/j+zB0S8iBluzgTMtljolRQFqY5YffCO5HJBI+8rD+b2H7D8oEeKItg2rGsiyAxQNlnqhqo3PdG6KeLCLhKICISHtp5WVVSdZ2gDPYfG7hN9NReVxtZnqtn2Usn3kTuB+QSPgYg/XvhO0/nnq83MxEksuy6hVEoi6/wmn2Q6QB9KYkIq2vVQNHkgFlSt1JP1/2Hnju6yE6Kuso/JEz4xSQ1mL5zOnA90gkfOQK4eO5/wkxi1HH+3hU7beW+i5GANH+D5FGUAARkTbQIpfHrcssB1MDR6mfcevF4O8K0Xk5dqmZ9ccoIC3C8pk3k2T4eORv4LlrJo6FCg/N2B9S4t9Gufp9h0HnsjJPVpEK1kY7UURqoQAiIo3jeX2J1GmVZVK1tp8cOFyVUDW5vb8Dnv50iMGUtZx8Ns6OdmkBls+8BfgOkI5fLAeP/DXs/FmMWYwW3R8Sdf+Hc/c517ct2skiUgsFEBFpIBf9g1MrLJOqtX25ZVWh2k97bvtXYeSBkAMsWfuDZqOHRi8gzWT5zNtINHycATt/PnEs1ixGg5dlVQsiiwbKnFxFYNr/IdIgCiAi0v5aZVlV2cARYulYtXFYHp76SIjBlpXGz18Vp4A0h+WzZwDfIon37GAUHnkr7LouwjKoMs8VRknoZVlh+wjd7yReGha+psxJVej+HyINowAiIu2nVQLHlLYJB45S7YduhF0/rnxO5YInFu4bIe3C8tl3gP0XiYSPkWL4WDVxLKnZilqWZZXrN/J4JvU5/+WQml+meEV5Ur3ropwoIrVTABGR9lCvZVLT29ZzWVUY1dpv/Vjhg2RU5q40s/gbmKXuLJ89E+ybJBI+srD+rTBYYpVRksumagkiiR+3OPf/uN05NxT1ZBGpjQKIiLS+YE/1NnFmF0LXbcAsRzVjm+DZK0M0LNvfSoKRc6IXkEawfPadYN8gkfCRgfVvg92rAYv2Ab+UUMusGrw/JOrld8109SuRBlIAEZHWZ8HMY/X6oN9qgaNU+2evgNyTIU4uw3gFJecAACAASURBVOxCs8yK6AWkniw//O5kw8dbiuFjbw+FP0IFiArHKh2fUr9B+0NSvTD/6DLFq/FWVW8jIklRABGR9lDPD/q1BI7ptZMcR9j2QQa2XhCiWFl9+Fwep4DUh/nDZ4H7WiLFggw88hcweEOJv0/Fv+OhAsS0Y/VcllWu3zDjWfBq8LrKnFxRhnT3bVFOFJFoFEBEpPWF+eA+3i7Wsqow7RMcR5zagz+G4RtDnFDWGZbLHBOngCTL/OH3Yu4riRQLhuGRP4c9N009XmsQibIMKlQQqaV9yOMLjyszqGrcTc65XMSTRSQCBRARaV+zYVlVGOXabzkPzA9ZpASPq81M7wMtwPzhszH3pUSK+UOF8DF0cw2zCRGCSKxZjBA3FKz1+KLXlem0Cmc3RDtRRKLSG4+ItI96LatqZOBIsv3o72Hn10MULOso/My74hSQ+MzPfABzX0ykmL8H1v85DN0ycaymD/ch9oeEqhP2eA37Q8odd0DHYpj3kjKNqvB1A0KRRot/R1URkUYIEziAikupaqkXtW1i7T1I9U9qkwZv/kRb1wmuFwZ/BovfU2OHUzq/1GznD51btCtGEYnI/MyHMGJc1mwSfxDWnw7Dvy78PZn+T2H8707V4+MhxIVsn8RxmzhYax2Aha8FF+l3qjvo6L07yokiEp0CiIg0jgv6a/90Xq7W5AchQkfcUNB1GMw/FpZfDMO3wNgz4PWA65po7/UVgsI4b/60x/2AN1E7tXBSRw5SC2ocZCKWku+6CPhwMzqfy8zPnINxRSLF/EFY/2cwfPvEsVIhZPw4JZ5LMohE7tcmDtQSRBaeUKLDUNY550pcZk9E6kkBRETaQ6MDx7jeV8CKT8O8YyeO9Z9aY/EW5/iA2ehXnOt6qNlDmSvMz5yLJXQlMn8Q1r8BMnfMfK7SrEGloDDleDEU1BIIYvU7aTakUq3JxxdGvP+HM11+V6QJFEBEpPU5qBo6kl4m1fUHsN8lsOCNNRZuS2l8/3rgoGYPZC4wP3MexmWJFPN3w/rTIHNn4XFdlkdN/sbVEFzi9lsiiJTqt/sA6FlZ4okQvJT2f4g0gTahi0j7qmVjd9j26SWw4jPwot/NlfAx7kDLDR/Z7EHMduZnz08ufOyC9adA9s6Zz1XbtB35eIzL9iaxUb1U++jLrzY71/1o1JNFJDoFEBFpfTbtw0c9rj7lOmHZ38Oh98E+Hyg8nms8/r7ZQ5jNzM9+HLNLEymW31EMH3dRNhBU+nsf9WpTe9Xh/iFV+y1z2d4FUe//oatfiTSLlmCJSOuzPeEDRy1c8X8W/mVhc3nnHF+B5JxmQOrE/Ow/YnZxIsXyz8Fjp0L23sk9FP5wrn5XrRp/rtz+kLAbz2P1W2JZ1sKBEieE4a2JeKKIxKQAIiLtK+6+j3mvKezz6H1FUiNqb8aKZg9hNrKx4Ysx+8dEiuW3w6Onwsjvy3xgt4lg3ZDL5076ptzVssbPqcf+kJ7DoHN5iQ5DSAWaARFpEgUQEWkvSWw27/oDWD5nNpiH53i62UOYbWxs+FM49/FEiuW3w2Mnw8j9U49HCSKxLs9b7ngT7h+yKOrVr9wDzvXq77tIkyiAiEjrq3WjeTnpJbDsQljyrrm5x6Mac7c1ewiziY0NX4JzH0ukWP5ZePQkGH2wxgBhpQNBrMvkVuu3DvcPKXd8wetKPBGC2dpoJ4pIEhRARKS9hQkmXg8sOQuWnd+sm/21g4Ag+FqzBzFb2FjmMhznJVIsv60w8zH64MSxmvdpMPv2h7gU9B9LNLr/h0gzKYCISHupaQmWg0V/Cft+CjqfV68RzRLu666zt8Sd7KRWNpa5HMe5iRQbexoePxlGH05gH8Us2x8y72WQ7i9RsKqA1Oi6KCeKSDIUQESkkaK/5tS6BGvecbDfp6Dn6MhdziHfJdX9/mYPYjawscwVOM5JpNjYVthwMow+MnEskf0bEfeHxOq3DsuyFg2UeCKUO5xbPBj1ZBGJTwFERBrI6yv9aSKmyeGkayUs/zT0a4N5VcYjeHYlXu+XnatpakmmMTPIZ6/E8aFECo5tKcx85NbPfC6x/Rs17g9JpN8IQaRcvwtOKNFhCKb7f4g0mwKIiLSfUp+V00tg2Sdg8bvAteRLWx4YmvQ4N+Wx2QieG5l4TAZs4jEuUzxnvMEQeLlJ5w8Cwd7HntsJFkxqv2viW7eLwB6ho/de59ykNhJZPntZcuHjqeKyq+JNuuu2PGrSg3ruDynbb5X9IZXqeD3QF/Xy2Z72f4g0WUu+S4uITFHpKlheDyw5G/Y5t5EbzPM4+3u81HUThyyA0YkP+SwInHNa5jEHWD7zZkhow7k/CI//KeQ2zHyu3oGg1faHVKrTfwx43UQwQrpbV3sTaTIFEBFpU65wB/PGbjB/FPgHUj0/1pIlATAzDz97eWIFU/2w/xdgaBUM/hJG72/gPo3ig0qBoFX2h/QPlOgwDLvZuUkzjSLSFAogItL6LD/xvaO4wfxfoPvIRo1gO45L8Xq+4JzLVW8uc0Z+ZADHwYnWnDdQ+Nr3ksJyrD2/hKFfwJ51EBRX7TVrn0bd+3Xh+lg4UKJgCM5bE+1EEUmSAoiItL5guPDho/tQWPbJRm4wz2F8gfTop5xbtKt6c5lzPDuqHtdV2Ktjf1j8t4Uvy0HmVtgzaXZk1u0PsYknygWXjoXQG/GXD36gDegiLUABRERaX3op7Pf5Rm8w/y4p70LnukssxhcpCmw+jVqO5zonZkeWXwK5JwphZOiXMLQO/KES5xT/rOf+kNjLvkodrzALM/+1hZsQ1m4XHb13RjlRRJKlACIirW/ZJxrZ260EfMR19mqjqlTnuWfrOgNSSedBsOTdha+9syPXw+B1MPLw1LaJ7N+o8bK9ifRbIohEvfwurNNV30RagwKIiEjBo8BHXbr3f5o9EGkjXmo1vt/sUUybHbl0YnZkT3F2JBhKaP9GA5Zlle23uCyr//gSJ4TgTJffFWkRuoyLiDSM5bNngH2r2eOYZjuOT+H1fFkbzCUKy2d+BRzb7HGUZaMw/KuJQDI+O1Ju5qam4yWCSKQ6IY93roAjS9ycMYxU6jDnuh6KdrKIJEkBREQapsUCiDaYSyLMRl6IH9wDRLoxRcONz44MXgvDN4GfKd0uiSBSaXlalCCy9Aw45GsVipa1xaV7949yoogkT0uwRKSROps9gKLvknL/4FzPpmYPRNqfc92P2Fj2T3H2I2Bps8dT1eS9I8EIZG6GwWmzI9Ca+0Oi7/9YG/VEEUme1+wBiMgc4oJm/4b4JgJe5dK9b1f4kCS5jp6bSLmXA19o9lhq4nVD3+thxWXworvg0Pth/89B/5+C11v40F9urcSM48bEFbNKtE3i+PyI+z9w10c8UUTqQEuwRKRhzB9+L+a+1ISutcFcGsZscDF+6ljwTgY7CRK+UWGjBBnY+X149nIYfbxwrJn7Q3peBEdEvIpuiuc517s52skikjTNgIjIbLYdZ+8n1fNihQ9pFOf6d7j0vJ+6dM/7XLr3+aRSh+H4MIVlQO1zoQOvF5a8E15wC+zzd4VjNc1YGLgKMyKlVDreP1BlwGUYDyl8iLQW7QERkdlopLjB/BJtMJdmK1556SHg82bWh595XVvNjqQWFpZoBUPw3DcKx2rav1Hj/pByx6Muv3La/yHSahRARGS20QZzaVnOuSHgp8UvzEYPJ/BPwTiZwqV8W+VCDTMd8AVwXbD9y4XHtd5NHaLfP8SlYuz/YE3UE0WkPhRARGS2WEdgH3Wd8+5o9kBEwnKu6wHgAeCz02ZHTgMOaPLwpnGFDepeD2y7csphIHwQccUnawkivUdCemGUQQekcpoBEWkx2gMiIu3NeAT4c5fuPUHhQ9qZc25o0t6R5+EHL8HxUVpt78h+l8DyC2Yer3l/SIX200Xd/wF3OrdQyzBFWoxmQESkccw9nWC17Ti7iFTvV51z+QTrirQE19V3H3Afe2dHsieCG9870tzZkX0/Aa4btl4087nQ+0MmLcuCyvtDom9A1+yHSAvSZXhFpGGKd4x+uHrLikYw+zzp3GXaYC5zlY0OHUHaOwnjVAp7R5rzC8VnvwBb/wGszPVzk7hsr+uCP3yqsPSrVub9ievoXl37iSJSTwogItJQls/cAAxEODUAvq8N5iJTme3ox+9+fdNmR577Gjz1IcASuu/HtCAy/3h4wbVRRpYj1bPAOTcS5WQRqZ+2W4Jl+eFTwHsDjmMxy4Dbjtl9EKwhPe9m51ym2WMUkQrMfQpnx1HbHrR1BPZh1znv7noNS6RdObd4EPhx8as4O5I6DbOTgVdT7/f6Je8p3FF989mAX8PleamwUX3Ssqz5A1FHdqvCh0hrapsZELPMCnz3NbBTKjTLAbfi3BoCW0u653atDRdpPaHviG72AI4LXXqebiIoEsG02ZFTgBV162zX9+DJ94AV33aTmg154Q0w7xW1j8e5C12q559rP1FE6q0tAojZjn7yXb/BuUNrPHUIWIdjFXl/LZ199znXFj+yyKxn+eE3gbsKOLB0Az5DuudC/RJBJBlmBmOZI0l5J9VtdmT3NbDpb8AmXbQrThBJ9cNLnircB6RWAa9ynb231X6iiNRbW3wat3zme8BbEii1DVgLbhUpVmsduUhzmVk3fub1GK/EectxPIkFd5LqvdY5FzR7fCKzWXF25EQcn8B4aWKF91wHT5wBwbTVT1GCyIJT4ZAfRBiEGyTVvUivIyKtqeUDiFn2QHx7nPrcs2QDuNVga0j5a52bv70OfYiIiLQ0Gx06gpT3+8QKDq2BjW+FYNq2zFpDyP6fhX3OjjKCn7p0759FOVFE6q/1b0QY2Nuo3zgPATsL+B5+6hnzM3fZWOYKyw+fZGZ9depTRESkpbiuvvtIpQ4DtiRSsO+P4fn/A978aR1Rw80KgfknROvfsSbaiSLSCK0/AzKWuQrHB5vQdR64DedWEbCWdPdtWosuIiKzmdnIIfjBDZTbm1WrzG9g459BfrBMh+UGAnQshxdviNav77/Ydc1/INrJIlJvrT8D4po2E5EGjsXsYpz9Cj+70/LZX5ifOcdyQy+1cjddEhERaVPOdW8g5V4LPJpIwd5XwiHXQcfiMh2WGwhxLr/7tMKHSGtrgwDC75o9hKI+sJMwrsDz7sHPPmv5zPfMHz7LbOSQZg9OREQkCc71bCJlx2M8lEjB7iPh+ddBx7Lall/1DUTtcW3UE0WkMVp/CZaNvBA/eLjZ4whhI1jxClvBWuf6tjV7QCIiIlGZ7VlGkFqV2BWyRh6GjafA2NZiB+U6Lv552MPQ+bwIHbm/deme/4hwoog0SMsHEADLD38D3DubPY6aOO4lYC3O1pDqXeecG2r2kERkbjKzTsguZcyW4Ww5LrUUZ8sI2Bdny8D1Fb6CNLiFODyMhRRmyReCeeD6gQCYvph/kMKeuQLHLoxdwC6wXZjbged2QrAL83ZBsIPA7aDDNkHv07o3U2szG1xMkF6F8bJECo4+BhtPhdykq+CXCiJdK+FF90brI+UO0mX2RVpbW7zym+1aiN95D0ltimu8PHA7ZqvBW1Pc0J6repaISBWF/WjZA8i7Q3AcggUvwLmDgQMwluPccrD+5o6yrByFqy5tBjZitgmPJzE249smOuc9pNfK5iveL+R64JhECuY2weMnQ+7xSZ1Ma7Pk3bD/v9Ze23jUdfS+INb4RKTu2iKAAJiNrCxemeOAZo8lARlwN+NsFb6tpaP3bt0sSUQqMRtaTp6X4nkvJOAPcKzE7BCcOwTobvb46iQANgAPYDyEc/cTBPfR0fuQcy5T7WRJjpn14Wd/DhyXSMGxrYXlWCPTVliPB5GDvgUL/jxCYfdll+55X9zhiUh9tU0Agb0h5EZgRbPHkrAdUFyu5aVWO9edzNVHRKTtmJkHoyvxgyMx/gjnjgQ7Elje7LG1mI3gHsKCO3D8hlRwu3PztfeujsysFz9zDbjXJ1Iwvw02nAKj0y9Y5cFhmyBd5spZlf2lS/f+MIHRiUgdtVUAgb2b0m9g9oWQyTYVNrR7a0gFq52b93SzByQi9VG474IdB7yqGDSOAHqbPKx2tRG4DcdvCLiddM+dzrmRZg9qNjGzbvzsD4DTEimY3wEbT4Ps3RPHuo+EF9wapVpAKr+Pc/07EhmbiNRN2wUQALPRQ/H9G5grvxF07gECW13Y0D66zrnFZe7oJCKtzMwgN3Q4ae84zL0WGGB2/zKl2fLA3cDt4H5Dipuc69nY5DG1PTPrxM9+Bzg9kYL+btj4Rsj+trAEa58Pw/JLaq/juNOlel+eyJhEpK7aMoDA3hByI7Cs2WNpsAC4o7ihfVVxQ7t+wyfSgswMxjIvI+WOwzgeOBZY2uxxzXEbwK0GW0VqbK1zC/Tb8gjMLI2f/SZwRiIFgz2w8XTI3AIHXQPz/yTCoPis6+j9aCLjEZG6atsAAmA2engxhMzlN/QRsJtx3hr8YDUdvXdqQ7tI8xQ3654Idiq4U5grM7XtKcBxNwHFX+h03axf6IRnZh5+5t8Tu0x+kIEn3wHP+2/wIqxCtOBk19F3XSJjEZG6ausAAmCje44glbqBuR1CJtsFrMPZKrz0Wue6krmTrYiUZTaykiA4DbNTwR0HdDZ7TBLJCLi1wI9Ijf3Uuf7tzR5QqzMz8Ee+BPbeJg8lR6pnka6OJtIe2j6AANjo0EtJeWtQCCllCxTvP5Ky1c71bmn2gETanZlBfuRYsL8ATsOxstljksQFwE04foTnfqob25VX+PeQvRLHh5o4jJtcuvf4JvYvIjWYFQEEwHJDL8VLLoRk7vgClttN50En0LHf0eB1JFG2+YyHcKwFVpHKrXNu4a5mD0mkXVhu6KU4769wvI32vTGqRHMHzv0Iz/3Yue5Hmj2YVmRjw5fi3PlN6dy5T7hUz6eb0reI1GzWBBAAyw0fiefWAJEuHj6llp9j8Gd/zehjP8Prmk/H/q+h88ABOg46gfTSI5gl/+kC4E6M4h3atf5ZZDqzkUMI7G0EwV/h3OHNHo+0AMedwDfwxr6tTexTmZ/9OGafanzHvMZ19Ea6dq+INN6s+BQ9meWGX1YMIQtj1/JzDP7sr8htuBYcOAc4SPUuJX3A8XQceAKdBwzgLXh+/IG3hhHgNpxbhW+r6ei5QxvaZS4y27OMIPU2jLcDxzR7PNKycsC1YN8g1Xutcy7f7AG1AvMz52Jc3sAuh4r7P/TfX6RNzLoAAuMhxLsBrD92MT/H7p+9jbHHry/815oURFzxv15qwcF0HDBA+oABOg4YwPXsE7vb1uAGwdbhWEPeX+265k+/Xa3IrGJj2QGcvQ94E3N0I7n5o9hYFvJZLD+C5TOYn9v7vHMernPqS6vrnA9eGuelCt/PTdswvo0F33SdfXdXbz67mT98Nua+2KDu/tele9/QoL5EJAGzMoAAWG74qMKekGRCyODP3kruiV9OhA+YFkhc8ZgjteTFdBxwPOn9TyC132twHbPmDflpYDW4NaRYq02ZMhuY7VxI0HUmgb0P5w5t9ngSYwH+4GaCoS0E2e0Eme0EQ08TjDxX+H54G8HwNiw3iOX2YP4Ylh+O369L43UtwPUswutcgOteiNe9ENe1AK97EV7PErx5++ItOJBU3/5481fgUrMs6znuxtzVpLq/PZeXtVp++N3gvgJ4de3I8WGX6v18XfsQkUTN2gACYLnMK/DcqiRCiPmj7PnZWxnbtGrqLAgUHsw4VnycSpNadjTpFQOkVxxPatkrwJslb7bGozi3GmwNqfxa5/q1FlraRuGXFLwP3NuACDcdaD7Lj+Dv3oi/63H8nY/h734cf+eGwp+7NmJBrnqRMmp5c7DIvQDOw+vdl1T/80jN3x9v/v6k+g8ktWgl6SUvIrXgIHD1/fxaR9sx/o00X3Sud3OzB9MMls++A+yb1DOE+MEfuq6+e+tWX0QSN6sDCICNZY7B2fXg4oeQ/Ah7fv5W8ptWl5n9gFJLtMbb4MB19JLa91Wk9zuB1IoBvEUvaec318nGb+i1FoJVpOfdrOuxS6sxs078kTPA3g8c1ezx1CLYs4WxbfeS33YP+W33Mvbsffi7HgOrvE3LlX3QRFby25Jcqof0kkNJLT2U9JJDSS95Eeklh5Na9HxwqboOM0F54H8wd7Xr6Lmp2YNpNMtn3gJ8C0jXofw2Uj37Otcqf7lFJIw58S/WxjKvxnE90Be7Vj7D0M/fxtjmNaVnP6aEjsnH3MxjDryuxXjLjyO13wCp5cfj5s+a2wnkKGxoX0Ngq0n33K4NgtIsZrsWEnR9ALP30wZ3Js8/9/BE0HjmHvLb7iHIlr4nnpvxTY3q/S4QZXrEqp/qvC7S+xxBx4qj6djvKDr2O5rU4pW0/Nua417MXUWq+7+dc9GnqNqM5YffCO4HJL+36rsu3fv2hGuKSJ21+Ct1cmwseyzOfkFiIeQt5J9aN3PJVaXZj2nhZEr74hNe3/Pwlh+Pt+9xePuegOveN+5wW8UQUNzQHqylc969+o2V1JvZ8Ary7iM4ziKBf/t1YT75Z+8jt+lmcptvZmzzLSXDRk1BI8I/raT/NdacO8KeYOWbet2LSC8/io4VR9N5wKvp2P/VuHR3rSNplC04Lsfr+epcmS22saGTcN6PSHTJo73Hpef9W3L1RKQR5tQnQBvLHlcMIbFf/CyfYeh//wJ/669mLr2CaQHDhQgpxXbTjnkLDsVbPoBbNoC39FjoiL+nvkVsA9aCW1Xc0L6x2QOS2cNs5IX49lGwM2m1q1kFY4xt/R25J29m7KlbyT11KzY6OKVJqLBR5dW7/NKrZr/sz1x/VTV7VGtQJpS4VDcd+7+azoMG6Dz4dXTse2QrLnndhuMKvJ7/55wbavZg6q14pbmfk1QISbnn6/1DpP00+52o4ZIOIcM/P5381ptLLq8an9WYOdNReYnW3ueYNlvipXCLXo637wBun+Nwi14BqZb97V6tNsD4hnZ/rXPzS683EamgeB+gC4DTqfeVd2rg736C0cd+wehj1zL21K3Y2NRfeO/dQ1ZOmedmBpWIL+n1eCeItTN9IplULFPuyTLBxuteROeBA3QedAKdB51AatEfxBlk0nbg3FV4o//q3MJdzR5MPRVWJPDzBC4Qs9Gle5+fyKBEpKHmXACBZH8DY2PDDF97Ov4zt4Se1Sg1WzI5qJQMKXuPTVrOle7BLT4Gt8/xuH0GoP+ltNGmzMoc9xKwGmerSPXePBd+MyjRFfZ52cXgXt/ssQAQ5Mk99WtyG65j9LHryD/34JSnKwaOSmGjlqDRpGVYkXJH6JNCBJMKoWT6U+nFL6Rr5RvoetGb6Fj+MlrjLdEGMb5A2r/Suf5Z+4uYwlXo3Cpi3TTYfdWle/5vYoMSkYZphVfbprCxkdfjgmtIJITsYfja0wm2/brsrEblPSBllmjNODaz3ZTZks6FsORY3NIBWDIAfS+I+6O1ijxwG2ZrwVtFuvs2bWgXABvdcwSp1CXAG5s9liD7HLkNv2T0sV+Qe2I1wcjEL7FrDRxu6v+UF3kZVgtIavlVtVBS6mCJtqn5B9D1gjfQ9YI30vm8Y1vhlzm7cO4yvO7Pz9Z7iVhu6Eg8bxWwNFIB5z7hUj2fTnZUItIIrfaW1FA2NnJiMYTEXsdkuUEy152Ov+22mjeeVwodU5djuRLHprd37H1r7d4Plg7A4uMLgaR7v7g/ZqsYAnczzlbhB2vpmHevc67ytUhlVjHLHowfXAzuHTRxqZXl9jD6yE/JPvh9cptugGAiF5fND67Mw0qBo8IrdeTVV4189a/HlbCqrc2KEUi87iV0veA0ul7wZ3Q9/4/B66g+3vrZBO5iUt3/MRtf58xGD8f311D71el2kerZb7aGM5HZbk4HEAAbGzoR5yUYQt5EsP32KbMVtW5QLx0wXIljk/5k2vcw8//d+S+CxcfB4gFYfCx0xJj5bi3bgbU4W4OXWu1c94ZmD0jqw2zPMvKpC3G8lyZtLjd/lNyGXzLy4PcZfexaLJ/d+1zJDBFlhqPcORVOqXZ+TU2jvDOUCQQ1ZY8wjaMsvyoXSMKEkZ596D7szXQf8Q469v2jEAOsE8e9BME/uI6+65o3iPooXDQiWAMcUMNpX3Dp3r+r15hEpL7mfAABsPzwSeCuIYEPNJYbJHvdG/CfuzPEno6wsx8hNqhPn/2Aqf/vTv9/2kvB/D8szIwsOQ4WHAOpnrg/fqvYBLYa3CpSwVrn+rY1e0ASj5n1k898FOc+RDMup2sBuSdvYuSB7zOy/ifYyO69T4UJHbUGjlBhI+zyq1Z+lQ97Q8KIV8GqKZCECCPpJS+m5yVn0n34W/DmNe0S6WsJ7COuc97dzRpAPRRmNe0G4OCqjZ27D6/7lXPl8sUis1ErvzU1lOWHTwH3ExILIacR7Lir5svuVtp4Xn2J1qRBVPpAVOo5rxsWHF0MJAMw/49ogTXQyXDuPgJbW9zQvk4b2tuHmYE/cibYZTThBoL+4Gay9/w72d//J8Hw1r3HY4eOsm3LqJZbanklb/arfi1TIlGXYdUUSCKEEZei6+DX0/2Sv6Zr5am4VFe5EdZLAHyXlH3EuXlPN7rzejHLrMDnR8AxFZrdTsq9VZfeFWlvzX4raimWHz4N3I9IJITsJnv9qdiOe2LNapRdolXuGBPPlfy+4nM28TjdD4uOLSzXWjQAfYfW+F+gZeWB24sb2teQ7r51Lt2NuJ1YbvhIPPdF4NWN7Thg9PHVZO/+KqMbrgfzgVpCR8zAEWf5VchX9Jpe+Cs1riFM1Hqhq2ptaprxCLv8KkwYmbFfZDE9f/gueo58D6n+51UYdF0M4dwleN2fmy2vY2aWxs+8E9z/YSKIBMAdOL5VvF+KLkIi0uYUQKax/PCbwH2PJELI6E5GVp1GsPPeEsuxys9qTJ0tcckuvSr72Cqf1728EEQWHQeLjofuhr/R2kJeAAAAIABJREFU1kuGwob2Nfi2mo7eu2fjRs92YrZzIX7Xp4D3AulG9RtkniV77zfJ3vt1/N0b9x6vGO7HH8YJHeVOjbj8quRTrfpKbxUfhn+y3ExJrEBSYxhxKbpWvoHel7+Pzue9tsJg68DsIfDe5zp61jW24/oys04Y7AM/79ziwepniEi7aNW3paayfOZ04DskEkJ2MLrqNIJdv4922d1yMyPTj42LPBNiFZ4rcV7vykIQWXQ8LDwOOhaX/Pnb0A4mNrSvda77kWYPaK4oLrd6J9jlRL0sZwRjT99J5rdXMbr+p5g/ClSf7Si7vKpkm/J1qratcNyFaFNWM175a70SVphwUiWURNl0Xrpd9TBikx6nlx5B78veR/eL34ZLN3Rv3X+TCj7qXN+sWZYlIrOTAkgZxRDyPRL4DayNPsfo6lOxXfdPhIoyoaOuG8/DLL2q6bzxn8ODeUfAktfBwuOh/1WQin17lVaxubCh3VtDKlg9m9Zbt5Li/QC+ROW134nKPbGW4duuKFw+t2hGEKhT6Kg1cNQUNmqdHampQUgVgkGszebT2iS+DCtUGws9K+J1L6bnpe+k92Vn481fUWZgiduF4xPFpUqazRWRlqQAUoHlM2+mEEJi32fARraTW3MKweBDIWc1XOWQwrTvYeb/m1FmP6osNyld06Y+9jqh/xWFMLLoBJj/cnANW0lTX2YP4NxasFWkRtdpWUA8ZtZJPnMRzp1HI5ZbWcDo+p8yfNtnGXvmzr2HKy2zcqUa1Bg6agkcocNGtaBS8fxmvfSXSAdhl2FFWYJV7mCUMFLrrMik51yqi+6XnMm8V5xDasFBpUaZPMed+LzPdfbe3pgORUTCUwCpwvKZt1BYjpVMCFl7Cjb40JTwEGb2oyEbz2upMeWxVW6bng8LXgMLBwqBpPewEsXaUmFjpBVnSAob2nVTrJAsN/wyUt43MTui7n35OUbu/zbDt1+Jv3M9UCYUOKY9V2PwiDobUua5aOfEmQJpgFqmQGLMdoQ+J4kwUmlWZPK5Xgc9h7+dea88l9TilaVGl7QA419J91yg1yYRaSWt8HbU8iyfeRvwLRIJIc+Su+EUGHx4auiYMtNRZfZjcnAZFymMxFx6VapGmPM6l8GC4wszJAuOh+6DmSVGwG7GeWvwbS0dPXdoCcRMDZ31CPJk7/82w7dcgr/nSaBEMIg72xEndMQKKGGmQCI1if7OUGUJVahtIGGmQCJsOg/VPkQYMSv/HFjF5/c+51J0H/pm5r3qPNJLDisz6AQZD2H8jWZDRKRVKICEZPnsO8C+SSIh5BnG1p2K7XlkRsCIdNnd0DMV05+LOPsRtkbYmj3PLwSRBSfAguOgo2H7j+ttF7AOZ6vw0mud63qo2QNqtsbNehijj/yUoZv/ifxzDwIxg0fM0BEpcFQKG7VMcrTyq3z1FVlVnpiZLCovmyp5SukDtVwBq1THk58vG0Q8ula+gb7XXEh6n7pPBOYx+wzp3otnyyV7RaR9tfJbU8uxfPZMsG+QRAjJPk3+xlOxofVTAkVdL7ubdHCIMvtRqsaUx66woX3hCYVAMv9VkGr8ja/rZAuwFPNOJd21di7NjjRy1iO3aR1DN17E2NO/BaoEj+lP1jLbkVDomNkuXNioNhlSVjNf9UNNgZRuG24JVrRAEjeMVJwVmbw8q0IQ6XnxO5j3mgvrfy8R5+7DD/56tt1JXUTaiwJIjSyffSfYv5NICNlC/qZTYeixidmPMqFjxrFxkQOAVXgubM24MyjTw0eJtl4H9B0NCwYKX31Hg+tgFthAYH/pOufdWb1pezMbWUkQ/ADjyHr2M/bMXQzdeBG5J1YDCQaPWkJJiWPV21QPHDWFjVpmR8LWjKJC2KhlG0il56uHEiv1R/mT4y7BqjDrESaIuHQPvS9/P/Ne8RFc94ISA0xMHuc+hdf9z7qpn4g0gwJIBJbPvqsYQuLXyj6F/6tTsaHH2+eyu6VqVDovao1SdVJ9hVmR/hMKgaT3JSVOahsZsL906XnXNnsg9WL57BkQfAlcf7368HdvYujGCxl5+MeM/9soF9IrBo9aZjuSDB2V8kelv9rVgkq181tJpNmOmc9FDiRhwkgtsyIVnysTRCad43UvYd4x59Hzsv+LS8W+HVUld5Byf+lcz8Z6diIiMl27vD21nKRDSHDzqdjw44WQAdNCR7FhPWY/ag0AhRFX7i+JGqGes8J+kf7joX8A5g9A9yG0mW2k8i92rn97sweSJDPrxR+5CuzddesjnyVz++cZ/s1nsXwWSDZ4hJrtiBI6KgWHcq/IUUNKlHbRmte0uip045pmO2YerzybETKMhJg9KTsrEjOIpBYeQt9rL6b70L+gjnYB73Hp3h/WsxMRkckUQGIwf/gszH0lkWKZzfi3nAKZJ0qHjunho/hcye8rPhd32VSJGpXa1m0GpUyI6j4I5p9QCCXzB6BjGS3P+FfX0fv3zR5GUmx0z+Gk09+r50bz0ceuY8/aj+LvegyoPXjMCA+VgkUNsx1Tnw8xyxEicNQUNso8X/a0Rr0DlAkKZXNIyGVYVfduTDtWcdN4qbo17gUpuwQrZhDpPOiP6X/9lfW+dO8XSPV8RBvURaQRFEBiMn/4vZj7UiLFMk/i33oKZDbNrsvulqoR6bwqNWa0ddB9GCx4XSGM9B0Lqfm0oA0u3fsHzR5EEoozg1cDvfWo7+/cwJ4bzmP0scKqtXJhoS7BI1ToKPVEuXYV+irXrsJzMw6126t7tWVYIZZgzWhWIZCECSOVllhVrJFgENm7PyTVRe8rP8K8V34El+6hTrQkS0Qaot3eolqS+cNnY+6LiRTLbCK49WQY2QyUmf2o9KF7+uN6z37UO8RUmv2otW+Xht6jJpZrzXsluLqurw4vFezrXN+2Zg8jqsKSq+zXgDPqUj+fZfg3nyNz++ewfLZ88ICp/1hmzIZUOT69Vpl+Jvoqd1KpNhXqlGtXrma1c8qp0D7pN4PIsxsV2ocOJSGWTYVrZzPbRN0LEuY45e8jMn48tfAQ5v/xFXQd8qfUhw2C+z9akiUi9aQAkhDzMx/EuCqRYsMbCW77/+y9eZhkRZU+/J7MrL2qaVpsGmgQWUREAXEDRwVkcXBHxQ0ZUccVHVdGEcHRGdxwcBt0vnFjRp2figsuICC7yCCbLSIgtoqIiND0Ul17VWZ8f2Rm1b1xT+xxM7O6432e7L73bBGZlTfuefNExH02aOYvLfJBUE45WlbEoRXD2pY7Dv0cgMU1MJVhYPSpwOgRzUXtQwchwuZmfqjO7EC0arw7jYdBiOk90BA/QEm7XM3dfRnGL/0n1LfcDYAnEp0iHnmdoj3ZV2VjYWe05cB3y8q+FBgIh1Olg7ExkoyM3DR9Sm3DVEU6RUQU9gP7vgBjR30S1bHdUBLSlKyEhITSkAhIRIj61Dsg8KkowSb/CPGLZwMz921f2+6WVf3gYsi6vlXAyOFNQjJ2BDCwLzqEOVSHhpbjc0HE/PTTQOK7AKIvthGz49h61WmYvvU8ACKf2BeIRDHrtiIeJuJAnK5Y7VCSBEdioo2l8WNN7YVWbSjhWtHgnBQxrMiFpA+veqBIJnI2hqpITCJimpbVvwJjzzwbQ487Se5tLFyLav3FRGPLtjqbkJDQm0gEJDLikpA/ADc8B5i5b0m23KsfZRCHsioo/WuB0We2SMmRQN8alIRvU234ZWUFLwutTRg+ByD6PLa5uy/D+MWnoL71zwAUVQ8V8ciKoxEPh2pHzGqIzp4VaIJYjPYxbgjWfMR2jpbuVNdYcNVj6dyrKmJLUnyJSLYastffY8WzPo/KaClj1N2oN15AA6O3lhE8ISFh+0QiICVA1KfeA4GzowSbXN8iIffHIQ6+MXS2vtUP575ErH74xBjcv1kdGX0mMPYcRIOgI6lv6Kp4AcuFEKKG+vRnALwlemyLqkdTZiAeoXLZwEQYfEiHBeFwIhuKeDEKIVHAkAVbDlIQdmIKlrU+PhFhp18ppmW1ZZXBHTF29KcxuP8JKAETgDiJaiMXlBE8ISFh+0MiICVB1Kf+GQIfjxJs4nfADc8F5u5fksWofvjG0NmWVkHpcPVDp1t9JrD6fYiE/6Da8NtiBSsbQoyvQr32XQBHxI49d/flGL/kFNTH7wFgUfUwVDdKIR6K74qyimHSq+wK9mayYVsI6VnYzMpSzYviCEkgGdFNo1L7Cy8iwi4896yGDD7qRRg79jOoDD0MkdEA0Rmtp6fHjp2QkLCdIY0iJULUp98PIc6KEmziLuDG5wCzram4nax+BFUcWjG8/AJiFGwV5MO1X6tPA1afgUi4ANWhE4hoIVbAMiHE7KNRr18IIOrTHsX8FLZe8c+YvvWrcK56lEw8vKodIaSDc9JxD5cR3KVCEgluFQ6zrYp/FAS2hMRERiyqIj5ERNWeaeF59kBbDRlejRXHfhYD+z4fJeCbqA69hohmygiekJCwfSARkJIh6tMfgBD/GiXYxJ3NSsj8g0sybRJeQvXDiwBEqn4EEaEIFZSd/glY8zHEAV2E6uDxy2WHGTE/dSgIFwJYFTPuwobbseUHJ2Jh428B2Fc9lGSiA8TDi5Rw/qpgKsJhM1qbCyWWysgwEA6raVQKG7VvIBlxrIpEIyIu07IM1ZChA1+LsaM+CaoNIjJuQrXxPKLR+82mCQkJCUUkAtIBiPr0mRDiQ1GCTd7ZXBMyt6F57kMctH7Z80hTr6xtueMY06YiVD92ehOwy78zRj4Ql6E6/Lzl8guiWJh8LkDfQuSHC07/6ivYesWpxed6hFY9dGSALIiHrqLhU+0gSWwgHdaEQ81Z7Pwt4jrDpbJh4WtNTDwIiYmMeFVFQomISe5RDak9/ECsfP7Xy3iK+h9QrTyLaHB97MAJCQnbPhIB6RDE/OSHQHRmlGATtwM3Pg+Y35CX5xItodHBQmcgDjFiWOl6oPqx6mRgt3MZBy9ci+rQs4hoKkawsiEWpk8GxBcB1KLFnB3H+CVvxcxvm88586p62FQ3tPIA4mFZ7dCSDlfCoSMbNl9LxqaTg3/QVCyhOLUgJMFkxKUqUhIR0ZEL22oIDazAiqM/jcHHvByR8QAa4jjqH7klduCEhIRtG4mAdBBifvIsEL0/SrCttwE3Px+Ye6h5blv90CXdufNI1Y9uEgffGNnzla8A1v4XQFVEwA2oDh1DRMvigYNRN1JoYf7+W7Dlxyejvqn5o+ki+fCpepRIPFhSYKp2KPUepKPoordndNrBvVsjv4Y0OE3Dsp1WJel4W1GMZ6qKlEVEXKZleVRDSpqSNQFBz1tOO/klJCR0H4mAdBhifvKjIIqzhdLWXwM3PR+Y36hO+r0IwDZY/fCJscPxwO7/E4d8EG5BZebI5fC0cyEEsDD9KRDeETEqpm7+AiauPh2iPstXM3yqHqpqRFnEw1Tt8CUdqgqHgaAoTVxH9jLuBD7TsXTTsFynYKnsLcmIV1XEiYhIbZVcDSl5StYcgBOpNvydmEETEhK2XSQC0gWI+amzQXhPlGBbf9WshMxvbkcPJA6GGNYxQysoFsTBGDOggjL2bOAR/wtQhGfsEd2GysKRRGMbzMbdhRCiH/XprwJ4ZbSY85MYv+gNmLnr+wBU1Yy4VQ8t8VDZM3I2vjIe8x64uCoblZ3KVmevsenmoM9yAodqR+FUUakoHGrIiLJCIf8Xm4iYqiEq+5BqSMuO+kex4llfwOCjX4yIaIDEKVQd+c+YQRMSErZNJALSJYj5qX8H4V1Rgm1dt0RCOkkclLqA6odvjIKtgnzYxBw9GtjzO3HIh8BdqNWfTjT2QHiwciGEGEV96vsAHR0rZn3LPdj8vROwsOHXAKCfcuVY9eCIR15OOb2SqBjjmHwsSA5vGm6n0BkH9m6M/BYVESO5UOi0RMNyepU6jl1VpDQiElQN0U3JIowc9j6MPu0DiPqFIPogVYc+HC9gQkLCtohEQLoIMT8Vb5rL+C+Bm58H1DMzfLzIiGcFZfHconJhjOkYg9V5Vj9GngHs+T2gEmXDp/Wo4kii4XtjBCsTQmxcgfrgTwE8OVbMuXuvxZYLXonG9AaeQHAVCo4ImMgBRzxUtj7y1rkV8fAlEy6EQyZVKiiVCkXMu4GWbCiUNmJNJaNwGJ2MdIKIiLw8pBqS81VPyRrY94XY4TlfBPWNIBoEPkF9w++NFzAhIWFbQyIgXYaYn/oMCP8UJdj4TcAtLwQWxj2Td4fqh28MY0xP4pDTeVY/Rg4FHvkjoBLlRnwPqvR0oqF7YgQrE0JsWon6wE8BPDFWzOl1X8b45e8CGvMK8lHMovnqiEbWOu4s8SgyBR3xiEI6TITDJGT03Rj4We5QEDJWOlEIITGRiZaMJSLyf65EpOxqiCKmbJdbF/Ki76C6Yi2iQYiPUd/IafECJiQkbEtIBKTLEEIA9enPAXhrlIBbbgDWvahJQtqwSsKZqoMzATDEsNJFrH64EKHhJwCPvBCorkAE3Idq5fDlsD++EJtWojFwOQQOiRKwMY/xy9+D6XVfBFCsXlBWqCMaJoJQkOWzfVvywsrlcCpyY/JT6LX+kqyg1glMRMVK2QE4VzqExlAS2VQ9ODuvyoYDEfGqhiwJnaohOmLCkJC2X2V4NVa+8Jvo2+1QREMiIQkJCQp0+1aUgEUSci6At0QJuOUXLRKy1SEJ70D1w5Y4OPsFxhh6HLDXxUB1R0TABlSrTycauDNGsDIhxOaVaPRHIx+N6Yew5YITMXfvNQBUFQ0pkecIgQVxIFlhZWuIm7W3ja/0U7Sn8WdVKoGJbLiM7GXfBVRVCktbnhRwrMLkw7h56gVnpCIiGrkdEXGohlgTE8HaUHUAK479Dww+9kREgxAfob6R0+MFTEhI2BaQCEiPoElCZv4/QLwhSsAt/wf88sVAY2JJVhpxaMXw8sued6j6kT0e3B/Y6xKgthMiYAPqjSNpYPS2GMHKRGzyUd/8R2w6//mob/69pqKhIB9ccm8lI95O5Z91iUE8TMSCJJHJn7Ph+qG1N+u7PegX+IKJoOgKIOx8JIW9R9Vj8b9IRERLOEKrIbrKB0tMhNJv5CnvwegzPoRo35ZEQhISEiR0+16UkEGLhHwREP8YJeDm64BfvRioTzbPlYm80Oh0ftnz0AqKBXEwxnSsfgzsDez1U6BvDcJB42g0jlwOTwQWYssqNPp+Got8LDxwKzad/wI0pv5mRT7UNpJMsiNZ6EIyCgRDJbcjHjrSkRM7kw5PwkFmE6s4ZcNANlRFDp0hm6grYniREWfdktCuwuFi61EN0RIT9eL0oceehBXPOheo1BAFQvwb9Y2cESdYQkLCckciID2GJgmZ+jJAr40ScPPPmySkMZWX+xAHpS6g+hEjBgDnhef9ewJ7/xTo2w0RMIEGjqH+4etjBCsTrTUfV0Lg4Bjx5v50JTb/4BUQs+MKwqBJ6GXyYUUoSGunbEMVU1YGEI9SSIeBcCgHcNeRnbF3DcHyBVN1w8LWipTYEBKOjJRNRAxVFKvKh201xNLXZl3I4g5Zex2HHV7wdVBtCFEgxIepb+SDcYIlJCQsZyQC0oMQQlRaJOTkKAE3XQP8+qVAvUVCcn91TfXDl3zo4rB2jjFYnUP1o283YK9LgYFHIgKmIOg46hu6JkawMiGEGEZ9+kpE2mp35s7vYPyif4Soz9ktNtdVKazIg4J8WBEXTUxdjHyz6lgmv4KeLGyKMnbANo3iJrJiA87ZhVzoXE1xGL2ykiHJbMiIVVVERR5kHeujISKmyodtNcTgq5ySZUFC+nZ9Kla++DuoDK5EFJB4c3pYYUJCQiIgPYr4JOQq4Ncvb5KQLHkIIg4WMYwxHYiDawzOtm/n5rSrgX0QATMQledR3+BlMYKVieb3afr7AJ4fI97UzV/A1itPBUTDbbG5LYHIkQcNSbAiGZJtVhmbeHDJvmzoQDoKKt2IbUM0emHENxAOLblQyG0IiTUZiUREVFULNpZt5UNHQgy+ZhIC5eL02sMegx1P+CEqY7siAhqAOJ5qIz+MESwhIWF5ohduRwkKtJLG/wbwqigBN10B/PoVQGMabNXBmQAYYljpIlY/TESobydg70uAgf0RAXOtm+hFMYKVidYua19DpO/R1A2fxtar3w+AIRYcYWBtlmRKomAiCbKvC/FQtc3aG+SyLqdnyJPCnxMrR2gd2XAZ1Yk9DEaBB9hWSxR2bPKv8HEnI5ZVkchEhCMhbHzZ1jamjphobQRrU12xB3Y84UeortoXETDXqhxfESNYQkLC8kMiID2OFgn5GoBXRgm48XLgthYJsU36lXYOFRRWV2L1Q45RWwnsfTEweCAioAHgBKoNfy9GsLIh5qc+CsL7YsSa/MU5mLjmAwACyQdHFgoyBfmwlWVDcH1T2drKZV1OT3JzYaRDbkdna9OGhY8XbImGbK7zU1U8LAiJMr6y6mFRFbEhIkaC4lkN0dp5khBw1RGehFSGdsLKE36Avp0fj3DQOOr1v1sOuwYmJCTERyIgywAtEvINAC+PEnDjZcBvXg40ZpdkzgQgoPqhi+Ec0yJGbQWw14+BoSgP+m4AOJFqw9+MEaxsiPrUeyBwdoxYLuSDJQcGAsERBT2hsJBlY8YiHkpiIfWb8+X0ChtOrByxbYhGr432GtKhJRiMTmnvQEasqiKWFQtlnwrJv6IawtnqyES2QR1Z0cSyJiEDK7HyZRdGIiG4F1V6OtHQ3TGCJSQkLB/02i0pQYEWCfkWgJdECbjxUuA3rwAac54EwKH6wdpFJB86v8owsPePgOHDEAf0GqoNnRcpWKkQC9OvBMQ3YsSavP6TmPjZmQA6QD4UNlYyLh7XL9ZWkjHynEhHPDxJhwvhUA7eVqM6mQ69UeABVmUOXYCM2EAybO3YLrFkowQi4lMNcSQT3Pa6NpUPNxJyEfp2jrKZ3npU64cRjW2IESwhIWF5IBGQZQQhRA316f+HWCTkoYuB208ExNySzIoQhFY/LIiDUaeIkT2vDAN7fRcYORxRsIx2bxHzM8eCGj8C0B8aK4R8aMlIwUZNPvQkQ5KZ4rG20NrmRNkDpY7xK5xI/VDZqOxUtooOOA/2rg6W/KJgbkNQGJU1IbEhI7qqSNlExFQN0VU+XONZVD6sScjgjlj50gtjkZAbUB06koimzKYJCQnbAhIBWWZokZBvAXhRlIAPXQTccZJDJcSxcsHadaD6Qf3AI88Hxo5BFBDeSdXhT8cJVi6EmH006o1fAGJFaKzJ//sEJq79FwAc+cj/dG4iHywZyf5jQz5MhEJHiPLNuBES+cBAPIJJhy0xkRyMA3qvjPg2XEPJMIpi66qHgmgU280fc4m9Mq5PNSPrYOuvIyZSvDJJyI4vuwi11QchHHQxqoMvIKI5s21CQsJyR6/cjhIcIITob5GQF0YJuOGHwJ2vsayEiHKJg0mni9E+p35gz68DK56LKCA6japDH4sTrFwIsWUV6n2/ABC8z/DkLz6FiWtOB6AhH4vnGUdb8mFLFlRxsrJFuYLIWPvr5KS2l30YPTH2Wn/ORjJUqa1A7GFUCOWJjYMkDiUkLlUPWe9JRDiCoLW1rYY4EZOySciqFgmJscEH/RfVht4YIVBCQkKPIxGQZYoWCTkfkZ7rgA0/aJGQ+eY5SwCYyoUzGYlY/WDJx0Cr8nE0omAZPbm3VR27BMAzQ2NN3/rfGL/kLQCEPfngEn8tiVCQBRtSw8Uy2XH9sLHVkRrZRxfP1ZcxsiMomvgG22iwIRsoJsG2sbSERCYjpsqIC1EpEAiZtRQTfVUc72qIrvIRmYQUfTpAQkicQtWRz4cHSkhI6GUkArKM0SIh3wUQ56f+DRcAd54MoJ6XZwmILXHQkQ8rW9WxIcYeXwZ2fAWiQOCT1Dd8apxg5UMsTJ0L4C2hcWbXX4jNF7wcEHV38mFNRtTkgyUjWVmhHQ1BMBIXSZY5dyIevjpOnzGyJhwqgmLy6yY0pENX7HAiJJZVD1YfQETM9npbr2qIFTEpLk43kw5LEjK0E1a98gpUVwUXX+cg6FnUN3RVaKCEhITeRS/elhIc0CQhMz8AxN9HCfjg94C7XguIFgnJko/cOdjESn8cWv1QkI/2+djRwF4/YJQeEPgs9Q2/PTxQZyDqk2+CoC+Expn/y3XYdP7zIeaneod8qIhCpj9aQiHH59rIyUltr5MzfVXqGL0T6eDsVLYaFPpUEtgqhNJYIzJUMxZPXclIB4lISDXExtf8xHNhMd3Kj4RUR3fDjq+6CtWx3RCIDahWnkI0+IfQQAkJCb2JREC2AcQnId8B7vrHJgnJkgdnwpE9DyUfmRgqv71/DIwGzz4CQF9CdfD11KnsLBBifvqZIPETBO54tbDhN9j4v0dBzI6rd7vqIPlQkgqOJCjtLGQ5OSnkKntJ7qLj2mNtmDg626za5ysc+rV3IRuwJCdKkmFrpyEjiqpIMBFR2XtXQ4TS11z5KBIad9JhR0JqDzsAq068HDQQuAcG0W2oDB5GRBNhgRISEnoRyyPDSjBCCDHYIiHHRgn44LeA372xSUKCqx8G4mClM1Q/+nYBHrOeUbpC/A+qw68hokZgoI5AiJm9mjteYaeQOPUt92DT/zsK9a1/MW+1G4N86MiBDfnQteUj6yjxCCAdmq+3kWz00mhvQTq0xMSGkMg2IVURByIiVxuiVUOkmM6VD4aEuJIO24Xp/WufgZUv+R6obxiBuADVoeOXy49BCQkJ9qh0uwMJcUBEM6gOHg+Iy6IEfPjLgH0+D1DrK+JLHFR2sXVjRxkMrfDt5UU+RD8ajfMRSD4aUxuw6dvP6Qj5INnHRD5abSrjcH42slw8Utua5JKOOJ+MIRFp9Bl/zkb6euds5WuQe2l8O/HKd8C9j0r/9mHbjhQ2hOY0QpId8zEK/pD6IPlw36+lOLSo5+K7yCDFXJRlPy8o/LLn0MQxnMvXO4gK9gAwd+812PI7Dlu/AAAgAElEQVSjV2NxKq8/XoiFqX8NDZKQkNB7SARkGwIRTaE6/AIAV0QJuPqVwD7nApWqplFdhwDlT51GP0WMgq6FseDZZxegOnTSciEfAID69KcgcEhICLEwjc3ffTHqm38vJSftZGMp0+L1ORNF4sInOosxMi9lDCI+TqGt1rlJJvVLaSu1ZSIesrwdrE08ivpMe7JeukbYhJyYl8Jemcyr4oS+5CZs+uPwflQ+lLHNfd8K+uwfsKgv+Crk3PcnHycj0NiaZCoibrwWuHNdHMO5iYS09bO/vxDjl70LwSD6gFiYjLPbY0JCQs+AuxUlLHMIIYZRn74QwBFRAj7wNWB9c0vWwjdGTgQKOmb6lpWfQwyqAgf8Baj6zjlefg/AEgtTLwLw3cAo2PLj12Hmjm+yyU42Y+L1ORNFwmKX4ADFpFKOoWxHF5u1I95XFZPpm0kOkEYntcPp5dgaO6WthZ8NdNNfhNPqci6ARqXSMXLTVrusTWEqFT89y7zewywXskKxloOTGePZ+EWYjmVauL74XZD0Y0edg+FD3oRAbESVHk80dE9ooISEhN5AIiDbKFok5CcAnhEl4N/+G/j9W6Fci6EjH1a2qmOLGCNPBfbxnHkmcBdqQ48noim/AJ1Hc92H+CUCn3Q+ef3ZmPjZBxXkQEM+2uda8mHhn/nfinwobdSxi2SCIURKW7Xcl3hoSYmsd7VT2BZ9s0aBBMIaS20aSYtCbUtIjM/94NooJPGygyXhULXDxbciLBlfnY3Heo6OkZBKDTue8EP073EEAnEtqkNHEtFCaKCEhITuI03B2kbRnI41dByAa6ME3PnVwN6fg12GoznX6QpQkA8ZKwKmXy078tFe9xFGPmbXX4iJn/1L86SL5IMy5kUbsrBpnRvJR9NIOzVLFzNDglRTrZTTrEjnx8TN2lDRRjtlKRczs+Yk5ysyr05hqc3iFCzKkyL5PUmfvemzMtkQ1PrF7xozPUsWF+TZdtr/MbY5Yq2IW/DV2UjXiul6018jep9C5bNwTkV9YwFbfnAS6pt+j0A8La0HSUjYdpAIyDaMDAm5LkrAnU8G9vo08ncuFBKfJoRGp/AzxlToVhyjMdaB/nM5kQ8AQH3630PXfSxs+A22XPgatJNBAJlEI59AKJMX6BMV5/NW03KCpreR4tgmZ6oELJM0sbZMkglYEI+sXH4vXFwq6pVrPhZj6YhGr4MjJhpS0hbJnw1jp7XJ6DmiYCQi2XgwxVmSF2JnLznOToqn/E5aEIjCdWAZo/A+Xc4BNGYewubvvxxidhxBIPpnMT9zdFiQhISEXkAiINs4iGgiLgl5HfDIf0cuE8g1CCiTHoULr7OsfvTvAgweqDHQQOBbfo7dQWvdx1tDYjSmNmDzd18CMTfBLibNnhfJic25YxIkNZ1NyvTJliJuIbah6iEnh1wbnK2GeJDSJ6OT/WTf7HeeuDgk2S4HouECmZRkCAnB7XND3obTE5a+elndkpzyfnK8gr1kC7Cxs9cMa8fE464d6+uv3TbXP00Ma9LREsqfMwFYeOg32HLh6xD4Xa2AGt8QYmJNSJCEhITuIxGQ7QBENI7qzHEAro8ScM0bgD3PRvbGyTccQSfbyedjxxqCKRsZR20wzvS0DkCIyV0BfDkoRn0OWy54Berjf7KbOtE6VyYzhXND8qM6Xzwms082+eNscn2hwvss2i31QdtGxslEPGR5Qafw0/+SH5lwUJde3igSEva9gPk8HfTU0kPSNeUZJykeb6+QsdcCGX2V15AiVsFHuhbYNjQxbCoduetEah9o7ow18bMPIxCrUaevCSFS/pKQsIyRLuDtBESrxlGdeRaAm6IEXPMm4BEfkxoBgqsfLjEIwJjv9Ctx2XJZzCiEAOqVLwNYGRJn62Xvwtxffl5IwE2JhTLxsUl6bM9tyEf7XNUvVV+yiaeFjG2jJQwiHqTxY/WUsfEkHKR4dQvR+hNIRpDXy/6LX0kmSeeISPYrvCjnYrT/k767lG1Q4av0A2fDXI9Ze5LOs/5SjELfTf6LPvz2vJPXfwIzd34HYaCj0Zh5X2CQhISELiIRkO0ILRJyFGKRkF1OAfb4GK/TJRW2CYcpBvUBo77TgcVPPB07j/rMawER9KCTmTu+jelbv9I8KSQkJJ2jmGAoEqAo5GMxm7JLuvQEQj3lCpYyuY028SjKYZfYyv3ldIv6ANJBzGu5IKjvBjLSPtV+7sVkWklE2uqsgosjx5BkUMooH1ZzPbTbtL4u5b6o/DMx9CSF71P22im0BYHxi09BfeN6BEGID4m5iYPDgiQkJHQLy+kWlRAJQmxaicbA5aGLmRfx188Cf34/lAvPdeeFY4ete0f+Dtj7p669baIqdiMauc/PuXMQYnoP1MVvAIz6xlh46C5s/PrTIea2MoSCpHNIyQJ/rk1ynM6pGN8lBtcPrR0Ti2m7fVCshChiauNI8oKO4FXh2N5Gb+ePiIpb/ma3yVVsxVvQGeRCVmi257WRFbYC9tmWV45T2LZX2kLXtEWvEE5b/Gq3523Z9q0+GDu+6kpQdQDeIKxDZehJy6Wa3YYQooKF6SeDaC9Qw25sF5UJQDg+q0rMQVTdN1oR9Y3OPn21KY/+LQA+OxPsML6sHhqcwGJ7u4UltCDE5pVo9F8JgTi/IN13DnDvGc1jE3FQnaueMaKKuebDwOr3OHYUAOFWqg4f5O7YWTSnXk1fDuCZ3jEWZrDx60dg4cFbGULBkI/2uQP5UOtN5yWQDy7p18lUZKI9fcTGlum/Sd7UORKPMkbrTt0BYq+RDyUjMi9xIBwquShk+LytGzExkBBJ5kVCTP5tmYGE6J8RIti2hh//JowdfQ6CQPRBqg4FLyzpBIQQFTSm3wqBdwPYo9v92c4w03q5oAFgs3NLhAkAbqRYYA4QE85tgdz7BzEBVNzJooC6fxX8DQ26AbXBm4jI6nNOBGQ7hhDjq9CoXR6PhJwN/OVf8jJbMkJA7s5o4/eoG4DBxzp3EwIfo77h09wdOwtRn3orBD4XEmP80rdh+ldfZqobS+SjeY7F84JtwTdr2IPkgyMKOlnu+8VXPVwJhp54wB4xRuheHuVjERPrOPGICEcIlmyF0Vb/YEFZJpSxOkJCxJKxMwlR+DZtCSuP/xYG9nkuArCARuNJ1D+6LiRI2RBCDKI+/TUAL+l2XxISSsT9AJ2G6uB5ZLjZpTUg2zGIVmxEZeEYEG6NEnDXU4Hdzsg0oGtcPtZUPzi/vl2AwQNce9gOcqGnY8cgxMw+EPh4SIyZO87Pk48WrNd5gDmXyUPOMP+/K/lg126ozlsHSh/p/XEkqkA+5EXm7XhZWdbfSU55nQ6EnK8TiHn1MmL119q3vV4k8wWWv4OKv6vcFkFjKxP8zHHebklGClnhmoHKxnRO5mvcKZ7iPSnfN7coXWD8ojegvuUeBKCGauWrQohaSJDSUZ86F4l8JGz7WAOIr6I+8wWTYSIg2zmIVmxApX4UiG6LEnDX9wG7vp9pyLZDln5jz3IImgs4jtpgnO2IS4IQooJ646sAhn1j1Df+DuM/fVvzpJCcL31uXMKds+V8ueRCimVKgnL2in7oEx/NFrtc4pi1kWVoba3L+LIyRdKpIx7Gn+gJOT9rEPx9exUh78naz0xEcjEh/Y0lOaS/PWWDZGTGxegoythrR2ljOidHe7O/8gcN5r1xxKwxuxlbfnwy0AhYxiFwMBozzI2nNyDmJp8I0Mnd7kdCQucg3iTqU+/SWSQCkgCisQ2oLBwJotujBNzt9OZL2aB8rEjO5CQiez52rFfXAHFpzy9YrE+9FsDTfN1FfRabf/gPELPj5kXnreOsSp2ALP0BCnqVb86Wim1J7bbP9QmQgSwwfSrYZBIiO5JSTB4XY7JyR+LhAoKfn23MWK+y+ubjp4TQ/A3t5YRi4t2UZR2X/OXvtr5yoLiGlDamc3K0l/8v+i++daZvJoJCAObvux4TP/sQgiDEGT27K1al8nqkfCthe4PAGUII5SYL6YJIAIAlEiJEHBKy6/uBXVvLLGyTBp1d7qbVB4z6rsumnt5+V4jxnQAKmno1ee2/YeHBXxWSAvnXR2VyLf1vlaiY4mYTJ027ejKiSJx0fVbEBQKqHlzfF21LIB4kvXwhx4kR07e9WO/D1UdnQmArItbTstoy7jvNVENYO43NUpjMtcTYlEVC8tdA9sIvnirfW0vIvf/JG87B3D1XIQC9OxWLxBO73YWEhC5gJRpTr1QpEwFJWATR2AOoiaMgcGeUgLt+ANjlVKkR+diy+pHFyGFAdYVfn6qNi/0cO4R69eMAVvm6z9/3C0ze+OnmiWWin8nJ826uCQugIBfEJiI25GPpXNO+5FOwkeJGr3oAdsTDNXF2TbJVbYXEKRMx+hj9M1VPzeL/7sXvyBJRkGXZYIxd+1xDCBZtFgMYrkntucU1LZ3nr7cikcjZyv3O2SrWg1z8Fog5j42A2hA4GI3pt/gHKAkCa7rdhYSErqBBysW6iYAk5EA0ej9q4kgI3BUl4G7/Aqx5dyu4rHRceN6G78MHCet6+dkfYn7qqQC91tt/YRpbLno9IOoMwVj6EJXVDkhJQlbAJezcOWQ7pl2m7VjkQ9lHLvHJJpGczCLZXGrXgnjYgOBmL/u4+vYaQt6Hi5/RTk9ElDJIMhV5KMiW4nHfc56oUM6mTBKSfW/ydc7aaj6XwtiQ+a++5W5MXJPZyMQHAh8SYmJ1WJDo6Nn7TkJCqSA1+U4EJKEAopE2CQl8VG0Lu30YWPMOqRFdBwy6HY7z60cDPVv9EELUUMG5ITEmrjkT9U3rC4l50LqPjJN5jYgpFq8vg3wUKiGQply14zBJljbBzMmkp0TLcE2GbWxDfHxiu77K7ourX7AdQ0QA/2pI+5yJZyIAPFEhpY/9ueYay3bT0ldX+TCtBwGAqV/+V+hUrJWo09khAeKDbup2DxISugKBP6hUiYAksCAauQ81HAnEIiFnAauzuzJ5Vj/6dgUGtsHtd5sPp/JeQDn3559h6ubPN09UybStTk5usm5KW+7cnNhokyyTvympyXTadp2IMakE7KdbmWCbJMv2Lj66GKpXCDoZ38U+2E44EFMpLmNHQKG6wn3P7aZokXQu623OM9ea1Hdb31w/uTjc54OSpmKB/kHMTx0aECAu6nXjlqQJCdskSPxCpUoEJEEJouF7UcWRgJrBOmHtx4DVb5UakRs16Lx3v6Jx1Aav83QuFUJM7gohPuTtPzeB8Z+8EXKSRO2DtqigQzFhMCUtXBxTQmOZEDmRj/a5KrlZ/L9IPorVEUMiWZAFTreyTYqztrb2Kl/fGGUgVr9c/G1tDTbe1ZCWrJiMZ79cUJMO5MyYa4Kkc1lvc0759pRt5fvTFsrES31ty3GooIsyFauCLwgheiLHoYHRWxHreVsJCcsFAneiOvxjlbonLs6E3kWLhBwO4O4oAdd+DHj4mxWN6TrS+n/Mc/pVc/vdhqdzuajT2QB5rqoHtl75PtS33F0gFbqpV1AlGVmBKlnh4siJjGMi5EU+2uetF0s+sjaFdniZvuqhQITktmBnY6vyc/W1RvbR1hEh9933vcey1dp4VEPa31FZtnhOjExznjn2JiHZ97p4nO+H8brNxeB3tyq8B0tdcyrW1fCGwMFoTL3BP0BkVKqvANDbW8AnJMRDA6i8XffYg0RAEoxokhCKREIIWHs28PA36pMATkd9wMjhvu3+yNOxVIj56acBUG5TZ8Lcn67E9K1fbZ5okmqVjk9MiE0icraA4pdSR/JQ+N/Pf/E8SxhkGybp0SZ6OZlmt7agZNbDTrZ39VuEsHtR9tVur3VuG8OHtPi8Nxcf27+dSkWwrobI8azXhejOs/1bvAaWGtNeM1K/vK7XrE4+J8mU6bPdVKw3B+6KRR8VYutO/gHigWjgdoC+0u1+JCR0ABOAeA71DV6qM/K6bSVsnxBiek/UxdUA9ogQDbj3HcCGLzZP5W8ic9PGyOHAXp6P8aiK3XptBywhBNCYvhkCh3j512ex8bynYGHjXQypWLrjs4SDSWqUJMKaAJAhrumcHO2ZcxjWe7RFTDLFVT2C1nnYJsEu8BqxmffQjZFf+VE6dsaVy9jam+w0epHVCUkmGDvZpiUTWaEiTuE820Y2hkpfsOXOhV5v8BVCpZP6X9CJgm74SW/H2BEfhT/oS1Qben1AgGgQYmI16pXfA1A+nM2I+/8ZwICiAYUP1QAaNdvJ8uoOAFUycuZalX0qA0BlyK5fS05ALTMJwPaarY4135stBIBKP1AZtvdpo29lMZYJteFme9sXrke98XoaGL3NZNh7D+xJ6FkQDd0txMyRqDeuBrA2MBqw9tOAWAAe+mpBxWLsGN+mbuk18gEAqM+8EvAjHwAwdcNnmuSjLVhMoDPko6Bb8s/qtCRA8i/nl9VyyIftlCv5fRqrHjrEJh5O+XmPkA0Oqn4Iuc+GDmfVNklA295ka+CbOn17GpUQYtGOqPXWMu3nZO3zdt8IIAGIthEXhzsHIEiKsXSQ1yPv32xPbr/lQKKgX3z/jO/S/wSCUMTNtA/Zj9dN3fx5DD32JNR2eozmj6ODeK0Qs59qViC6C6LRB0R9+uMQ4l+9g8zcBUxcmv8uOh+ThY3UbpaEeLet8c2es3LyaE/ja+nfJtOF/5E9F7xN9v8MMV8k6AVbAUE1UN+oMhaEyPeh1XylbweI1qQm0epP39pnYOzoT4Fqg+gA7gfoVFQHv041u5tOr9yaEpYRhJjZKw4JAQAB/PkUYON5SyIu8QWAR93otwOWEB+hvpHTPTtYCoQQ/ahP/xbAnj7+9c1346HznggxP5WvNmSSeQCMLqNW+CmTfEcCwc1/71nywdlw8NW52DjbZu6W28KIXkjyLd+U7a+mNnYmG6We8r/it82lxIqvfMjngvdRnbf/yekFa8+3x51nEiuTLeen6i+ny2RTsq5/98Ox48s9q99NXEC14eNDAsSCEGK4Nfb73T9n7wDWPxlo1DNB4XacJQLOSXkgAfHpr4pEKN8fpPfnSLjka7dAJmSZKNpkvuNGkoIlGzXxWLqmtURHAJWxtRg94mwM7Pt8dABzEDgHtaGziMhpvmRaA5LgDKLBP6BaORLAvRGiAbufC6x69eIpi/7dA7bfrQTduUpBY/qt8CQfALD1ivcUyUf7oC0q6DJqzk+l4wihBYHI/h9ELiKQD+N6D0C/0Jyy7Sn0Opj8ZTutrci/rHwcQAGvMtrPvV8LP9v4ITZKncUC9ex5S8Z9v7n1JdpzuW+Za1O2N11fOX8b24KuOCbkPjLt+FB0mPvz1Zi543wE4IViburJIQFigYimAPLf4mtgf2DHf/Bo2FEeE2W1QYrjiG1Ta2pxe8M67Q9U7fak8UPrQvwpd4mZ3kulNoSRp56BVa9Z1yny8WNUKwdQ3/BpruQDSAQkwRNEg+tbJCTC1CYC1v4HsOqkgngRY55PPwc29tr2u0JsXgkB74rM7PoLMfv7i5iEY+nGzScj0qGcTEDjRyiO9YpEo5B4cEnK4jmzWNzlHHbkY/FcaUNQJrimRNTmhmSCTRyOcPjcXGX/0HgusUP7a0NGbNsK/dtp/FUL1Nnzlkz+njdtLGMw5/I1mns/qusq039d33LXN9PvQrucX2FAkWJKfdl61WlhC9Ir+Li/c2RUB/8HhHXe/qvPBKqKZSTc5xoVQt1GqW2LgLiGHy/kuLk2LHzb90Hp+0uyTfs/Zowi2UM5dhLkIwIwsN9LsOOrf4nhQ98HqklrcGJD4E6IxnFUG34e0aD3s+ISAUnwRoaE3B8erAqs/Tyw44mtc0k/+ve+kS/rue13F/pPB7DKx1XMT2Hr5e9pnmTHKjYBKOpI0mUTBVmn+8U0r8jr1AmJPIYqyIccXtl/R/KBdmLI2TA3GekGwep1MPlb2TCVDhcob2JdREifcj4OZMQmZoiehfAiITw5tojBnC9dL8w1rhwPMocaX7nfhWu8dWYcDzg/+T0DaEzch8n/+xgCcISYn/C+kcQEETXQqJzqHaC2M7DT2zMBXQPYJNVQfjf8oRhnXY5jIiSu6xgm2XGXkm2/suraww/Eipf8BGPH/TcqK3a36EgIaByEd6M2dBD1jV4cGi0RkIQgEA3ehWr1SEQjIf8JrHx5Xl7pA0aP9A3aU08/F2J6DxDearbkMXnDOaiP/0lK5HMH8aZeZaFJWmwXnecTJcWDy7L22nb9yMfiOcE85UqF0ITVaBMwvcr1ptgr8Ol3zr5DRMRZJwJIcfacDHqpH+x1Q8XrSLru1Ncc5W1RtM0qtOMA8raFY/k9ZWSTN30OCw/9Ft6oVD66uEany6C+wcsA8k/idnon0LdLQAcc5TFRVhvc90l37NuM9F3WhpTGFaWtZvyTbp3Na2r4YRg54lPY4WU/Q99uz7DruD8agPgKqo39qDp8DhHNxQiaCEhCMIgG7kS1ehSAB8KDVYHdvwisPKF1DmD4qUDFc9fCaj2YpUdFXZwFwGtLisbE/Zi68TPNE44AaG7mucNCMm+RhGTtFAmJKQnJBZCTDSlGe74t399A8oF2Quc55UqnC0pyM0m0Taysna29D+Q2Ot2mi30sIuLjr9H5TQuUz8mgXzrXEYDFQ8V4ob1uNbZGP6atQmhpQCnoGvNLFWAfCByM+vRL/QNERn3h3QD8KvSVYWDnM8123N9ZZ+MDm7hljhVWcCSe2etFWgei9ZFe+a87cy0UYlLhMsrZV2oYeOwbsPKV6zDwuDcAldI3s70eDRxGtZHXEY2E/9CcQSIgCVFANHA76vUjAWwID1YF1n4F2OHFzfMxz6o54Rai0XBSFAlibuJABDx0cOLaD0PMT9otPM9KmQSkQCJckhHOz5CMUFYo26oSKbbvXSIfNjceHbT+jtUOWzsTmJsl++pUHJv4trahRCTk763Q+VU+pJgGEqK7dil/oB4fKP8WbNaqcLrcx2DQQdYp3i8AzP3pcsyuDyhsC5wlhOiJRxDQwFjYwwlXvgoYfCwTOKBTVhDqNmKMS0p5yDqQgLat1pAsXmH6UG0lY1AQSWNobdenY8UJ12L4GZ8CDXrN4nbB/QC9BtWhw6h/+IYyGkgEJCEaaGAsLgnZ/Txghxf5P/+jIS4K7kdMVCpnwPOaW9hwB6Z/8/UlAXODpoIOjH0xEWETD1VSootpkZQobVUJWC5eieRDl3CGJqram5rD2g5bO5Wf/Oo0YvTB1nfRxoKImOJE1C0uTs+8B/c1HWTQS93InlPWELn/ldd3Lg7lxwm5DeW1X3TK+rkuSJ+45oOA8FzaR9gH9ZlX+TmXgGr9DAB+q+upCuzykdaxq3OPrgOxkdvCJm5IG5nxSBuGeFvussnZt1AZ3R0jx3wNo8//CaqrGMIZF3MQ+CSqQ/tSbeg8oih/dBaJgCREBQ2M3YZG4yhEIyFfBwZ8H0BVuSS4D5EgxOyjAbzI13/imjOAxoKywpEXMElJFooYygSESSR0CUgusci1q9/xSlsJiUI+AKebX4hOq3cgHrYJt8qnvHtHHIT01eXz0xERUxyd3qRj4bA4nTmnrIDJZBavKfkazNlS3jbrK8cpnBfbLojZDCvegvSFh27H9G3fgDdE471CiJ7If4hG7wfR2d4BRo9uvrwad5SHgru/lNmGjdw1fOvaYopz4e3K40ltCIOHnIbRl96Cvr068Rgburi1re6pPtvquqInLsCEbQvUP3orGo1jAGzsYjd6a/vdet27+jF377X6bXezh1ISIf9PshF3QyDVmMknLZLaOvnQJiNlnTNvSQmfpFOr9yAetiC4+/QiCO7vxcZ+UR9IRFx1mu9C+MJyks4lvSJWjkjIvmw7zHt00OXJhF7H9SHX/4xs8rqzIOqz8ALRo1Gf6siDEqxQGfwkQra03/WjAFXVeu6z1dn4oKy4Nu1ZtxG+DsTokBmP+N8JKGfOj1+Evj1fgNGX3IKBJ5xe/ra6wHpAHEe1oeNCttV1RSIgCaWA+kfXoSGOArC5S124tFe23xViZi8AngsfBSaufH/zMDcYoiBbUjKHTKJR0HExHBIUNgmi7ImiPTlOIflwS9SCyYcuEbVKcjmUQDzYG5cj5BtgGa8QuMYx2S7qDURE5x9N50ZC2Osrc/EVrm95jNBc08pxonjp5q5pXoeCQjcWSG9Dcd1S4b/6+D2Y/uWX4A96b4BzVIQ/nPCA5nqQXNDATqmwGLfL60DKgm4MN/nlv6ZO7bRPqyv3x/CzL8LQUd9AZbTsbXUxAcKpqA4dQLWRjm/YkwhIQmmg/pEukhDqnaef18VpALwWPc789gLM339TLkGQDpTVDznJKCQOikQgbsJRPJffAhtn8X/7BE17LsPnxumly1Q9dLBNskMSe2JenQDXbmj/bW2NegUR0fmbdLo2CzCTkKx/gThIF1bh2lJcg0u2lJOp2uF1pPVTX9fEuhftFO8lI5u8/hMQc1vhiUPF/PQRvs7RUR08D4Rbvf13/iBQHXF08lgHEgXMYnKfa8oGNnFD2qDCbUrdXuZVuDQGVmLg0HMw/ILrUF3z9IAO2UKch6rYl6rDn4y1ra4rEgFJKBXUP3ILGuIYgMY72GwD1YWe2H5XiKm1gPgHT29MXtd68FYh6QA/gHIjoE2ykT0uxCKNruiXTygM8741cWTf5UU+LKdb2STUvkm7dMPrOYT0z9bH5vMHELUaomtT8V3RkRDlNZKzXTJSVj6Q8ZUFzPVtHhfcdCzR4Oy4sa5lKMdrTD+IqRs/B28QTvN3jovghxP2rQEe/g7LxhyPY6ITcX3GeId25HUgJvvCNZjTV9G33+sx9MJ16Hv06zuxre4NrW11XxN7W11XJAKSUDqof+SmjpIQwjqisd7YfreO0wD0+7jOrv8JFjb8OpcISAf8zVpOCqRjZWKRPXbQqQmG46JzqXPquIyv6lyGj9xZZ7FVpE0C7ZqYhyT0vb0iY+MAACAASURBVACfvtvaW/0dNdUQXVxXneI7oyQh0rFMDnJ65rxgK8dxueazYlpS8Dp1LOX1jaK9Kd7kTZ9FY/ohJoANxLFibvJgT+fooL7BSxH0cMJ3NIkIG9w7qh7LjswErgOxcciMZfxXvHlWXfN0DD7nGvQ/5RzQ4MPc+uWO+wF6XWtb3evLbswGiYAkdATUP3wDhHgWOkFCemT7XSEm1wB4ra//5HUfbR7oSIakhyxbtFOMhJETDNmvoGPazb2vllBXGeko+VBBSTwMVY/YxCMW4ZDJS4xXzP642JvsjLrI2zRby4skJHssf69NzwhRjRvy/yQFz44ruWud9ct2UNJlXZi3Vbius8dcm60T2UfMjWPyev9NpFChnqmCAADq9VPh/XDCkfzDCa2uQ481FbprxRoGsq89LmEdiPI7l4XFs4W477psOro7+p/2FQwcfSEqOx7o0ksfzEHgHFRn9qPa0Fd6ZW0skAhIQgdBfcPXQ4jjAFEuCREU8JSqiFjAKfB86vnc3Zdh/m83F5OBXFaROeRu/kwCUYzH2EkKXlf0MyYX8rmcbKjOC8EtfGXEkit1hqqHbXIcM9k2+cYiC51oy8XXZKvTL+ocqyGmmNZykfuVNWR73sI1x5KHrEnGyWY80YwFcgzeTvoAFPYFc0Y/ve7LAVUQvEiImX18nWODBkZvA8R53gF2PAkYPMCxUQt5meNE2fAZ5x3jc1/PAmpDqD32VAw++0ZUH3FCxA4oO3YxqtWDqG/43USrOjkN3gqJgCR0FNQ3fB0EHQffBy+ZsRF9Q6U8tdMFQoh+EP2jr//kdR9vHihu6HJyIevzYIgEawe9HUcqmIQFcFv3kf+f1LbSuXK3LOY9RZOryIdPAmqM62nH+ZRJNFwRQkpcfEI+90V5pClZjiQkq3PenjcT1LgepKAzjBXEiBVkQjlWmOzkvhd8mSrIwiSmbvlPpgEr1FBvvN3XuRRUcTqAKS/f7MMJtXaOcuv2LeSdIDMlvb/2drxW60Ay41Vl7fMwcNyNqD3uDKA2HNYJM9YD4nnNbXUH7iy7MV8kApLQcWRIiN8Aq8fFPVFirM+8HIBiMq4ec/dei7m//DyXIMiJRe5QkVQYb/oqOzkRkcRy+/kYRadcsiAnU7mYbovO8zpClCfsOieKhq0obW5OJrgk6V6JvSjx5dFvV58YNlrfzpMQ98qHnS9POhRxoNaZxwGFfcGOG2R4X1Ps6Vu+ADHn/bvWyUJsWunrHBtEI/dDiE96Bxg7Bhg9qhUsGzisXzxK3I7X1K53GxZjk/JzsxnXlu6ftOLR6Dv8R+j7u2+ARvZw6qUHJkB0Wmtb3R+X3VgoEgFJ6Aqob+jackhIr2y/K97m6zn58+LOV4VEQaPPyzJEQpMQFGIb4uaIAux12f91O9wobbPnXScfHrFc9K4ExepGbEESZBLj+jK2Z7mfvm1iYWNrstHpCYi2LsRBbkXAW+fymFBYS5IlFvL1Xrj+qegntcENM7mxpqArtgWdndzXgg+zI9bMRkzfeh48MYrGwMm+zqWgNvxxAP67FO36UdineB7b8dpen67tmu5T0dpmEBI3M24RAejbAdWDPoG+Y65DZfXhcfqnx9eb2+oOfaxb2+q6IhGQhK6B+oaugaDnIB4JaaC6cGmkWN4Qc1OHAniij+/8X2/C3D1XMCQjm0FkDjmxgUiUkki0hGqdFEOVXGX7ZWHbNfKhSj5DEl0bvbOtIvG3JhAesIptSUhc+mVjZ/P5K+Ue60IC5frvvt5Wtx6kMJxwF7tuHJFi5cYORTuF61pqi4sry9jxJXM8ddNnIeqeuVcDbxSi5IfcOaD1cMLTvQMMPhZY9Sqz3WKDjvJQcH/zTrURs23KXWoAVVB55MnoO3YdKvu8CaCSt9Ul3NLcVnf4pG5vq+uKREASugrqG7oKgp6HOCTkpp7YfrcC7/nEUzd+pnnAJRpcIpE9NiURUgLA+1LRTjNw65IIlkRwceV1H3I7XJxFfZfIh0ucts4mOTbBmJAziX0ZJMMXVoTE4GvbhsnGVdel75zVzljMOUlOVjvo6UiHbizhrv2sinu/ct/lY7nfhTjFKkh9672Yuf1bTGMWIDwaCzNH+DmXhOrgeSC6zdt/5w8CFWm9gU3yHSEpLyVuSNsFBG7HSyj+CLDqMFSPuBqVgz8DDJS+re4GgF6HytCTemVbXVckApLQdVDf0BUQlRcglIQI0f3qR3Pr3Rf5+DYm7sfM7364JOCyBI6YSKbKBEKSaZMEOekwJAmsHROr2JZi3QeK51Y7XpWWCFqs91DBJhkOsjFUOHoZLCExkBHb92ay0elVukV5iSSkgPz2vNaL0h10/PVPGl3GT3IpDAIcOSmME1wwvl0y6Kdu/DQgPJcBknizn2M5aD6csB7wcMJdgIe/vbxxIHvNdoXMhKwDCWhbvv6HdkXlCV9G5ek/Ae1Q+ra6C81tdWf37bVtdV2RCEhCT4D6Bi+DaBwPYMY/SuXyaB3yRXPrXa8HD06t+y+gMa9NupXHuuRh6dTgK/nAfLNvG7B2HGmRmImuMqJfdI4iSiUfHnFsdFGIh2Qb62YskwPdKxZ8yYgppq/eJvmxtreUs7b22/NmL+ecktUxzTJjhds4IrUFyUd3zcvH0lsoKBjjhYfuwOwfvH+LeqEQE16bh5QF6hu9GAj4ce3h7wT6drYw9FgHEgURriNb2MR1aaM6BNr3VFSOuBG020scnX2Q3VZ3x80lN1Y6EgFJ6BlQ3+ilLRLiN4m3Nnht3B65QQhRA5HXgwdFfQ7Tv/rSkqCQKYAnJpJpYfhTJDjK5CB7zCUUTHIgt6EkHAaCwfoxcdjtdrtBPnTJrykx9iYemulVrohJKsogKEoyorE1xdLpXXVdICFZnXJRuqQjychpV6yskRPRoIKPasyhrNRiHJKPuXFxet0X4Yl+NKreD48tDXUR8HDCUWD1GWq94fMtHMdEp9uwkdti5+eCnn4daL8PALXRwGBGrAdwfGtb3dvLbqxTSAQkoafQ+rXnBXAlIYT3EtFCOb2yRH3qWAC7+rjO3nE+GlMblMSiKFTI2nd2Kbkwkwzi7/86n5YBcTqmf3m7fPahq2hYrfvgUDb5cG23rfPSK6odLohBCnwRi+AAMBIRUxyrNiz9YpEQS1urRenMtRhtKpYkLvSVIye2pIIZJ3JmXJ8Ljk3M/vES1Mf/DC8I8UYhRE/lRjQwemvQwwlXvRoY2D8TMLxPRpSV+Nu0Z92GxzqQsUcDT/oe6AnfAEb2cvN3xwSITm9uqzt8QdmNdRo9dZElJAAA1UYuBsSLYU9Crkdl6NNl9skO9Gpfz6mbz2XCEXdYJBbyccEwL/NOJAo+RUUueVDeEOwfVOi97qNXyYdOZyIersl7NwmHDXz6ZkNEvEleRu/iF4OEONjaLkonSec9FYvrj2bsofw/OYVq7CGtkaIPrH/7z9HA9K++wjhbYQ/Up57t61waqjgDIQ8n3M3i4YSuCTmQvx69SYfF1txKeQk7l3Hfwb4dgP3OAv7u58BOR8Vvs4hvoir2o+rQR5bLtrquSAQkoSdBtZEfQ1SeA2Cj3hDrUG0c3+0LVIjNKwE838d3/r4bMP/AOv2NPwvtDZr45EBLMoi/71PxmMkp2CSgQCpsYygIUE7HtWODMsmHLqn1SngZ4mGDGIRDJi6ur9A2XewBBBGRWLoySUgB+vUguZAFwsD76QjJ4gWqG0s0vubxp9h31fiTc1GdtA6nbz3Pf0teVHpqMToAEI3cF/ZwwmcBo8+M1Jk4YbRxvcmMQxtW8gqw9iTg6b8EHvlWdGBb3XUQ+DuqDb+CaOS+chvrLhIBSehZUN/gZajS4wF8HqBxSX03iE5DZehJRKPd3/u60fdSAIM+rlM3fa55oLhJs8REQxgKsVx9NAnGkg8XbOl/llS0NGqdFCObU4Su+yibfKhg0inJh06viON6Y45JIGLGdfGxJSJW/o5+rMyxfeu4MhTrQbLHzPVspcuKOQIh6+RjZH2KzEI1Bul82ONid3KxGlN/w+x634dBi2OF2Lra07k81IbPRsjDCXf7CNi0TzPms8cx0ctkZocnAYddDTz2P4D+TmyrK16PytATqG/4urIb6wUkApLQ0yAauodqw6egOrgz6vUD0MBTUK3sS7XhR7ae+NnddR9tCHqNj1tj6kHMrv/RkoAKB1bEYvHAmWTofYzJR9aurdIRE0td1HUfvUo+CpCqHia4JPZlEA1X+LRva28iIqYYur+vy9/ehYQ4x5VEZUzFytnJMTJjhSlJlWSF7pveo+WYlOsL04/pX3ovRq+hUX2pr3NZIKIJkPigd4DBA4FVJ7aCRepUDsL83Sil7ZDteJnrdWANcOCXgEN/Cox1ZFvdzza31R350nLeVtcViYAkLAsQ0QwNjN1O/cM3EA2u73Z/shBi5lEADvXxnbn92xD1OWXybZUgyMcKHzdiovBv/cPe+LlEKKcnpS7K1CuXm0+Z5MOUtLJtO1Q9bBP4bpING7gSEi8iwuh1vq66skiIVVtxpmLlDmU7xXiQHZfYY2T989e93bhERVumH3l90Wfuz9dg4aHfMkEsIPAKP8eSURn+Eoj8d0Jac2bx4YQ5hKwDCYHhmukEman0A3u9G3jazcAuJ0QOzkFc1tpW9+3bwra6rkgEJCEhFAt178Xn07d9nZEakgNwN31S3uALx5KzipgUEhAupuyjSQ6UdpK919Qr5wQxi8jkQwVWF5l4xCQdMkHQvWIgNhEB4FwNKZuEOPnbwG8qVlZGjIzrj/84I7XTVpmSSIuY8nHx/QtM//o8JrgVnirE9B6+zmWBiBoQjXd7B+jbDdjpDYZGLORl5eadiMsdP/w44Km/APY5E6iWvq3u3QCOp9rIMdvStrquSAQkISEAQogKiF7l47vw4G1YePBXyl8ToTtW6FWxrG7+mjaXfDTb7koyaztd0hSyw0l0ouIpZ3UO061ikROdXyipiElQbP1MNjm94wLxGH97joSEfv8YmW31sDgeLCmt1394jzWUd7Ia34h1LfQ395kUP6CZO873fzJ6A6/0cywXrZ0iL/MOsOr1KKR/PuOaDXqdzIzsBxzyXeDgbwLDpW+rO9XaVnf/bXFbXVckApKQEIKF6UMBeP1KNv2bbzQPTDd41TFHWKyJC2mJSSHxUMS0SRDYREJOkAzJE9u+q4yFYuvIWOSDTWYtqx62epebdwgxCIFvu7ZExEqvqIa4xi2LhDjFlESmqViMzNYuq6P8gcN4k3dbVHFjAmQjTZ/4buZiNSbuw9y9P7dzLuJEX8fS0Qh4OOHAI4H+XUsaA0K24zVAG9dxHUhtB2Dfs4Cn/Bx42NGBHbPCN1Gl/Vvb6s50osFeRyIgCQlheLGXV2MBM7f/v6XzApOA+eYuCVTERHXTzzlp2lryoaK/RRz1tCy1XdDUK+ubXwfIRwEWN8lQYsLZdppwmODap1hkDUCpJEQJizaD/j7q75V+TRlPXArjh+IadhtzJIZhSV60RIU55mLN3P4teEGIx4rZicf6OZcL6h9dB4j/8Q6wUnfr8pg+GGV8Kemhnjm/CrDrScBhNwGPeFtz3UeZIKyDoMOb2+oO3VNuY8sLiYAkJISA8CIft9k/XobG5AP8+G1NPHxtSUtMjCRjKQSfDBDjZLCLOvWKQ9fJh+WUqxjEo0zCUUZcl/7GICIAoqwLiU6Iw2TOC9I5O4sxhPIH1kRCdltUqQiFshOmvhaCYPau7/s/E6RS6d0qSJXO8PadMzwpPnbib0J0MsNghycBT7wC2P9cYGDnkhpZxAaQeHNzW92ha8pubDkiEZCEBE+IuYmDAezp4zvDTr9iEgj5OHOQTQS0OYBjgpA9XvK3qH4wMvVcbbVv9OoHSwYsfaPILaZc+ep87HS+ppevvU8/bOx0eqMuwq+tTt/ByIvSdd8zGIhG9jg77mQOCsfW5EQ6Rta/SA5YBIxZnKgxswlzf/ypoVFlX14qRAlP244AouF7AfhtRS9abjaJfygh6DSZkdsYWAPs/wXgiZcBKw4pu8UFAJ9HdXZfqo785/a0ra4rEgFJSPAF0fE+bmJmS/4BWeQwDlskAapjL5Kii5W92TNJj7ztLhR2xupHCPlQwdY2Jvnw6UsZxCMGUfBty8fX18akA+C0LiT0+8WRkMifvZZocHZZtaXv0lhCZnJiSRjycTOq1j8q7qLsKqOYuePb8MRemJ8qPWv1hhCf8PKrDEXuCPLXVVfIjDTeVvqBPd4OHHoLsMuJERo34irU6wdRbfiU7XFbXVeU/Ez5hIRtGJXKi+Dxy9jM734IUZ9VPpRP+yskc5z7X3dccC7aqhIAPpZexnERpS9HYGKAIwShhKYT5MOWeNjC2jbWL72KBmWxTXNtH50tafQqXS6uyHdO5yPLnW0t2gqQERHav9gTYXGIWjzO+rSPM4aLagJISMecr6o/kl6lIgTEVfq1TjKy2d9fBDE/CeobgTOqlWcDuMXdsQOo0F9jz1htQvqeqqC79kLaNX0nTG0/7Fhgn090YmcrALgHwDupNvy9TjS2rSBVQBISPCDEzD4Qwmtx4uzvfshIuZ8kYRj/KW+iIiltG+u4RVtVrNwxxzgMJKPUhee9TD7Iow0bX85OaSuYVyxYxjb2kbH10VuRwMhb5praNcHbl/nucZcWLelItjONFdJAozLnxx1pbNA6m+OqxjZZJOYnMfu7TOXZBUI8z8+xExB+U7BUsPl7hHyvbdv2xfDewIHfAw78TifIxwyIzkB1aL9EPtyRCEhCgg8aDa/F52JuAnN/umJJQIoxlxvsXW8MBT9FssCRCTagpi1JxnERcxyLBDiEfNjGc2lb15YPifFNsGUb1s5ACCjii4UlGTHB5nNyked0JZAQ1s5zKpZlu+yC9OwxG4e56klx3LZxSVAlvfU4xA9MbFzljnut45k7z2cCWOGJQmxd7evck6iMLR13glCUTWaqo8DeZwFP/AWwqiPb6n4bVdqPqkP/lrbV9UMiIAkJPhB+2+/O/vGnEAvT5ulXUBwv2qiYiwI+hEabEOhIBmdQtPOqfoRAjhcjuYxJPlRwIR4FKJJ+a9LgCWN8CyJk04apfZfYriTEtk9KWcS1TjbfQ9M1aBu/oKe82Iq0aAiFCs5Ja7GNuT9dCbEw7dDoIiqo1/7ex7F0CM9F6FbzXT2qoqrryAkGX/l+s+Yk4Mm/BHb/p05tq3sk1YZflrbVDUMiIAkJjhBiyyoAT/Txnb2Le/gplwXA6iZrfdNXHRuIheuvmoA6wdHHLDkZs010epF86GAkHoxtbLJhCyUhsSBJppg6vZc84LkdLrblTN5vNqmogiwJmWNV5YRzk8YctaGD3uCnHbMMYxkBEAvTmPvT1fBDr07DqkyVGt7me17WmGJqY+xJwCGXA/t9HuhfU1InFrEBJE5BZehJ1Dd0VdmNbQ9IBCQhwRX1viPgce2I+ixm/3jJkoAU43YJN243VoLFu7jyZq68MSju/JKPsfoRDQ5Tr1y6EYN86JJnr8SbSeS7TTp00L4HxtYUy1VXJgmxaS8qyeZkjmtBsmpfIpGReQ09WhKh+bAdxrbZP/xEHUcLOlYIse1s3FMZVOtcr5mYsGmjfw3wqHOBgy9rkpBy0dpWd2F/qo58nojirrnZjpEISEKCM+gYH6+5P10NMTvO5utWN+lFG/K6qReUJlgmHrlkwSIxKR6XWf1gZC6JpG+i59uejc4maQ8hHRT4CmlvER7vyUTovOQR1yUpfSMTnayby1oQjn1wPpKpakzSdywTxZbU2NpwDhnbud9fbOPIQKzAwszTPJ17DzTgf2+whlC34dN2pR9Y+0/AE24G1vwDQKWnsFeh0XhCc1vdFRvKbmx7QyIgCQmuEMJrhdvi9CuWgcD9Bmzyk46tf23kkgOb9iQfFTGJUv2wJQYhN9VeJB+FtgOrHTEIRMyYsYhIVLlgZBYxIhIJ/zbtqiAs0ciOGZy/a2Kp8DN+JJKfeexi7DOi+tY/Y2HDb0ytKtCL07Aa4+XGD1kHErHdHY8GDrkeeORZQG1FjAZ0uAfAy6g2fCT1j95admPbKxIBSUhwgBDTe4Cwj7tjA7O/v3Dp3GaA5m7YnF53zAks/dwIi6kPKn15v/6yiJooRiQfuqSa1QXsohSTbNjCtU1bIqLzt4prYW9rawvZn4BuV0GKRCNraNsHKoRgjzVhtOOMqQOKLnMNz673nYaF5/o6lgjPJ207fKFc70ExMbw38JjzgQO+DwztW1Iji5iBEB9ubavr/eTKBDskApKQ4II6vKof839bh8bUg/x4bXOjpsztXXMzV5EGs6EEjxuLMnngkh6g89WP0KSukBBr/EOTXKVOUfUwodOEQwcXMsISEZ1e0uniutjHnCao7E+kX5pVZNXnmleNTZpjbVuqAcrkZ+qnzoYxmvWdhkV4lBAT28Z2vNlteNtw/mw9YPt3rY4Cj/gQ8PgbgFUd2YDse6jSftQ38sG0rW5nkAhIQoIThOf6jyubB76EQAVjDB/CYrf4nH3woOygbbSsX307MfVKIYthq9Q5Eg+XRN/kb/MKacPJzqEaEoOEhH5ffb/X0a4HOFdBrJuJNG4ZXSWCouIxqj7JNvN/vR6NqQctOyuhXnmGn2NJENW5IP9QQmGEZjxm5QQ8/BXAIeuAte8CqOxtden21ra6L07b6nYWiYAkJFhCCAHArwIyd/eVjNRi5HclLDZJqc+xzQ2eUysIS7nVjwA/K5nml+oY5KOQlGcSbhfiYYtYhCIkhq1P4XNR6ZjYxng2svK2zW220eUqSC6GgbRkQ0jshSUzxDTP9CErLxyDFRT7I6vlPosGZv9wCTxxuK9jORAd+LXe8nvpS0jbGDkEOPByYN8vdmJb3c3NbXUHD0rb6nYHiYAkJNhifvJAADu5uomFGczf939LAuJu3MVj1U1chZBfBa3uFaa7uxMp8txdyIjA6odNfCCM0DjJLRZAZ/W27z2EaLjAh5CYbHN6Zkqazi8EHAmJSmwj+nFuNoRCSy40x1y3rMcDafxw/Vys2im+sbl7rrZoiG1729gJqzLsZu86lrmgbzWw9+eBg64CRp8cIaAWDTS31d03bavbXWw7e1onJJSNKh3q8wPl/F/+r/n086yQu9HDNJZT3saVyJjitxiJipiofpl0+1XVUW6yielnlPUo+XBJ7LuNbB9M1xIZbHJ6gcKXlvPlYtrKXPrpG5MAiMx7sYVVfy2eLi3k44yQ1WuOTX0z+dnamNpR2Mzf+3ODsQICBwqxaSXRjpv9AvQIqE8hh9vfxavtlj/1Abu8GdjtvUBth4CA1rgKDfFO6h9Z14nGEvRIFZCEBFsIHObjNvenq5oHrgzEJrG3+WXRtx3LXyRVxCRo+pVXsmxZ/Sj7V2udnZXcYcqVDeEzxdD5uL5cYOPj9P4D1oU4yyJNxeo08ZblptguwxS1jylzrLKxiMmNKZl/CnLGFxqb+pa7UR+/Fx6ooN7/VB/HUtCohxMhr/HWJS4zNq88GnjcdcAjPtIJ8nEPgFegOnRkIh+9g0RAEhJsIehQH7e5u69YOglJHCz1qhuw6tjq3qNMWmw6Ix97bCEbOwlzhuO6Dxc7VRJtSrxD9JytD4kwxbL9G4V8531IiG0btiQkJqklKbYtbHi972J0m/HE1CdrthEIBWni2vevglCPrQPxAFUdHTzWgXAY3Bt41DeBR18ADO/v2AdnzECIj6A6tD/Vhr/pvfYwoRQkApKQYAEhNq4A4VGufo3pTZh/IP+Di+qm7vSroupYasg6b1D9qmg65pIY7bFNlmQ2KSJg212jLMLUq9jkQ6dzSfo7cT+2bSuEVOV0AburhZDJMj/LaATcYzG6KqP3JSWK0NGOVfEZo7l7r9X3TwVCb+2E5YPKiJ1drL95dRRYeyZw4I3Ajh15nMoFqNL+1DdyOhFNdaLBBDekNSAJCTZYGH4yqOFM2Of/fA0g6sr7oOH+6A6W3SDeDV3bpo1fwC/UMfx8Y/cC+XD5tdlH3wlk+6D6QZUs9EadtI6C81HFkeW69uR2bPpqIyOUthaEiNo7+oGo1YwuTuZYIV46zh6QAIncafHYrlmlYcHG4v1nbeb/7FkBAQ4RQgz3RGLbX5tB3fNZhCrYfI4uwR52ArD7RzuxsxUgxO1A5W3UN3SF2Tihm0gVkIQEG1SE19Ycc/dd3zywYiC8Sfm/DBqgjGd4H76ERheHReTqhxzbFr6faSj5CKkc6EAOLx/Y9DtIF3GntTIIqCuikXX+c4k1DavQnGEcIIvYJB8XlIybKk5GtLDxt2hMbSh2yox+LEwf7OMYH8L/OSDOY7QjKxk+CHjM5cDeX+3Qtrp4O2rDByXysTyQCEhCgg2E8FqAvnDfzW4Oppu5wUWbv2pv1O67X6mePVj69KsyEzqOGIQklbZt6GKGJOIu/QwhFSH+OvsQHQDvz9fp/Zf07A6yiB2L2BvjqC5233icjcfgZxGbFPImhP86kAoO8XPsEVRG/fxsrqO+hwF7ngsccC0w+hS/duzRAOi/mtvqDn82bau7fJAISEKCHdwrII0FzD9wy9K55tdE9t4t/Qzp+qske59wSRKish8g2uLzHAJ2vvKFbcJaJvnwTcw5u0KfYryk+KF/Ix+dCwmxiav9e3osSPdBpO+6zTNBVNe28ZKXBiebsUofMKIv80bmvBeii8f7OcaG8Jt/5bII3XZ8ohqw81uBx/0aePjJ6ECKeR0a4glUG3oj0QqvUlZC95DWgCQkGCDE9J6oi9WufgsbfgMxP+X1w3YYPH5JdL7Bq35idGjTx6dMG44cRInl4R9TrrWJNtFbE5fybZue5aCyIY2vTrcYkNS2Rn+Nna2vTSzWxmOdidHGXFlRrd9QLQLJrutYVEntatzdHzHSEqjktvBeB0LUI1OwZsaBwTihtB+4ASuOAtZ+HBgq0k8GVQAAIABJREFUfWcrALgPwLtRHfom1cq7kyaUi0RAEhJMqPut/5i/76bmgWtyX8YvgswxqQXmrqh+EVX8mtr8xbWsZNcA3/tT7F+yXQhObPIRSjxU8a3CSGQkhIi4EpSczIOEOH1tI5CcTl8mTglnxkBl68UksnKGVTDHS6K8oGCq8s3IFx66HWjMAxXFg/lUEHiMEKK2bKf8UCv9c/7OSYR4YC9g7VnAyufH65saMxDiHNSGP0pEE51oMKE8pClYCQkmCHhNYp3/6w2MNCCDdSEItjYM9yCdE1nYsI13aPqVb1yOHNjAlqR0i3wQpL9BZoqUzl5+xbLnpmjpEOOzcPnb2vw9YxJTH78o1w6U07CUcXzJr7YTgfrAZgiAqM9i4aE7fcIOYm7i0f696jIqw/6+hOYakl3OBB5zQ6fIxwWoVh7X2lY3kY9tAImAJCSYQPAqtc//NbMA3fIGT4VjUsj1MVlVSDJBNkZ2am+fsuLa+vkmoqEJsC6uiRwstqlo15o4OMIY04GIxEh8Y5IGLSKsBWG/ZxEWoxdsHHbDyrqrxiPJJntgHL9ijU2ex/N/+5UiuAHVWg9Mw9qxvK2AVX/cHV8KPOZmYJf3ApWh0poHAAhxO0TjWVQbPp5ocH25jSV0EomAJCSY4fwrl6jPYWHTXTmZijhEyYNCgse64WfFlD0uI9PzrH5wcCEIseCSnLomsrmE3kA8OgEtGZGIiC6Grdxo60ESlmMVxCdWCNlTDT0aX1e+4NQfq1abWHjw136hemAhevQpYLrPduggYN9LgD2/CvSvjdosg80gvLu5re7opWU3ltB5pDUgCQkaCLFpJerY1dWvvmk90FgIKygEEACTnBQCbRKgsmnLtb92W/TN1cYHvm37JqAcuSmbfGTbcvHtBNrtF7rXmleu1Ld8vdZ+cDAs7A6CYS1Ip2DRdvahhHZxMic2fw+bY5s+t+QFtUFui4W/3WpvnG+nByognqiuWDo2fV61hwFrPgjs9Fp04HfrBiDOQ7XxXqKxtLPVNoxEQBISdFgYeIxPnrKw4Y7mQRnTDFRqxkZFHGAh9+qPja9tLFeb4LiRM0Vb8mHlr5Gp2rLxs23XBba7SRVss1sqKeKEkpCYMi/i42lDQDm7YWVUhMWnots8IV3FS5xhzSpU6rygwHMY4iPLFx70nIIFHOjrGBkLcM7nLC50qgE7/WOTfFR38OqYI65HQ5xC/SO3mE0TljvSFKyEBB1IPMbHrc4uaoz7i6snVwkkP27voaemX3W6+mELr2oKJ2fWepDGj7OL8edyicXaeC7St7XlqkSx/6am2DHainJpmT9r9jcFcrEhta/UlpPcEbrwjZnNqG/5k0/YnYTYssq/V7FA8deBjB4OPOoXwG7ndIJ83A/QiagOHZbIx/aDREASEnQQ5LWpufOuKpS/QVPmoCiH+o6vqkDEuukrYiofZmYb19WmEzFC2rKtfkQlH5Y+WX0s0mFqw9nGg4R4vQ/Hn+19iK9NHF+bMmKEEAFSnGrkbFiN3His6Y9OvvCA5zSs+dpefo7dRj//GfbvDuz5TWDvnwCDpT/TYw5CfAzVoX2pNvS/5fxgldCrSAQkIUEHIq8KyMKGDAGx/HWxl1C4L5FerkaEaU1lfUgcSTC17dyXEt+/inyYkv6ySYdvm2WRkDKInw6lfl8j7IYlu9gkfaQ4iVzNiFIE8ezTvC8BqdA+fo5dBkkPL6wMATufCTxqHbBDR7bV/SGqlQOob+S0tK3u9om0BiQhQQuPKViNBdQ3/y4nMv7i5wOHKkWBRLT+4eUO8Q3tGuGT0PuQgk794qyKEzvh1ZEPo49LfAd4r/2Q9IV1IcTIVfY+MscF6XIsVd9cF6Pb2MSAph3XdSDdkBfUBjmPorK+4XaVsR5EPVABERMAVhjNVFh5ArDzvzWrH2VD4E6g8U7qG724/MYSehmJgCQkKCCEGEV9eg9Xv4VNf4Cozyl/NERkuaoSEf+HWLeIXk8/j9FpZ7IRUP3QtlXS1KuyyEfoZy/76/70OiISg4T4wpa8+MTxselIO+ZdrUgwG1ip5D6wZhUqdV7gRkaaWNj0e6+uQzT29nOMCveteImAwYOAXT4OjDyjhC4VsBmEf0V16D+IaK4TDSb0NhIBSUhQYX5yH1TcZynWN/62eVA26XAIEbNtnTx4/cdyR8z3GIN8dLLyo4prIiIxSIhN3OVQBbFqx7GvPgisWmRJSvagKA9s1wJabpNR1rfc7dcAlukUrL61wN4/A6j0NLC1rS5OJxq5v+zGEpYP0hqQhAQVKuT1pKX65rsZqUfCQIrTkklEVq6q4mTl1s//8EFXKiIx4gZWP2xim2xN74ksbGLA1I51/yNUlGzQTaLcqe+77OK8+FdjbzluRR/PLKBzFXPjaEw/5BO2B6Zgwa+iUD75uB4NHEa1kdcl8pEgIxGQhAQVCM7TrwCgvvXPru0wp5RXGW/Gqru7OwqupJebAwTaLcJz/Ye23YiLz8tOeF2SbFPC79KmzcsllkpnJXckITY2qqqSa2wfny4RDi1/6OAPHL4hWIMIP7TU/aZhrRVCDJrNSgTRTFfbL+J+gF7d3FZ3+IZudyahN5EISEKCCg16hI9bffzepRPLm6KRaISiQCJIITf0o4RfJXsuRnA7gYmsbZLs8zeyrYq4VkdcfGKREBuUSQqtSWpgJbAj32m+j8uKjEQIUt/8R5dWMpjrhSpIL2AOAp9sbav7P2lb3QQdEgFJSFCB4DUFqzGer4CUUKSwu8EayIU16TAri9a9cuPp1K/QHWnbIpH1zd5cCYdNLFMVJlQeswpig14hyASUtrmD5vNXFRtKuXwM34PobbYCehOQ+sKe0fqybEEXN7fVHT41baubYINEQBIS1PCbgjVxr1JXOumI0Y5He4Dm11JdLJ/2Q2Lm0OHpV8HVDw+Zqd2YxMOnbW+54Rkhtn0o2ETeB7eM7323Y2iYSNzxzcA2HH5ssWwQC5s9d8ICdvV1jAIhxrvY+nqIxnFUGzqOaHB9F/uRsMyQCEhCghrOFRBRn0Nj8gG7G7HrDd4hRPT2nElH7AcaMOs/fFB6jA4kxjHJh6lt25dNHBed1d/JkkB20qZbhKMHUaz8kkIeqR2JhfiEr2/yrIBQpbsEBGh0oc0JEN6N6tAB6ZkeCT5IBCQhgYEQogIPAtLY+hc4PZ/BxcZgysp9p+T4uoZO9QhBL//aHGQTsP+oSm7SLU7zsXzZkBHXzzq08uNtE3kxuhyzV777cohe2QkrYMzSwiJuY/KvfrGF2NnPcblCnIeq2Jeqw+ekZ3ok+CI9ByQhgcX0GnhcH/Wt6ulXADpyE40a3mZqQ69UJmLEjPGLdiyEJOCu3xOb5FuLbIJN6lDtdmwf9qeS59pl3pTRb5lBfj8x3p8mRrSnoIciUtxCmJZAljcm/+bbxGpfxzgQMx0arK5HA++k/pHrO9FYwraNVAFJSOAwH7gA3fNeYPyl0NvYpxOW8mWJyFWFbMyoU3cM/ewJ8iFDqorY9iWkelZW9atb5DpkCpp3zEg7YdnYKDijdYgSKrsAIP5/9t48TrKqPB9/TlXv09PMDCObgIggi8gOkU1BUcEF0IgSjUbRuEXjEhXlq/GnBo0aUTTEaBKNO6KyRBEBkSi4E0AUBFlEGWCAgdm6u3qpqvf3R1VX33vue/Zzq6qnz/OhmXvf8y6nqu49533uWW59GjQ/bXZSRI8JSKXsUYj1gHg1qqPHiKGxRD4SoiARkIQEDqK5ysesOfUQ50wTx6KoD+dKa+PE2AHL5KJX0618EKuuIfVX+ctNtdLY6v6UyBCR0HpqZWVsJhCw1e9SJ+oezZVwVvKugp+yAzHxGgWhXhOQ0jAHwrmozuwjBka/IIToxVqThG0UiYAkJHAQFT8CMrvJPZT6wNORRm4zpcracUZDp9KvCVm/PN0ue/RDK9Mk70aCYaurICHRmW9kf9HjlLG2RIOSv99o7vuMmHi9DV1grbtRTFAJxED8ANXKk8Xg2D8IsaaXu2wlbKNIBCQhgYMgLwJCMxYEpKwpUoxO9LymJ2TC4il6zxM4h+lXPvB9yutKPmxJh64OrL0DCekGWSnbb7/GdYXDQw2TSbTYJYMfxTZiLRH1cE0tbYjo7E6Ant/eVvcPEf0mJOSQCEhCAgvhNwKSJSDd6EB7mJh5b8Hbr8lXv9Qr0pQSvR2zU1vMz18GCdHqRJyG5VOXbqAXJNwVS+HhisGwOf2wp+Op3o2CiModEbxMQuAsVEefJAZWfC+Cv4QELRIBSUjg0MT2XmYzG/mCsp4SmkOFK/dDYuOKno+IWNrYkLiYox+ybxf/1ms/dH4D3ufSrWs1xjoQ1/I+QZT1W1l/hQNPD10kJt4EZB47+YYORqVySaCHr7a31f1Y2lY3oVtIBCQhgYPwGwGh2c15N1EqwzvqBdEIXCoS184bkXZ76tXT9KDv2YF8mMiGDRmxmcKj0us64egzWJGawGu5609CRL6oiyMmtoU057ncQQz0bAREiOFbAbiPWgjcgCaOEgNjLxdixfr4NUtIUCMRkIQEFp5rQOY2K8us+to+mbZVCtHoJZZKnWPVk03wHcmHazxbslHaCzoC3ozuim1kxEMHu8EQ+w/aHa4THqU5q27D9ZVoTgQHD0G18SoAd1pqPwSIV6MyekTaVjehV0gEJCGBhR8BadosQreFQ1+qedgYHH+bIyPRUeIC9G5PkQtdC+JCQnzWZyznEY+uxLAghz0ftbC393LTmPcNOuJpGAVCrNyAauXZAPSEgnAuqrNpW92EniO9CT0hgYX/FKwyRzr6Zu1ImejG0+V+iKFE5Gk1tqMfLomhrorCUO4CH18x40f3qXhze59D+Wb0nBK8vqOOWRm/mweoXvMzFM3xuDXxqIIYuZuIjkKj9mIAfwngSLTyvHUguhID9FkhxtNUq4S+QCIgCQkchBgz97h5UL0Gqs90P73oiyenCc7o1RoSV78mssLdJlwyWZBRO7M12JnQJ4lrQhcQ+ltb2Hu+CR2AGPI0jIr2RgIXtv8SEvoWaQpWQkIs+A7db0PJfexddLqGvh4RiezT1sZ2Opb1tKtuoIcbDPRjjLLRxelUXUPTewpWz0dAEhKWEhIBSUjg0GzGuTe63Xkutc7eBstgwS+AEglKpDequ/oI0SvbhzWW+NCK73elsdtWbjcVaHarr2lfjIAkJCwVJAKSkMBB9OHTrG2952exxBPAbqOXZC0GkbH1G9vHsry3SsRSW+OWKSTfEZAmjfoZJiQsTyQCkpAQCc1Zz/3je4jS865tNbHblqfoqIiE/Gdrq0XAiwn7DYnkuKFPvw+am/IzFOi/h1YJCX2MREASEqLBY6qLBfRmfdqLJ3iiyyM+/bjGI13SCT0ENWY8LftjEXpCwlJBIiAJCTy27R3iUpK39NCPoy79tJNXt2Mk9BYl/caiUvW0pDQCkpDggERAEhJY9OEakISEhDhIBMUPy2Fxuhj0NKR61HokJGzjSAQkISESaM5795SEhIRuIu1tkBAdFd8XiCQkLEskApKQEA0pq0koEenyskf6rsqB5ntNX3lCQoILEgFJSGBBHk+zltDtlLKFPkWPJ7K4Xhc+11G69hJioKTrSAym3XQTErqBJZQxJSR0FXOuBmLIsGzEs8PUm6VsLiEANpcPKfRsZa5Il3RCL1Hx3MyKyLnPSEhYzkgEJCGBgxDOL/UQAyU/OSshMSs919tWk8lufK4yYtgSDpU8+xcFwuxrqVxD28rn6Ba2ve8jrQFJSHBAIiAJCSzcn2aJah9sA7/NderbzN463UEvf/+yRkRiIJEDN4R+H6WM9oZB6zv9/gkJXUciIAkJHMj9aZYYXsn5WVoIrC9RD4Zpltp3rEJpIx4GEqciDi71sdVdclO0ljgBXoqjpj0OKAbHuhswIWGZIhGQhJ6AiCpEU7vQ3NThRNO79Lo+RQiP4XQBVDzeX9ijp40JGXSD5PRqSpWNjW7alcmXry03/Sr4O4pEGJbqFLtuI2RKX59CVNN7QBISuoFEQBK6CpqdPIDmpz+BRu0+NMR9qIhfo4H7qD59HzVqZxPRSK/r2ILfgkIxONa7aQRl+l5iSURfoAxS4/07BCTm8toPm3Ug3ZyOla7N5YMuPKwRI6v9fFfEZj/DhITliURAEroCIhqgxvRbUa3cCIG3A9hJUtkFROegUbuFqLZ7L+oowXkROuCwEL0bTw57bV9W3G6MRvQ0qQ18im8zqhBj2pVt/G776peRJhb9vs0yXz+rmZWh6z76ZLpYZWQ7z2C0yc8wIWF5IhGQhNJB8zMnoj79GxA+CcA0R2lPNOhqoi1ru1E3NTxHQDQL0dPIyLaKdtLWb7tWFXQEI/P051qXgtxz+lW/EaSY6Nd6yejGg40ePjwRw6t8LRMBSUhwQCIgCaWBaGZPqk9fDNG8CkLs72C6F+oDZ5VWMRuQeNTHTAxOBMYtRdXZsKukI823X0RUwhGg57MIPYR8WNmZdBSjC72YCte16628ERW7/STsPyirGel7IubIN0bFl4B49hkJCcsViYAkRAcRjdP81DloNG8BcJqXE4HXEJHhzX4looIHvMzG8gM30aYX9MlTx21jNKSHC5WjL7p28MONgphsVWs+QtaChOh1FQ7XSS9Gv/p9NEjDOKKFDeYbRW3hPQWrmUZAEhIckAhIQjQQEag+fQYatVsgxNkAQhaUr0J95uBYdXMGiQ0+ZpXRNXbufZxbOnLy3a1pL91Gv6wDiLFo3NeHcu2HIwmR9YJIRcDox1KeorVE7qHY22iHP4Ahe/tID2kqI54jIIPVREASEhyQCEhCFNDc1MFo1H4M4BsA4iwiF9gjih8vNB/ysaqs2HHxpKyko0/mUKtzFY/3TvQDguoVcSpMzAS9DBJigpKkKMhHFIJlOf2qqyQyMvpm2pcmVhdHasuagip8CQhmEwFJSHBAIiAJQSDaspbqtc+iIv4PwFOjOhfN3k3BasKPgIxarJ0n7ak/bEZDSkoQynj/4CIsnpr3yzx+H/JgQ+Rif786EhJCCHSfJZg0WcR3RVfJRYm/Z1nQ1FM1ulFmexbdntHxXgOCiURAEhIckAhIghfa2+q+CY2BOwB6Pba1a2mw4jkCsoN/TKlHj92Ry1P4+dgaB4Hxo6JfErhe1iM0eVeRkIUy2zUeJuIRe+Qj1NYKmhGtXhHXbvn0GN0Iqr7DNFJWHomcLqj4vQeEtgghmh6GCQnLFttW0pjQFdB87fj2trqfAeD7uKjPMeJHQMYew0jte27vDtYJxP0TLV6UeeSlJ2SeU6a6lVzGHi0wkhCLaXPcnxZCreeSYdrEsfG1TYyi9BZWH9Xmt3X4zpy+XgeiwUJUUB2XX1FlA+HVXyQkLGckApJgDaLa7q1tdekax211PSF6NgVLCDEDYNLZbmEXrMjTB9jpDiXMgfAaCOnXBKzryaTD+0B8pmGFQvf72RIRK2hGPUz1iCkzoSxCEsOH1SiL42/lSeSUzxNsCEUPiYaPm8rYDkBl0MfV/RGqk5CwrJAISIIRRDRC81MfQoNuh++2ul4QppcWlg3np1rVMcMUrLKS9ZL9Wo+SxJ720WvESlKDklDD2oHQEYZsWY6IuCS4GRvd6Eh0Elvi4nMbv93y0eUpWlakI2YVSo5n235VV+7mG2Kdr2FCwnJFIiAJWrS31b0dQrwXYdvqLkU4E5DKxG6wfuO0jU5Z86Mt5KXmBM5OLJLhfknsfGOH1MWVhNgQkQIZUfyRkGwc6ugqz8kiv4GeI3zePmSU98JAfVwHF85TJ3UMRnEauS10goXfysrHevqmP/sZJiQsXyQCksCC5qYOpvr0NYi5ra47hnoUdwHOw+piYATVlbvY9aElTluITUZUOt5b8fogRsLOJbCh9cihC0mxi28fQiDrmP5sfbjUoezpWL0c2SrDRzd8OsYskg5SyMPikULg4746satfXSq4188wIWH5IhGQhBxa2+pOn4+K+DWA43tamSaN9jQ+weupVnXi8ZIb+cC7Pm7yqDAPjWgfoC6l0QkfolOmTmjibTPaUQZij4jkEPkt5TajH926hns5KpeF6gEEqdu0oKoXjB2YhEpVa1ss9J6C5dlXJCQsZyQCkgAA7W11p96IxsDtAN4IoNfrL3qPCu7yMauu3nPxxH6WghscRi2s+/WIiU/sNyp7o1tPsXMIWIxu41dnq7subIhIrCf6Jj9BIyKa77cnv7cJkd//QZJPa5swvVKef3heB9F/wrbDyoTnFKwmpTUgCQmOSElmQmtb3WbtPJA4sNd16SsQ3e0zTae66vFmJUIhLxHMgaTmj7ajRX95QSGOKrCr3KOOPfdRZhzOTpZpdQSM6Zeubjb1lt3r9F0zwdJGRAJsYxGZskY7fMmckw1/XTkvRnd4MKKCk+vI9aiu9JyCNdhMIyAJCY5IIyDLGO1tdb8FQdeA0H/kQ2Cip/GrA3d7ma3a06yUhWoag02nXcJciEJY1xGTCE9beTBbuwYnXyW/Q8L3d9D6sniibjPa4VIX1Z8LopAPh9EP59+jD6Zf9QjZEUs70kEKuUrfEN9FHosUMSqeBGRaiIlHfQwTEpYzEgFZhiCiEWrU/rG9re6LSg/Y2ORpKHp8fQ7dDcD57badKViqDtsTKq5hDFGCPEdSlB/NYzcw27rE9hG9bo7JbAhp0/1eMYmIL2zqYSUPnHpli6ijH47Tr7p1vZcJmwcqGjnrJ9Jn0j1QEQMrUFm5s4/TNPqRkOCBRECWGag+/SI0areD6AMoe1vd2buAe04F7n5mqWHKghBiDh77u1e3Y0ZAnEYzzHKVO2M/XTJJyZKRnq0DKStsP4yCdOBA7kzxfUc0Qn3qyl3Ih5W9SRZ59CMWWKLThfUfmmObUYkiuSCFXO8nBrKkQxdvYPt94DWvUuAP7kYJCQmJgCwT0OzkAe1tdb+FsrfVbU4C698D3HEYMHlViKNeb8MLAM7TsCqjq1EZWW3Xx5ZICHRP+0xyt+ARYQyhecO2dxzLaVjOOhFGQVyS5hijHST92cLVzokwGciH9WiEhV6sS3xJjXaYk24V6Yg2SGHdQKmKSSG3R3X7fT2sABDd6meYkLC8kQjINg6iTauoPn0+qpUbUfq2ugRs/Apw+4HAw+cBNBfYK4k+ePGhuNPHauAx+SU1xmkIPvAkKdadtuvUCJ9spFtJWLcSwoIfx2lDMUhIDCIi65v+XP3pynNwJB/WfpkYtnbWhKcH069soImTH8FU2Lje85HlZT1MGfAlIKLyWz/DhITljURAtlEQUaW1re7QHejGtrrTvwbuPAG493XA/HqpMlOlhi4Vwm8r3oEdnrx4YtnRFkkKKeQqP/HYTSGvYDp5O/c9WgfinPAFLEaPnTg6J9VM3U0+XIlDKLyIkQf5CCFw/Tb6wV57htEKj88Q9Q3oJhVG7s1tIhObgbX7KxQMaDZv8zNMSFjeSNvwboNob6v7SZA4uPRg8+uB9R8AHv0KIFTrtRulV6M0EHnthDWwg+OmYgTDtrx6ucpPFLnFMREg2GPqHFtDVaduIFbsnJ/2Fqecb9t4xt8p+6NIhzbb6JbxfQeNTpRIPmwRNPrRJ/D5DUISe+NDFb08Sh085Z4jIE0MjiUCkpDggURAtiEQ1XZHgz4K0Bmld4w0Bzz8WeChjwCNLUw5IiQ1YlWoh2A0GreiWnU2G9zxoNZB7nuIm1m7cgcnQ+eoAXB2Kdosx9GHb9VlO1si0Q3ZghzIEBEm24v57g8XP166kciHMW4Jox8ddGH6VRQbw3tlSMEvVHJJJ3sQnXRYoFAv4uWiOorqqsf5hLhHCDHtWb2EhGWNREC2ARDRCJozb0eD3oeyd7YCgK1XAfe9E5hpb/6hzXYBNOdKr1JpGBq/DY3aDBy/14Ht94WoDgON2UWh46iC1XFWZCAWheKsnDlWxQqppzd8fDmTEouX/HnDnOgFkZBcmYKELBTZoMwHGCbiodNxIR8hoyS+ox+xyAYbq9zpV87rP2xie30fDEvQFpNCbl+36pq9AeH+oAkQafQjIcETaQ3IEgfVp09rb6t7Drqxre5dfwnceeoi+bBBs1ZenUqGEKIOAfddTiqDGFi7XxkP9ewcuXbeBhe6p4edY5vEUh/SQcfzpYS+Or7JZ07muJWszqfxdxdgE1adbdnQxhZmnVDywcUrBX2y+LwUv8QeWsU1EBmykFtzFcfPPrB2PzeDThz6nZ9hQkJCIiBLFESz+1N9+moAF6Mb2+re/37g94cBWy4vNVQe1Ae7YAEgusnHLLcTFmX6RKkjZvtl6YC1zdVRoRCSANk8BVXY9sX7QACPz++QmNp+rJCn7r5yWyLSjZ/GSDwsiFnU78tAEHo9+mGDKH6Y7z1k5EPV9Gjk3vwx6F4pkih510JrCHGLn2FCQkKagrXEQLRxFRrDH0Kj8XqU/vsR8OgFwH3vbS02d10smz32Qz+8BwQQ4kafDr8bC9FJ8Gs8VHKnqVW2FfWJ4xM3/HoKixWljpnpUS4xfH6vhWtWtUhd1stWMQRW94rDKEG/kQ8tIqwrYclOhOlXGh3V9CvVwxEjT/F+gGJ5rLL1lA8+9giFsgGNxg1+hgkJCYmALBEQUQXN6degIc4BsLb0gNM3An9+OzD9K4vKQd8/NrbGqlVv0MQNPknZwI4cAcl8WTGTTZNZu7Cg0y4kCLt1IIxOQZ+FtC4hVjLvsxjdGKtd15hEhfPv4tNHni1fCKsjIrJ+dDhOxSsx4QxCMEkJtIs00mI1MlkGMdDqxPuxClUkhRxVDO54qE+ISQytSC8hTEjwRCIgSwA0XzsWzdpnurOt7sPAfe8HHvkKgPa2usELjL07lf6YIjgwejMatSYc6zO4w8FAZQBo1v1HHmzkNseMrWt+ndNXFARtx1vWKIjvaEas+KytgeT4yKEoY3Vk1lYWFNO/TCiFfJQ0+hEyumK2Z9IrAAAgAElEQVTSsRn98ELm+lPFLsgdCYtKzuiQToeKOpT5n4pc2NZnYO3+EINjCkUtrhdCufd8QkKCAf2R4CWwIJrelerT34Cga0Eol3zQPLD+POB3BwEbvoQO+SigzMWbcigx0b1gagghJgE4vw9EDI1jcIeD+H7Vsu93gipRcH1aafWk01Dj6B9OBc/F6By4ZNUmkXRJNm1jmOShT51zPoT0FwKFr0JMQ91UZd7yCOTARa+bvgJHRNjpV6r2SRKy7VnnmApxVe2fqqpeX5HWqFg4uIvn9CuCxfSAhIQEFRIB6UMQ0Qg1amejgd8DOKP0gJuvAm45Clh3NtDYHO6P60FoltNcSvBaiD6427GLJ5Y9rqojV3X2Kp/GzlvDU7h6scVO2YLjFBxbHRt4JZ0Oybh3UutJQkw2Lgl1QV8mES5/jF8XUuRTZpR7rstwIpoljH6UqBMy/crlOUROJdbDj5BjJu7gzocrFAwQ+LmfYUJCApAISN+hva3uLe1tdcdLDTZzF3DnGcAfTgNqv9dUykJu6oiaS5yACHGjj9nQrscy0oCsWkUEsscGssAfZwWGvpyKBcpFrLljx6SnbB1bO29y4WjrS0JiEJGsvgt58LFxqaMvAevAgnyE/L5yjJj+ydO3UYchvcbvRsVAFD68dJjGJwJUhGnhcPCxf+HnuIrrPauUkJCAtAakb0A0uz8a9U8CeFbpwRqTwAPnAus/BeXIBMFvwWtMEHlNzC0FTfzM53MPPvZoQFQAapa2lsNaxwTnOAbnsepn1GEWo9v6Mco0C8ZlW5fPqIqh8wFFmc4ua6uz1yFyQmjl07e8LPIRm5j62EXSMb58kBQ8QfNUQquveiCSPTb8PoVnJAWBwaeC21RG1mBgzT6K4FqsE2JsnY9hQkJCC2kEpMcg2riK5qc/iUbjN4AomXwQ8Mi3gN8eAtz/0daohM1TqwIcsxj/BKZ/CPLAyC8AOL/SvTK6GgPbSy8kVDxMdPqabJ5YahIGaz8GXT4xUCQ20nEQYiVsMeO5xnRNlm3KbBL3MgiFDQj2dfQpj0E+bPU6sjIXtkcY/fCF4r43Nh0S+2CbI83vYe9foePYLgztfnzrAZE70vqPhIRAJALSIxBRheq1M9EYvgMCb0XZyfb0b4Bbngnc+Spg9gGUPowhdwQx1pb0EEKIGXh2OkPSOhCnJ4qU6co1TxqtuYb2aaF6Rxnl00VvBqWBV9LGLEYP8c0lsyEJpnXSbFgTYipbKLfVKZuQuMQw6enKY5EPp+8iUhtaJpku2BmmX6kaGGtdLqamXja/g6uO0rb4OYYed4KyiloI/NLPMCEhYQGJgPQAND/9FDRr/wfQf6Hsd3rMPwLc/XfAzccBk7/w9xPSUfijf0ZAAIDoOh+zQd91IGV0zib/zv4Mn4O181iMbvIdomOFbpEQKZbOJgYRkXVDSImvD9vPYlUWmXx0Q8bqeJAbmybFNP1KcsNxEPlY29RYt0PMUw/Gj+tlaeAfGNrjGY4e22iKNAKSkBCIREC6CKKpnVrb6uLnKH1b3TrwwPnAbw4EHtJtqyvbKY5VOqVClLsI3xn0Yx+roV2PaZtnXVkcw0LO6bBZQ0BMg10hf1g4ViU4sRajF1DmKIiHTxc9FQkx+Y5NRDg72z9f3zZ6uvIOukk+PHbWCiIkMewsF5/nys2EpWhHeWKiOtZURctJ2oXKdkfhWJZXt9sD1VV7MB/EiCYGRtIC9ISEQCQC0gUQ0VBrW11xB7qyre41wM1HAfecBdR1U58spnuYbG1BNZ8g/YWBFdfBmsktojK+E6pr9ua/ZpsOWTqw6di1/pmOnTL/0+owx24JzcJBpC15yyYcXIIbnWyo5A5Jru334EtGYsAlvg3xyF1LXSAfHVi0fb7fMVn694hns/jcxR+rG8POqtFxjVlUGnrc020MOdzQfjdUQkJCABIBKRlUnzqle9vq/hG47a+AW54PTLe31XVtzEOhjDdfUsDuod3p3OBjO7zHMxdPNGSBPc6ecsmCypVv5+2cDBjYyoIol/TYZExmlSIsR0G8EWEqlkleID0WU7JsyjndMgmJTwwbXY4UsmWe8lDd0GujLDsbMwUxYR90cA83sgfW7QjTfhgraiE3HHuv/yD6oZ9hQkJCFomAlASi2f2pXrscEJcC2KvUYI1J4M8fBG46Enj0u3F9R3sC5RW8z6ZgASB4rQMZfsJJrDPuUKXip6NiMno7bY7AHXOJi3RsRMyETJZFTRRLJiG6mCa7hXJXYiGTBVsfvnYqP046vSAfni81tAFJ/p3sTHBYfM4JTboS+3AiLNyxtr3JExZXbtP6miv+BASVqzwNExISMkgEJDLa2+p+Ao3GjQBxWWfMaMDD3wJuPBK492NAM9I0p1KesDnPXAL68foUdI2P2eBux0EMjSt7y9zXqf1u9R0864Pr+B06eCa8XaWN2UZZU1kUfssgISFxdHJTTNsk34cMqHyEkgydXxu9DhRvXVfZusi1up7Xq42MIx8u15EBTovPLdsUbbmxQgHHXCibemTkg485EJXRNfo68pjBwMjPfAwTEhLy6L8Eb4kis63u7RB4O4ChUgNO3QzcfDLwhzOB2XsNldPJS14HsuC3sdUnQP+hWvdaByKqwxja/QS+n1SRBc2xCiqiYbIzOzKXK584qhIebnjEl/xyyXpoguwV11PXuswh+eb8xP5OXOFaD91nL5TrbD3lKvIRlcwGwIUsO93TxIu5407blGmkrEkF02CY4ExYis6HnnCyQ8Ccr+vaW7InJCQEIhGQCKC56aegUfslWtvq7lBqsPlHgLveCtx4HLDlp5pKOcpjImIMIuqrrXiF2O5RAF5PwIaznZ4Nm+BUXI5VMSztCvkBRy5s/GrLIz5VtkFoklhIiG11DX6dyzyJSFa3W4TEJxZLvHTljH2oPJR82ILKjeH05nNiwji2P6wvcnCjbXPUhMWlXRp54ilFBzYQIk2/SkiIhERAAtDaVnfqS6jg5wAOLzdYHbj/c8D1BwEP/Bc6D+FNSV+U2I7HUbFxrCzP3hDiMh+z4T2fjcKT+YDvU9XRq5S9OnptYFlNszUml/gA/qMgpnoBUI6ChJIQOYZONzYJiUlEZJtQYhLqh7XxGPWIQT5y8W11Lfx2nTj7jH4s/utKJrSxyLLcYKdqx1R2cptUnXgcBnY4SK61HRppAXpCQiwkAuKB1ra60+9qbasrXlF6wM3XAjccDdz1jta2umwnFuGtvF6EwjIuTTtWpo9Rb3zPx6wyvjMGdzyI/5ptOvvOMWl/H6sO2iMJ0JIWk1+t/xLn1odOxfJN8mx86PRjEZHQz+7yFxonBwXxCCFvofJQXaUs0os5OfeOox+FCljfz6QlJnybxDAKE2z6KFKeAACGfUc/gA0YHLvJ1zghISGPREAcQfWp57S21cVHUfq2uvcCt74U+M1zgKnfh/nSNtYRyIspNtXLjdFFiOHx3wH4s4/t0J7cNCwLBD419E0QCgTGZCwlFbk8g0uAgLijILaInmB6kBCd3FSmLNck7mV/py5g6yTgTTxcv0cTAezUR+ND59sGtuQjhHzLcoOdnphkjh186o75dkd1rCYsqje5c7GH934+U2Er/EgI4bWbSkJCQhGJgFiCaOaJ7W11L0PZ2+o2a8A9/wT8+jBgg+O2us5PiDxg4zdasjMyEctTXIjv+1h1tuPNfVcOTxylQolfFI/t3KgVLZMPFdGwT056MAoSkjyq4uh8+JIQm3K2Ln1ERggWdVXYmPyaYrradOoUEDtE1wdsUk6ZYxSP2fuQb4v0u2VlGhwb4sEJLO1UhEVlJ4sqo4/B0GOPlitjCb+ptwkJCTwSATGAiCZa2+o2f4vSt9UF8NC3W8TjTx+131a3G8lEKJmhhmdg0afXaNPrhSuDOx2GyvjOyr7f9TjvwPHYqlzzZnRlokDFfxhy4jUKEpuEcHBJWmOSEKvE2KDD6lmQkZjExMqnok5Ze5sYunIXea4sYEG40/UZcfSjALvRD683oivKje3Vgo5re+Wiq2mHAGB47+f5dil1VOe8pt4mJCTw6NPkrvdY3Fa31p1tdSdvBm56LnDrmUAts62uSwPdz+tAmpMeleljVMd+BMB9O0ZRwci+py+euyR8Xr8NCtmAKiFQEQ0f8uIzCuL00sJYCE0kWbkFCfFNkIOICJBP/DXvSwn584lrS4BsdVzlS5l8sMSCMscoHrP3p8Imc6AiFmqfmWNJZs0n2v9TtU8m/pE9Ht77VLnWlqD/be+AmJCQEAmJgDBob6v7U7S21d2p1GDzjwB/eDtw/fHApmvj+7du5UtYB+KbMOcgyiV+nmjtBS9+5GM7sv9LWge574fr8cF/bypCoUkQKGeXObYkuMrOn0tuUFTO2WsTopLnxLsklBxikRCTr5hERKsrEwMNMbGCgz9b0pHVN5X7kA8A1rttufr31QuA7UiGNTHR+vFpg6SGxLINKsBgJ4vE0ASGHvc0g1MFBC72M0xISFAhEZAM2tvq/ld7W92nlBusDqz7T+CXhwH3/SeiLtLuQicX3BHbYr5e7kL/EAjPaVg7HoKBNU9UPoS07syhEGiTCNL6KuQHBebCBedjOo2CLIhChkFikxDvZDYTS6cfUrZQ7pL4OiX8KiJh+nOoh2u9TTo+ZQCUIzK2cG4Lu7fw3GfnK+Pox4I8gCyY2xzJpQ1J4QwyspF9XgBRHTZUVIEKLvEzTEhIUCEREGBhW923t7fVPbP0gJuuBX51XGvkY95iVNemgyuLdNjEsIndnPKLLyp/42fYBVSaFwHwYo7D7DQsrue3O3Z7AmnwqyhXJgpckgNZ2cJGlRC6kAMr9IiE+CbJMYmIbONKCLoVw1Y/mNw57LgVen2QIp5vHEbms5bKefRDamDciAmpT5Wx4ky/GjngZXJlbPELIVbc72uckJDAY9kTEJqfPAn12i0gfALd2Fb3t38D3PBcYOoWjaJmwayxUw6dPmETwyPu9p68TuCtRNR/LyMEIMTKhwDh9WKqzjoQE6FQHXc6fmISA80xJ+CIRraokFVwPvmYtqMg3V2QbpCH2rMkJMJoiC0R8SUTHGEI+QupQ4ieyYeOfBhtLPRDyEcQejT6UXTjRkxsrmv52OBLJizV7R6PoV2PMQRSIE2/SkgoBcuWgBDN7EX12mUQlcshSt5Wt1ED7v4I8PPDgYektsylIfaFTcNfduyHz/f30Zx5R5S6lINv+hgNbP9EDO54iJJcFIUwd74cNL6sEgRLG90oiJwMFGzYOgYQaatkUbMuoTS5JQkJJSJZvbLu65hwqas1uTDZBpIPF12OfDjbm2XswnODbZTRD8f2SqteaCeoqKiLpVAefdJL4d2mVCoX+RkmJCTosOwICBGN0/z0x9Fo3gLQc0oP+NAlLeJx90cWt9XtNtHoRgxT7NqNATHpnUST5W4G4IvqyEXw2Q0LwMh+L1k84diH6TvlkoHFU7UbR1KjTAY0dSKVniTTb8sbeSoWR0JcfPrIVcQnlGi4kAuS/noNn/rE+L4AWC82N/kMIApR7GU1zb2mGv0gySB09MNso2k/TO0PE195XGhTBEae5Dn9SojfCTFyp59xQkKCDsuGgBARqF57BRq1OyDwDpS+re6twPXPBW5+RWvqVSickp/IO1rFSFq2XgHQrK/1OBrVD0WoRXQIIbYA8NoffmS/01t70isSdLZD15CLgkBLNIj3xREIyb9Nx5+3JbWepq7Rp2Kx8pJJiCqm7XRHm3LX+7ObhESO5UoYoxI1h8XmTr+nQb8bRDoj166vsmhrdHpZg0IbobWR4iBvz/ETpU/dMSMb2vVYVFftwShZ4Wu+hgkJCXosCwJCc1OHo1H7OUBfQunb6m4CbvsH4BfHARuvc7fPdpY+naNTDE5e0jqQ+iPAxm/4OG2DzqTZrfsHOCgTXp1UZXxnDO12vJJcaKHogK1Ji0WykD1etJFqqLHNqROp9XQJU+ypKyx6QULacRfKQpLsrI7PfcuRBNWfq40PXD6vSQeA9iWMWjvLmDbtqUnXth6MzHbqVXEkhGs4OL2MiqJO5rZGuv+tiIvP4vPiZwpYfN5Ehb7qa5yQkKDHNk1AiCbb2+qKX6L0bXUbwL3/Cfz00Na/C9vq2nQ4oYTCBmWRGZfY6z8ENKd9vVRQHfhEpBrFRXX0+wA2+ZiOHtxenJ/rUZmEQj7OHFD+wLJzX7RRJRnE2mRCcYmBJp5ST9L3moqlgnXCGJGEOJU5jobYtichBCBGHXz9xiIeOfLBlOtsXeRaPw5TvTxlPlOvcoVcWU5PLsu0GdbtjBQHeXtVW2LjUz6WRWJwBUb2eQH8IH4oxNg6T+OEhAQDtkkCsritbuX37W11y/2cj14L/OJ44Pf/AMw9YtfRlJX49zKGKfb8A8BD54UEPonmZ04McFAKhBBzAHntEz+81/NQGd+J/+ocO3jOnj1e0HHp4HM2nLPFf9UJBan1tIkUl3kVRcEJXgxd7zLL0ZCsTq/JSAgIfp/DRg+A9o3rRlsHufJ6iUw+WKinXul86qZlaR9yKOpqbmOkxsCqXVOPfqjbqKLyyD4vhBhayVTcCl/yNYwNIhqi+dpTqVF7LzVq/0iN6bcSze7b63olJISghNdf9xY0P3kSID4JIcq/OWvrgDveDzzw7dZ59tvsHJNCbnNMHjYxYpOlnsGe06mMA/v+FhjcEV4QuBmV0UOEEE0/B+WA5mdOhGhe5WM7ee0HMPWLj0IsfEcC7WOx8F8nn8oeA3C26Rwv2GZtsr5sbYx6eb+A0JSp7YQQYDMgrgWzlbFy5tp19mFZpixX3H/Ofkq0c4UvAbK1y+lFIh66Mq3cMn4gKcmNcMgPAbJlC3KZ0JNJT/ZPRTIi+2D9MWvAmGOljRRTZZ/9XAs2a15+LQZ3Okz+6ixAW1Ad21kI4T1kHwtUnzoNEOcD2IUpvg7V6t8KMXxbt+uVkBCKbWYEpLWt7vSlrW11SyYfjRpw18eB6w5fJB9KePTwuad4JcG1A42F5iTwYMB6csKBaMy8Il6FImFg+EcA/uxjOnrQmfBZjJ77Vz5W2PBPKPU+C08iKVtg0oP0ZNZ+QbpxKpYKQcmeZjqUzodPmdKnNC3LJgkn2Ouq7OS/WH5CfNnqAnBe6wHPMte2M+h65GW2U69kHdttd1VthqxvbluoYFMMYrDhYhfKqfDP4M5HepIPAKhc2BfkY37qQ4C4GDz5AIBj0Wj8mupT5e/omZAQGUuegLS21Z36SGtbXZxSesAHvwdcdwRwxz+1iIgNbDob107aFjYxQmO7fr5HvwzM/j4k4If67eWEQogmhPicj211YjcMP/7ZTGfOZQQwdMxUIANKe84mW6SL01aw05P8lT0Vy1Qno9yDhISWxSIiWd0Y97XtXyhcfZmIB2D2tUTJh8vUK93Cc+vpVrRYYNYryrTtiqONkp8wPscOfQO8Qb2ffkX16RdBiPdaqI4D4uJEQhKWGpYsAWlvq/vS1ra64t0oe1vdrbcBvzoFuOFlQE2xrW4vk/2YMWwQ8vmoDtx/dkj0XdGceXuIg1JQaXwBwJyP6eghr20dKK6hIjmBuXP3sdElBBYdP0smGL+2ZcqpJao6mNCvJERb7klEsvqxiEIs+NSroK8hHqbfQXcdlEk+dHWygtDueuW98FzbbpClXkaFazCsSIYUwNSnKohJZcVOGPZefI47MTDisYVlPLR/4487mAwB4uLWFPSEhKWBJUlAaG7q4Pa2ul9D6dvqbgbd+i7gp8cCj/yYqUyp0QHb7XhZnQhTqWxIlU/crVcAkz/yqNBCXegsoskd/B3EhxDj6wH4LUZ//DNR3e5xSqJRgJY0UKGD97EhVk+WEa/HJQYSc1GXST4KdSjhSTMrbye4Kt+u/k12xnKGiLi2P3Li3w1SEhqzYONJPGAo9ylzJR+B1ylJo4fZY6epV4qyAgcg5lCnZ0UyLGwUxKJQ58JJC2MHvRqi6vlMUogvChGh7wxBY+Y/AOzhaDUEUbmY5iefVUKNEhKiY0kREKIta9vb6v4fSt9Wtwn60xfRvOYQ4I+fAzXnM2WuzjzmrpeVGKhiFI5LaIDlGPefDcB7LXl/vpyQxGe97EQFowe9hvFH3CFPVKDv5L1tDMkAq8f4KsRymIpltR6kFBICWD8EkOXdICI2vkzgCELMv9A6AVj8zAHEw/R9u5ap2kmXa8VBV39PKMo69zrTjkhtgvwvyUqmdmVBzDUGkpLWRo6hkjHtDREgqkMYPejVjLEV5lCpf97XOCJ8O8YRiMqlND+TSEhC32NJEBAiGmhtqztwB7qwrS49+jM0f/I00M1vbW2rG8WpozwmehlDF3vmZmBjyItm6Uyi2f56OeHAyP+C4LUjydhBr4EYWqkkGgUhJ8sKiOnXtX4UNgrbXOKgLAOCp2JxSYd2z1FNvb3lHiTEVGZbbiQizKhIN+752GDrriAd4HQ9dHTlqrKOPJB86OpUgGLdhwVRsZ16JTUD+jJOz4pkqOMX2o3scbYuuc9cZCHDT3whKuO+EyPoAiFWbvA0jggKmUo1AtG8mOZrT49WnYSEEtD3BITmJ5+F+vRvQPgEgFWlBpu+D43rX43mtc8Bbb7Zz4c2KTTIfWK4xg5F7M+3/oMhLyccQKPpMk+2dAghgAq8RkHEyHYYOzgzCsKwD+MoiIFAsDbI2hjIRNY35Y3VZRpCAsVULF3iwfqR4pYiDyAhIeVZHVsyYmXTYygJk2a0I2tn49+33Pg7RyAf1tev/7qPsKlXpCkr+s21IYqY2nYHcgHUMk37MHbo6xljSzTxGX/jOKDZyQMA7B7oZgyCvkvzteMjVCkhoRT0LQFpb6t7MUTlCghR7lPuRg3N2z6O+tVHgtZ9G+oeQ9MhloFsZ+ed7BumUmntNQtxjbCcwjV/H/BwSJtPz+m7Jz2V2S8DmPExHTvszRDVIW3iXThWytwSiIIrXQJBxSJTGeSyjixv4LIepGckRBXXJ6m1tbfWM5CRXpASbXwBa9IR4/vx/Z0IcN5xKyb50CXgSoLBExeZqBSIRFZJYcc1N7k2RxLLx7btCjtKCl556LHHYHCXI+Wa2eIXYmjF9b7G0TBQibWQfAyCLqP52lMj+UtIiIq+IyDtbXXPQaP5WwCnlR2ved93Uf/hUWjc+iGgPslUCJ2XHRH7+NkWAe8wiA2bTrF0UpU5fvhcoP6Qv88KfYKI+uZaFmL1JoAu8LGtjO+EkSe9bFFQyBSgJCeF5ECR5KiSCMr+T5NEqAmMFFBOKpR2DLHQlfUDCfHxtVAWm4hYkxELUuJLUJx8WRAO2a9LHUw6PvYEOK8/8bk+ZFUNObde9yHd83IddO2Gtk3h2h5Ieqo+Jeev2G6obE3tyYqjz0IAzgsxjgbCcyN6G4Ogy2m+dmxEnwkJUdA3SVtrW93pM9Co/R5CnA1gpNR4m29D/ScvQP3nLwNN3t2SLZR16hQjkONxTPQyhkvs5lbgwX8KqcPBaMz8tb+DEtD078xWHPn2wosJnUdBpMxBmTxINj5JRq4asg8bYtEucSIohc9Z0lNppVyzQ9aCjW+y66Ij61rpc6REk1zb/IXE0cU0wVbX5vfQ2kV6u7qD3HzNq3UL6z4UbQl/vxvaDGVbUCwotBOKNkulZzv6QQAGdzwMQ3ucyASwwnpURy/yNY4FIhoHEJssJBKS0JfoCwLS3lb3WgDfALBrubE2o37TezB35dFoPni1VCj9eQcJsA2NoUyWuhA7BI/+NzAT9HLCc/rp5YRiaMVNAP7Xx7a6+gkY2fu0HIeQDsyjICh2+Fk3heNCckMFf2D1ZB9U0OHyBj4psVwPwiQnTjtj+cpV95auvQhNjG11OH3ndkxFGHz/POrrahOqZ/XbOV5XXSAfXus+GN1iWfH+tWsvmDLky3g9qZHQ2JqIyYpjAt4tJcRnhRBe73CKisb0iQAGSvA83iIh00eX4DshwQs9JSCtbXVrn2tvq1suO6cmGnd9GXOXHYz67ecDVF/Mlzqdhk2PJk1h4I5tbG2R7QR9kxzrGJy85HUgnY6nDqy3eemrEruiOfPWEAfxQd4L5Mee8o62i4w3RaevkymTClYvI9bpceQh929xNEOXPOT95BMSq6fAnbKSSYiyzGJKlg3JMMGLVEh2oW1FKOS6+H6WGHrG3znSeg9HG2fyUWgjSDpX6MKvjG8PikRC1VbkPrKm7bHd+YoADKx9Moaf4L10Yg6VZj9svQugEnP6lYxxCHE5zU+X+wqDhARL9ISAtLfV/fvWtrr02rLr0dzwK8z+4DjM/epNoNn2trqWHdni+o+FfwN7cJuOqKwkwSZGaGzb5IDDlsuByWsCYjfPItraPy8nrI59HwJe26kN7ngwhvc8KZcISAf6HbEUv7VtYpFVYokG4yP/s9rvilUoMyxK18+D7yUJ0TwkMPlcKLe9/0IIBUcCfH11w7+LvY2eTqdTFmm9h66MkbuQD/lfyikyTYaCHCyWMfc7GyNvkrMrlKl9KdsIg4xf+/Fu+I/0iy8LsWK9p3FkBG2/a+N/AkJcQXPT3iv1ExJioesEhOZrT29vq3seSt5Wl2rrMXvdmZi54kQ0H73ZqiPrtHuxO2QXeUz0MoYiCdbigf8H/3cwiQk0Bj7gaRwdQgiAxEd97cef+gG3tSDcd5xNTJRJi3S8oOKRXMhl2fNc9eQyU+LFfT6lLSEaCXG+dy2mZNkmyLb3TGiCr/Ll+xcDvt9BiA4BzqMeujLH68eVfBRHN0g6532z96ht+2B536vK5DbARs84+rFmX4w88VR4oo6q+IivcUy0t98tdQp6O9IEKuIqmps6vPxYCQlqdI2AENX2aG2rS1eXvq1ucw7zv/04apcegsY935JbML5+2QOjusV2vLE6YtsYxtgR1oF4fT7HuLWbgI3fcLPJgV5DNLtvgIO4qI5cCOBuH9OBxzwZI/uenr82874khlIAACAASURBVAf2u2DRYkHhp+N+V6WPYhmb0FD2ROFTlVC1hVbTuJTnhK5Mn1HeaxGIiIuerF9W+1MWCH51t9E36XTKPbZZj3Q9hZCPnMBAItiyTH20bYj8ERQKurYhK1T6l/Wz/hjZiqPe1XpQ44cLhBjxap+jY6DynO4F65CQQ7sXMyEhj9IJCBGNtbbVpd+jC9vq1v98GaYvORJzN3wQNDcpNXBUbAsLHZ+hN6OF5EZyZI3AdSBlQduRlhiXi/3gB4BmzdfbABqNvnk5oRCiDkGf8LUfP+Z95veCcCQhe2hDJjg9qYAv09hxiYaJSEhx1X77hIRoyyzWT7kSEV8y0m+kJKReLnbWxMNjylW3yYervjXBYO7v7LHPva/VI60Ptn2ArND6Z2DNPhjZ90XwRBPV6jm+xtFBOLnLEVehIq5OJCShVyiNgHR7W93mxt+jduULMHP1GWhuucuyknbFuXUgMWDTcZWVLNjECI0d+vnm1wEbgl5I+7y+egNsZewLALxedFJdvSdGDzxzUZC7KPMimUzkC/NKxmQjK5aTlEIZCj7lvMGKSLC6njtjdc4Jpe9ipLWzGA0xxQ3RVdnKf2VAFcsnnoutjW6nLOKoh65MUR8n8sHc37pF5/K//D1Pal3OLndOvF1WzH0fhraicKz4LoD2NNWK96ZRFwkxfJuvcUwQPTqBsjfi4bGqNRIyeXAPYicsc5RCQNrb6l6D1ra6u5cRYzHWZsz88mxMXXIM6ut+uCjn/rXsBAu63pVTHKt0QmO4xg5FmZ9vw7lA/WFPY/TVywmFEDMQwv+9IEe9G2JwhXLReV4ApZ6cEOjKzIkLU8YlS5kkh006uGSl8G+XSYiuzDqxlVEiEYlxf8ttY4y/mHVy0bfS8Rj1gGeZQu5FPgr3+eINZD0SsnC+eODRFlDWHFlx3iFjx+kx7UDua5M3pgAwuMtRGN77FHij2fyQv3FkNEaejnK237XBGlQqV9Hc5IE9ip+wTBE1QWttqzt9fntb3eNj+i4Ga2Lu9i9j8sJDMPfbTwPN1hbebFtv6FQKbabVUIfHk7MoCNmON/I6EGs4xiUAjS3AQwGj44RD0Zh5qb+DyKjM/BuASS/TFTtg7LA3LQoyifnCuZzQ5/Ug6ZGmLHNcvDHUZUwCkf+3mK3kEwwp+Sj4kBIQ2+Stc06IRkJsypTljkTENfl2sek3+H4GG/2OjuYdJb6/qamME9tev22ZkkDkztX+eBKRKVK0G5xYVSdVGWvHxGZfOsj4WNBbeXzQ7KnviaFxrx0Ky4Hw336X6jEqsBaVytU0m0hIQvcQhYC0ttWdemNrW128MZZfFeoP/QqTFx+P2o/fiGatNbMl1yAvHLIdg7QORO70DB0Zux2vc4dvmZArW/+IUMUoHJewDsT0+R79AjATMkJO5xBRqVP/bCHE6k0g/Juv/Yoj34bKyGpm0Tl/HermgWcJgVPyIdvJsZh4+URIvx6kkHQUzslQbmMfeXtV73JLImITR2fjY9sthNTR1q6jYyAept8xYlkU8mG545V8zt7H3D2vvTepICuIFXZsWRasDyroD+99KgYfG/A6iyb1zW6JLZDfAvT17wHWvRKgRoxKrEW1cjXNbj0ghrOEBBOCiQLN145Hc+ZGkDgfJW+r25xaj6kfvRaTFz0D9YdvkCoi/XF1NQrUNlG35dXF7kay0MsYLrGpDjz4vpBa7N5XLyccqH8cEFt8TMXwBFY85azWiYkwMB28MrEwlCnJAudDRSSyH4QcF6WzJMJFn7N3fAIekqAayz2IiM/9K7ePsduzbsW2te3oBRIP399d1QfZXq9tGX+vkL4860+uD0mKNvd3rozycVCsA1//ohF738s+wEy/rAxg/LgQ/iC+L4ZWXB/gICra2+/u4mU8eQWw+SJg3ZmIR0KqVxPNlrtTaUICAggIUW13qk9/B4KuAVG5jLkxh5kbzsWWrx+Mudu/jkLrrjjl2kTbDrC4O5YnlA2rhdwnhjF25JGMsj/flsuAqR/721PzPURb1wbUIBqEmNgAAe/3gowd9gYMrNmnSBgyX7BqW175X5KVFHZ8ckFsmS6h0OnK/4ZuSWpDQpSzLEMSzpByFyKS9Rej7Sj7L2b9bHVDiAcM5Tp7ZZmITj7kf3P6YM4pq8i0FVwbkPPD3/eqOue+BkMZ5DLFdwIAo09+JQa2fyI80USj/k5f41IwUH2el93cva0ZAgRg07eAda9BJBKyAxqNa/pqO/uEbRLOBISIRmh+6gNo0O0AXlhCnXKYu+cH2PyNwzH98/eB5re2KyH95WtYPC3oUkE796/cciuR6eCYhjI6On5D1oHYxuDkFtuKKmFBfFTf4QNn+wZF6+WE1f4Zbq+MfAqeO2KhMoiVJ57bOi4kFihezFJZ4bJWJRWSL+dkhEkk8rpFW7etSCmMhLA+5Q+pKTOV62Cyl4mIzWWvbQ+XIFw/S043AvHw/X2VZcJ+5K4t4+8dtQ/1vZY5z9zMha5QY2uuV0ZV0aHathOmbXfF0ATGj3kv/EH/LYZX3hrgID6I/LbfnfxB/vfZ9E1g3esQl4TMeDO9hAQTnAgI1adfjEbtdgjxjyh5W93Gxjuw5dLTsPW7f4nGpva2ulLnoMm7FAJFkUsHTuDXgTjDYx1IWfBJxMqOnUXtRmBTyMsJ8dp+aUiFENMQ8N59ZehxJ2DkiS9kEojFXlqZXGQhJxPI28llRiIhVYP1IyUlbCKSPdckKvAkIbxOCbshhSa6nUTaYVRE9u1q1yv41Denn/mudLo2/kLKWZRPPuR/dSShc5g9t7KVblLVvc3ZaT6fduE5UzZ+7PtRWbEDPDGNqni/r3EZaG+/e7SX8dYrJWcANn4dWPdGRCIhO6HRTCQkoTRYERCamzyQ6tPXAPgmSt9Wdwumrj0bG792JOb/dFVbCD5RKhhLf1JRztaiwyvkSzE6c67B1R3HRC9jhMZ+6AMAzfjVCRhAo9k3LydEZfTzAO7xNR8/4Z8hhsbtF6RD0uPsVImMzk7xm+p0C4vSueREpV+I60hClDqE6Dsj2ZTb6viMinAxfO1jgauHS11yNgbSkdW38etbronRIrz5xL0M8mFNIJT3f16mtc2qqe5x5BV1ZZDLOjIqlA085iCMHfpaeIPo00KMrfN3UAIaI8+Cz/a7NAtMZqYmZ7/YjV8B1v0dgGZo7QBglzYJ2SuGs4SELLQEhGjLmta2upWubKs787sv4dEvHoLa9ecB9bl80gFNP8B0AlobQ4eTa5RjdNjd6PBVMVh5ietAtAiIO3cvsOFf/e2BU2i+9tQQB7EghJgDhPfq+urErljxF+9qnRSyAugTCzA/lypB4XwW/GkSGyapkU2xQCI0dde/D8GOhJS2LsS23FZHq8eMivi2LeTwF8tXaD1tSEfWxtZ3SDkLYUl88zr8PURqG+lcfQ9a3KNZXzDbZhXV97r/1KtCmahg4tmfBkQVntiAgdmP+BqXB/FsL7Op64CmYld3AvDol4F73wT/Gy+HBRKyZwxnCQkLYAlIZlvd29HaVrfUF+TMP/ArbPzG07H1ijegObWebecytVv8h+kgSLZUdoQE+YhkfYubV7l7h9V975GQd/wuxXUgjrHl4w3/AtQ3+Puu0CfDps1FRHXk6xDid77mY0e8GdU1e+cuZ/nad1qQLicfXBkxP49lgqMf6VDsjJW119aZ2CfNygSLS+bYREj6sLpLx1Ruq2OtpyAjZVzeXBtaVryCb0fSEev79S7np1xZjdQVru+iH905f3+QoTyvkvOr0zXel8XGQtcesJ8rIxs98FUY3PkIeEPgQ0Ks8dqBsCy0rhPP7XcnF1+6rLwWH/3vmCRkVzSaP04kJCEmCq06zdeOR4U+CcLB3ajA/AO/xsxvvwyI9k0ixOI/ol3BbC0bM62/TJ9U0G0fdM6pDtQnF1xn+rRFHflfCAD1zRCgYj0W4mXjL4BqQHN2UQ/QH4Na9WtMFn8NpU0b9U2L35ttvM4xWepxxw622fOsrW/s7V8P7Hwu/CFeJgZGvx7gIBqoPnUKIC71tZ+754fY+K1TpOseEJ0LU74nkLsH5GtaZG6CQlnGj7KMsZXvObUtcvdjrlxlL/uXPjsbg7FR+1F03DbPDWLp+Ohy9Xay7yIKVXWsqEtuZUtOPMu5xLlAEhgZv9bJjXzwIyFkKDedt06sbLN8g1oBWcJBRT958lW0q4yuxfav/g0qo6vhibtRHd2vNfLcP6C5yQNRqfzGy/iOQ4CZ29uOsk7lIADWvhrY9dOI1Aj8GVXxNCFG74nhLGF5YzEdJRpBo/YfAP66h/VJKBuNKYDm3WxormUnw9SeNTa52zQn9fUTA8CKoJlUf0Z1dB8hhPeCkpig+vTVAJ7ua7/pkpdi9o5LGGKRISE60rFwbiAS1n4WbOXk3sWWK8/IimQhf24kMsjXT+lH1pNhupZt+3vXvMArjwggUzGgGTGI5ytAP0inOOoBaEgCJ8ud+5OPnI8Y5EP2q7Bl13bpdC3sFsomTvocRp/8cgTgdDEw9u0QB2WAGrV3g8h9Wtjcn4Db92s7kZ0qjte+Ftj1k4h0w9/TJiF/juEsYflCAADR5E5oVC4FcGSP65OQUD4EzhLVsY/1uhoAQDS7LxqN38JzmmNz6kE88oVD0ZzZmCcImYQeAFMGvmxBkB1IsBq9YGytSId8XhIJ4XR0fnIyAW2G2isi4muTg2s274MISU8ZpMNWz3fUw1amIB8yOVDbMD6yHEaR8LuQD3a0w8ZWR1QKfoqjH0O7PQ2rz/g+Aq6h61AdPU5onyT0BlSfvhbAsc6Gj/wHcP9b2k6yDuUA0vFj3gDs+i9IJCShX9BaA9KofAOJfCQsF5D4f/3zcsLh20D4tK99ZcWOWPn0f2mdaJ6+WpV18hYpgcmKCrqyf1L7DU1+MjLzfPhMMqPSUfhxWqAu+VOW2ya6trqcjWuSDqDDLkv984Dv53L9rr11hJlUaJLurpIPFPW97j/Or8GWbSNYP0XyIYZWYuKkzyIgYa6j2XxzX5KP1va7T/Ey3np520nWoRyAsXv4s8B9ZykKnbEHGnQN0fSuMZwlLE9UqD79IpS9w1VCQl+BJtCoPtzrWnQwMPp+APf7mo886a8wvNcphSQ9O49cl8DziYoFkcj6AbSJSM9ICKOjS8zMiaQimQlOaAN0OTtf+15ArrNrvV3sIvxOhe11NdejzWJzys074q/7IPLB3Du565/T1ZxnDXNfk0qXqRO765VUx5XHfwTVVXvAG4R/FUPjN/k7KBEh2+9OXae/huWy7PlD5wPr3uMcVoE90UAiIQneqAB4Sa8rkZDQCxDReK/rAABCiElAvDPEx8SzzkNlZDWz89Vi76MdFZEPHIiAM4mwOreLbSQhKJKQnF9Dsug1GmKb4LokzDa6JvtQXzEQqy6u9i7ftxLq7XWd13t0rkFiZIt6XELvRT6y97riWF74bqpP/l5U7GSn+T6UnwfA0B4nYvSgVyEA97cf7PQpPN9+PnVtcftdU3vUgWidP/QZ4L6zvcIz2At1XEM0vUsshwnLBxX4DgMmJCx1NKbP6HUVOqiOfB3A//qa207FKhIUTZlNEuNLIkLtFfVeOM/Xt7VNb8GPZMf5KshyMTVTO1wSXtck2sXG1pfuL5afmHV2tQnUK4x6ZOSyvfWUK26nK8N9EUQ+CPmPmPNF+bpb+MopZR1rdeWy4ndQGVkVOvUKAN4mhOirbXcX0H7x6Ulexluv0l/PtmUPngfc916vKhQgFkjIVCIhCU6oAOiLp8AJCV0HiSf0ugoLEEIAjcabAdR9fdhMxcr9mynikgXKKRQT/2ASEWqfkdmMcqjWheR8y76yeoXkj3pDRGQbVztXkOavm3F97Gx1VcXy7669HnhZIQHPXnDc9UtFO+769yIfpnss87kXT9zuz9zXKZdJhVzZ+AkfQ3XlY+EP+qEYGLswwEG5mJ8+GIBfsj55Zf5cd43nykSxbP0ngfv/P69qFCDwRNTF1USTO8VxmLAcUIEQ63pdiYSEnkDQDr2uQhZieOXvQAh63btyKpbPepCOLtnrWiYp7vbmEYwCmWB0uHUhuViqZFKRKLZkJRARG12VnY99PyCk/q52Rl31InPtdQFG1tYjgF3voZ1GaHFfZU+LOnY+5PJcfRx962zZz5mRDT/heRg9IOhNAHOoVv8uxEHpqFb8Rj/m/gjUbleXK69nkS/LHj/wceD+D3pVhwmzL+riGqLJvupXE/oXFRB+1utKJCT0BELc0usqFDAw+j4A3lsbVlbsiJUnfqp1IicJmZ7HuB6k0GERm0j4Jz4+5xYjGNlzLqFrH7hMyTI+6e7IDetDJH0jCG76OvsQP7HB1cunbq62VvrCbpG55logWXfh3LDeoxADRR3KCo06pnMy6rMjIZ1zt3Uf8r0sf87KyBpMPPszCALRx4QY+UOYk5JB9Fwvu60/zJ/rrmOXe+L+jwL3n+NVpQKEaJOQ/thlMqG/UUG1cl6vK5GQ0BM0+498CyEmQZW/DfExst/pGH3yKwtEwmk9CKQyy4SlmKRIwZ0SJO7cMIKxcM581o5O1pckY/UA6+SzIFeBUIgRVd/Gj+ovFGX69/Fjpa8nHloSKsl5UkFaPQITA0Wd7H2o1zGd293Lhfpk7J1tMw5yXwkBgMDEyZ9HZcWOCMDdGBiLlEmXA6KNqwAc7WW85fKMI9mxykgz+pHF/R8G7otGQvZHcyCRkAQjKkIM3wrCP/e6IgkJ3QX9UAyO/aLXteAgBkeuBMR/hvhY+Yx/wcD2+0lJAyA/eVQm2dK/TolL1lfOL/H6LucLyY9Rh/881lOysjJVImotNyymzSajNiDpLzZk/65/ZdYnuo0D8ZCvq4ycUNRtybKGaj1tws7cf516+NxDNvewdJ6/R6jwHeS+ZpUteFsAGDvi7zG813MQBBJ/K4SYCXNSMhrDJ2Lh/WsuoFlg6seKMs257vqXy+7/MHC/+4vZed90AJrVqxMJSdChdSMMjL4HEJ/vcV0SEroE2oJG8y29roUW1ZG3IWAqlhgcw3anfhVicCzuepBMp8WWc75yfqXYrglUNrBRB+yIhnFKlioBhVm+eJL1Y7FGJGujSxpMdq62/Qb5s/h+F0b4EQ8lIZGuB6cpV9L1qyYWlLfT+Fafa+4bzTkk+9xnAHOuuNe4UZ7BnY/E+HEfQCD+VQyO/ijUSfmg53uZTV0LNGttFzr32RNm4bnJ7r5/ak3JigHCgS0SsmVNHIcJ2xoqQGsHHjEw+jqQOAHATxCwE09CQp9jPZp0nBheeWuvK6JDjKlYA9vvV9yat5M/LPZGdiMfki2TbIBLzLkEvWwSwn0OJhHq2GXqpSQcsi5gTlILZZZEJGunSxpsbH19dAOx6ulgv/D7eBMP6PUJC76poMuSD8kWsowyxh3/jB+re0hxv1ifF+2VBEP+LNnCjG5lZDW2e/6XIapDCMDdqI6eFeKgG2hvv3uil/GWHyic6gJq9HR26z4I3P8Ju3qZQDgQzYGriTYnEpJQANsTEtEQ5qcPgKi6XzSiucqjGuMQTccWSAwBGHO0qaBJq91sAAiMA8LxraXNEUA41g8VgCYcbQCICQjHt6o2aQRCjDgGGgDgUT9MwGfYOS7uhsDnUJn7vBCrNvW4Ltageu0/AHpNiI/N330lZm67sHWzC3TueiEWDhbO0Tkv6Gb0IBZ0RbFc5wtymeB1bM+zgQsyTi9fr2J9kBMW/GV1feSFMgHnrDvo1Qhd9lsm8XHyLRYJB2PPJs2yPFNWIAo5fTLq2sjkpF9p5+gnJvmwIiMZ8lHUFVj1ggsxvJffmuw2miDxNDE4el2Ik26A5qYORUX8n5fxHw4BZm7XE4lcmWbth4mMLJzvdg6w81udq8pC4AZU5p6xlPrehPJRVneWkBAEIhoDNjuS0uoQMCi914aawMj9Qoi5eLXrHohoHI3aLQB29/YxuwWPfOVYNDbeyRADDQmQEnOeZAiokvtSSQgrE0UyYUlMWFm7floiIrWgKiJiLvMgI4yfbRZeZEYiHjIHCSEeBXkxjnKRukFmQz60ZEThx598oEAgrEdC2krcKM3YEW/ByuMD1xwQzhWDY/8Q5qQ7oEbtbBC5r/SevRu4/YC2k6xDOcDCgWHhua0PANjtI8DOb3aprRoCN6Ayc4IQa/ryBZEJ3cdy6b4SEpYsaH7mWRDNK0J8zD94EzZ+7XhQY86OhDiRCp6EmAiENwnRyoSdHfPZVLIcsbHwm/NjKmPLPckI42vJwvPjm0Y7AHfiobJREo+srbfMnnxwxKib5MNMRjIfpK07uNMRWP3Sq8KmXhHdhoGxQ/p+4XkbVJ++FsCxzoYbPgfc/zYHIuE5+qHy8biPAjtFe7XK9ajOPCORkASg99NiEhISDBCDI1eC8OkQH4M7Htx5P0hhoXkm0+n0QRZPNtlkySFRyq8JsUyUVDpSXbR2mbrayIDMInULvx0/2e9OjiF3/Dlbyug4Mgpi/vodwXUWne+rsLZD+s7d1+2obeRF5ovyjL5KBpVeJktnbE33FHdfGu8p7rzjT0E+2HjSdwXp92j/Uxldi+1O+Urouo86SPzNkiEfrTUQftvvbr2ieE/I12sHhtEPlY8cJB9/ejfwwL8Zq2mJw9EYuYroUZ+p3AnbGBIBSUhYChgYfScEbghxMXrgKzF26BtaJ1KynM0QTDvX8MkLsfqmhIkYHwUbOTHVJU20aNTRUerxn1dJLIjfLcuGiOgSXxVRaekEkJHsZ1X9dQtR69AaovMmHVJ5oY5yWUGeFWRUJH2tTLomO/egwTb4XrI5z/jQljP2+X+l74gAUR3Cdqd9A9XtvGeULjj7ZzE09qswJ11EY9Bv+91mrbj9ru6eKaWMgD+dBaz/nEbJCUeiMXIFkc9614RtCYmAJCQsAQgh5lCpnA5Q0ND1yqd/DEO7HV9IxHMkBMgnP9K5OokhNhkxJU6cD31ypfBbkCneF5KVZRNLSbagi4KctPo5ufwZZH+UL7MlI0GEJAvq0l8w8oRDRToA6XuEW7kT8Wj/1t6jHop7p6DH+OOu6Zyxzf3CnWd8yN9Rvtzkj1t0Dqw88VMY2vUYBOI6DIy9P9RJd+H59vOpnwKNmsZt9kRoynR2kg+2jIB73gGsD3o9VRZPQaN2ORGNm1UTtlUkApKQsEQgxMjdgHhdmJMqtjv1q6iueoJxpMNu5EM+t09+2ARH5cMUVykjvZ7sT5V8yrptZSMRkcsW/EmfiytnyUhOrwRC0heQRziAwmJyl++MK8/oEBS2C4e2xEO+rjW6i7KM0oKK6j7Jqtpe77KO7jxTATZmxkZ977btJf8AMHbY32H0wFciEBtQxUuEEM1QR91Ce/vdV3gZb5W23yVerVAm61nZMe1HzicBf3wb8OAXNM6ccHQiIcsbiYAkJCwhiIGxCxD40tDK6BqsesE3IYYnGJJBuXPr6VS5c3USpCQ5Gh/aZGchseTqkvPlOBpS+F54Xda3bCMlcx1LVblOR9bL6eYJySIp6WdiwpMNJeGQfiNf0qEjEZ3DrLHkV7ZhfS38w+hmr3GVfcHWqEOsndV5pk6FexTSue4zgh85GXrciVh5wj8jHPRyIcbuj+Coe2jMfNbbdsuV6rLs96y7x0lzritTObv7LcCDXzIp2uJYNGqXtXa9TFhu6OeeKSEhgQERjaE580sQHRDiZ/bOy7DpkpcA1NTujJU9ddsul98diz238cHp6OrC6gm9rU6u9ZsvYH3p4mRFXKtsq6fRL9pnlYyZhycWYxR2p+KgUFGaMnJWlzTlhTLSlNnJZTcF4qHSVciM/mRywNn5kA+nc96+unpvbP/yayGGA6f8E/5ZDI69J8xJd0H12isA8svWZ+8Gbss08crr1rDw3KqMmXqltRPAXucDO/gN7DD4CaqjJwshpmM5TOh/pBGQhIQlBiHEdGs9CIIa6+G9novxY/4RQD6RoKxASijcnrAyiZH8JJcsfXA6OjtNkmUcDdHFMck7/qVds2Q7ksqkhFY76sHosUm1/CerLNSTGTmJ97cYw1g/m8/G6NvoEjTlWKzroqDoP2cnyyVTSHLV9cyNaGhHOQoyytuxOprzjJ8w8sGfi+EJrH7hd8LJB3AdBkbfF+qkm6D69IsA+qK3g+zbz7n726oSZZURcOebgIe+YlkRI56aRkKWHxIBSUhYghBi+DZABG/OvuKod2JkvzNaJ4VkhaRzudzmnPgExcUHLRrok7H2uUkmJW4sQQiVtz/wQnIPppyyttlyToeK359J15i8q/5C4BHDqc6MjSo+ZfSyv1exPKOQPVTUpXNJZuXIyKVrmKRruGMi1clGlr+2qagDhR13nvETTjaoUC6qQ1h12gWortkLgdiAKv5KCFEPddQtUH3qFABfQ0iONflDhfPsSQnb7lrbNdsk5GsaYyccj8b0pYmELB+kKVgJCUsYND99HgT+PshHYw6bL30ZZu+6rDjNKStwmn4lnxumUtlMo1JN68qL7aZp5WKop2XJap1DKTZbD7nMND2Ls+d0skWqMsuWXTuNKxIKJEGp6OmDpENOVyIvRRakicWRBie5gnhki5xlDPkoEAvGjvFTBvkABLZ77n9hZP8zEA46WQys+IFZrz9A85MnQVQuBeD/opNmDbhl19a/iuuxdSw0ZTq7bIGGxOh8LJyLAWDvfwceE+O3BgC6EtWxU5fKO14S/JFGQBISljIGRt8GkOJRmR1EdQjbPf9LGNzpiELik0vWbJ+ssueKJMyYICn8EIpPmzlfJlnGJ6dbSOoySRY7spH1I5e1C9lREdme85Hzla+H02iHxr6MvwIM9TL6kOwoY1NIngo62R9R4UNRxl0Xenn+AlJeWzoZZNnixSHbUsZH53tU6bQVQslHdpQ0e7ryGefGIR9CvH9pkY/a8RCV7yCEfADA5P+2yEchQPZEQz60dpIP0yfEZgAAIABJREFUnZ3OR+caaAB/eD3w8IWWjkwQz0Jj5lIiGonkMKFPkUZAEhKWOIg2rUJj6NcAguY6NKc34NGvnYDGprsUi8a7OxKi1FmskH7ERGmrkalGQ2R9m5g2du3PYjXqwY2OqHSLIcKgsrdNXlTmNvaMTiFJZ3RJpcjq2JeRrFsgGKSQL+pzPsx6DPHgbG38k+Elg7AjH8SUr/iLd2D8qR9EBHwb1dHTRTeG6SKA5qePhsBVAMKnEP3xxcCW76mT/lgLz3W6Vj4zPkQV2OcLwNoXIg7ED1AdOVUIMRfJYUKfYWnc2QkJCVoQze6PRvPnQNjbZRtb78PGrx6PxuR9vSchClm+XgpfDv5KIyIuZR2ZJRnh/NnYqNRL6Amsp17ljDQiA+HonLqSDrlcUcbWQ0ES2FgmQqKVOZIP7vOoSEwE8rHgY/Tgv8XEMz+F4NRC4AZURo9bKrsi0dz0kaiIq0LbXwDA1M+Au04CqK4hBBoCYk1GhL0uq8cQGFEF9vkisPYFiAPxfVRHXpBIyLaJREASErYRUH3qeYC4FIFTK+sbbsHGC56NZu3R6CTExkfnH2tiovCVlXH+bHTLICI25VxsrS6yX4Ma/dLia8gJSxA0tjakQ+lXRQrkMrm8YEcK+aI+JzPrklKvSApMxKJc8jH8hOdi1QsuaCWhYViPKo4QYmxdqKNugOYmD0alcg2AVVEc3rI7UN+gIQca8iGf2/qwtpN8cGViANj3i8Da0xAJ30N19C8TCdn20C/dUUJCQgRQY/pdIHw01E/9od9g4zefg+bMxnJIyKIju5EKK3IheD3bGLLPXJknEQEzuhCTjCj1i+XOjb2LgY4wmEwcyEZHpGIpDqSDLdeVZc5diEdBbiIe2UIFcTHKukw+hnY7HqtOvwSiGrb0AcAcmjhODI39KtRRN0CzW/dHtfpjAGuDndU3AHedDMzcoicAZYx+OJMRhnxkzytD7ZGQUxAJl6A6+pJEQrYtJAKSkLANgYiARu1rAF4a6mv+wZuw6cLnRiEhizacjsgnyVbkxdFXvsjeZ05fFMuErKMoU/o06Kj05M9pZaOATJgcTDmQ8sTFUBKrCAcjdiYdDuVBxKN9rPKfl1uSD4ZEdJt8DO50OFa/+Hsx3vUBQLxcDIx+NYKj0kE0sxcazWsB7BTsrLGlNe2qdlPbeTZQVjGUODA+dHY6HyZdMQTs9yVg++chEi5CdfSvEgnZdpAISELCNgYiGkKjdjmAp4f6apGQ56A5s8mZhCzqIJ8sswTDkoRYyRR1srHXyVX+dTF8yzkdlR5jYFLrGQyEpJCEW/owkQobHW/iIdspiAMbQ0EWCro6oqGNXTb5OAKrX/zdOOSD8DExOHZWuKPyQTSzJxrNHwPYNdhZYwtw9/OB6V+3ncvBssdCU6azyxZoSIyVD8PoR/a4MgTs91Vg+5MRCRe1R0KWzDthEtRIBCQhYRsE0aMTaI7+FEQHhPrqBxKit5NkJn+sroM8VybciIiNjqpV5nzp9LOFNsSkSygm7TashBFxZj6kQ9ZhyYUd8WBjWhMShixo7M0EhaxIS1+Qj1ZieboQohnDWZkgmt4VDVwLYI9gZ81p4O5TgamfZgKAP/YlDrnz0NEPC/Ihn4sh4EnfANY8C5Hw7TYJ6ftrJUGPfuiPEhISSgDR1h3QqP4UgdvzAsD8gzdi44XPAc1sNpKQRZnmPHNsPXqhIjhaPSYBL5GIyCJZL+qoh4qQ6GxMigo7lTsldSArLWuHSsLByL1IR+a8QAqK/7gRD6OczD40hEHlz9pOq6MgHzsfidWn/08s8vEjVEdPXgpTa4imdkJDXIsIbSqaNeCe04GtP8oEkAMuHGjIh3yu86HTtfJp8KEqqwwBT7oAWPNMRMKF7elYiYQsYSQCkpCwDaM9T/nniLBIMhoJacv0ZEI9GmIkJnlzM7Fh9R3kuTIDEclXhbHXxNDpqvza2nYTBj6iJRtMmVLfh5hEIh4qeYEoZOUm8mIlY8iHzk6jI7/hvBTyIXADKjMnCLFmS7izckG0dS3qlR9DiP3Dnc0B97wE2HKFJFcc+45+2Pqw8mkx+qErE8PAARcAa05EJFyA6ujLEglZuuiH7ighIaFEtPaox9UAxkN91R+6GRu/fSqaUw8qCIWBhGSOzWRCTUKsZHkXep9sfJ0fRp4rE4Zypt46Pc6XTtcmRg/BJvRaRUtbR3KiIgTaWB7Eoygnrb6NrDBaYUk+7EZCVOTjL7D69EtjjXzciWrjKCFWbojhrEwQbV6D5uA1IBwY7qwO/PmvgU3/I8llvYWDSKMfvsQh68PLLnNcGQOe/HVg9TMQCV9FdfRvEglZmuinPikhIaEk0Hzt6RB0OYDgfTIbG+/Gxm8/H41Nf1QQCgUJyekgr8P6ySs4jXxoiYVUP8YHK8/60dkUyplREYVvTuw94uHSujO6LuYsjzCRC0t9JYlg5DbkpKijIB6K5MqaeLTPuREKlR/lSIVWRta2ZvJByjUhg7s8BatfdEks8rEO1coJQozcGcNZmSB6dAKNkasBHB7urAHc+ypg07cdEnmhKdPZZQs8R1A6546jHzofHRISvEfKgvMvozr2qkRClh4SAUlIWCageu2lAH0thq/m1IPY+K1TUX/4ZjsSIulkVexGNEoaDTHos3LWl6KsUG5JRorV0+uabFx8lAkDKdGSDUWZDeko+laQDtmPjpS4Eo+sXKXPERItSSFrW+Nicw35GH78s7DdqV+DGFyBcIgtaDSOEcPjv4vgrFQQ0RgatasAHB3BG3Dv64GNX4lDHLR22XOH0Q+dD2td1XHGR3UMePI3gdVPQxzQf6M69upEQpYWEgFJSFhGoMb020H4RBRfs1uw6aIXY27dTxQEI9O8qEY+bEmDjoRw/m18yoU2oxuORKQglpUdyYiq2KoltyUnJUNLGJTKDvYyt+AMdMRC60MqMxKPvNBMKBxkHPmwtHUhHyP7vxTbnfxZoDKICJgGiZPF4OhPYjgrE23ycRmA4yN4A+57M/DIFzqn2SJZdfFY2OkpfRqIg68PZ5+Mj+oYcOC3gVXHIg7oC20SEslfQtlIv1RCwjIDzU99CEK8N4qv+gw2f/eVmL3zfzQEQzAy5lxWLYyqML64mFlZwV4nZ0YnVHVzKcu7LtgoY6t8qWJqdJwQ0ivYkAoHO7LQ0Y9iaEgH59NALnRlwcQjK9fqEm+vk2U/u0w+mO16F3TGjngLVh7/YURKFWZAzVPF4PiVMZyVida7lGa+C1CcvWPvfyew4fy2czmY4lg3+mFNRkJHPxzJB1umIFGEFgk56DvAqmMQB4mELCWkXykhYRmC5qfOgRBnx3HWwJYr34Laza2ne147ZGWO7WTxRkOK8gAikjdXjmYYyQgXR+eTKbNq3LvVA1gQEyuyIZXxNgGkw1QeSjyyxSZCovGttNcSDS4GKewEVj7twxg78i2IhCVGPmrfARDnFd7r3wc8lBl0tkreNeTD14e1neTDyy57biAx1RXAwRcB2x2FOBCfR3XkdYmE9D/SL5SQsExB81MfgRDvjuVv6qcfxuTPzgFACoKhICGczIpc+I2GaP3m5AYiorRjYtmUs3pFRuFESDQ63W78WU5hIiakOTUQDpUKa+JBSryJR7aM9cPJyd5eJ8sRDWJ1RHUYEyf9O0b2fwkiYQZUOVUMjiwF8lFBo/ZNAC+K4vDBc1p/nQDgjwvnnqMftj6sfDqOfuh8mHSrK4GDvwNs9xTEgfh3VEfekEhIfyP9OgkJyxixScjsHy7B5u//LWh+ym6b3syxlphwetn/RSEcKrkdETGVq3iF0odSt6jINuQ+rXusHsFELCxteAKgYyUa0pCRmYgJSyDasijEIyvXEo9FoZUuSzSK/lSjI5WxHbDqtAsw+NhYiSCmQZUXLCHy8SUAfx3F4cPnAg9kZrp2jTgwPqztJB9edgYfKt2BiTYJ+QtEwr+hOvp3iYT0L9Ivk5CwzEHz0x+FwLti+as/9Btsuvh0NLasUxAM5qm+buQidDQkq2vjV6VviqG1VZRrdFRFWoYilCUWfkqGhpSo+YWebOREGsKh1ZN1dKREPgghHkY58boKe6spVwz56Gyzu8PB2O6F30J15WMRCUuJfACN6f8CxJlRHG44v7XuIxdEcVwoE5oynV22wHMEpXMecfTDhQhVJ4BDLwEmwnc8bvv/NAZG35JISH8i/SoJCQnRSUhz6kFsuvgMzD/wS80oh2BknJ4k4/xl/yfn40rSovEr6+fK7IkIZ6bVMeipiq2Eita+7E6A5R0FoYKduBIOSe5NOjKy7hOPRWHBvy0hYW3Vi81H9nkRJk7+d4jBMUTCEiMftc8AeFMUh49+EbjvTRlGiDjEQWuXPXcY/fD1YfQpzHqqsoEJ4ND/ASYORRQQPiUGx94Wx1lCTCQCkpCQACA+CaHGLLZc8SbM3NJ69YjVupDMcZmjIU7yokt1HM7WV0elJ8n9Rzksmn/bHkJFBmwUbIssCEfu1EQ6VD5VhED+x4F4sDYm4pGVK3wXp1dxMmbK1YKeqGD8mPdhxVHvQsR0YBIkThWDoz+K5bBM0Pz0JyDw9ijONn4VWPe6PPkA/JJ+LwLAjDo4ExqDD6syj9GP7Hl1Ajjsu8DEIYiCREL6EomAJCQkdECN2rtB9JGYPqd+eS4mr30/QA39upC2TBYFjYaodH3kRZdFpVhkhNPT6TLl1o17T4ZADCo6G1vCIcmsSQenXBbxkBXYkQtLQqIgNKqpWWJwHNs97wsY3ivOZk9tbECTThZDK66P6bQsxNySHJu/A9z7SoAansm7hoD4+tDplkEcsj6c7SQfg6uAw/4HWHkQooDwL2Jw7P9n787jJKvq+/+/PnWruruqe3oWBhhhBmbYQRhZxhEBB5hFJO67iTFqjOZrlC8uMYQQvgjEIIJLjFFjjBqDa4gahZEYfzDDpgFEQpCMBAFZhplh1p7u6q3qfn5/VPV0V/W9VffeOrV09+f5eOBU3XvO555Burvefc659yP1G5pWsQBijKmgheE/BP0HIOWq5tjjP2Xfxj/Ez+8MDg31AkPM2ZDK4w6CSPW58vvp56anhsAgE948Xtta7SO0adUPgMA8ESGYhIaNWv1jhI7wNlrnfEWT8OARcK41sx6lg9NyVPlPb+ExLHjNt0kvPgmHnsBLXSDS84jLos2ixeG/QPVj9VtGMPAjePL3Qcejf+iueB9j9iNqjcj9qmok6jf1vcMQk14Iq34I81bihPIJyeQucVPMNMoCiDFmGi0MvQrkO0CPq5r+/q3s+9HbGXvmrhpBwtFsSPl15TGhZjBoIIgEn3cQRiK0D23SyHf3pH2jhIqI/SKFjapzNQPHlOOhoaP6j5Dg0tTgEda+kVkPJsNHz4lvof+lf4N0zZv+d0tKeJCUXiDSu81d0ebRYv4DKJ92Umz/T+C3bwIdS/6huxmzH80ODrVqRGob9rqqRmZROYScghOqH5dM76VuiplGWAAxxgTS8eE1iP4bsMBZUb/A4B1XMnTvp0H9GuEi2WxI/bYRQkFYEKl3rnxs+mxGcFIIDTRB1wo4HqpeMIlTy5UaAWLaqYhhY9rbqKGj4k1A6AiqVSdc1DrXcPCAkBmOoEAyfdZjop1kcsxb9ymyp/wBjm3CG3m1yKIB14WbQYtDf4LK3zkpNnQbPPFG8PPl4lMvVH3hsHOzYPYjaY1pbUMCTNfiUgjpez5OqP6VZHovd1PMJGUBxBgTSkcHV+Kl/h1Y4rLu2BM/Zd/NNZZkgfPZkMrjDoNIlPNBheKEkfCu9ftFaNesHwShWSLKTEmtWZEIISU8nExvEGm2o7pNWIgIPaeVlw6rNfVc5FkPJsNHQHBJH3QS8199A+mDTsCxG/GybxWRMdeFm6G8vPQfnRTL3w2Pvyo4fFS/j/qhO1a/qScanUFxOPvRUBCqMYPStRheeBP0nYgTqldJpvcKN8VMEhZAjDE1qQ4vp6D/gXCMy7pTl2TB9CARGkKmvI4eOMKOxwwiIecC+4X1DysWN5CEdw9t05FCwkSk2Y2q865CR8WpSOGi1jkNP1fjWjX3elR1qvUMkOzKP2TeuuuQdBbHPo+XvUhEfNeFm0ELw78H+s+42Ns2fC88/kooTpn0aWVwqHgfY/YjaXCoW7NGcIhSAwid/Zj6vmsxvPBm6HMUpEWuEC97lZtiJq5O/9FkjOkAqgOLKab/FVjjtLBfYPDOqxm655NEWpI17XjVsalNY81uRAgiYdcJOhd0PvgydcNI3ZpBwvpHbO9EhFmOaU1izozUDikxQkf5eK3ZjopDkc7VCB41jgeGjHqzHgFtpauf/gv+jp4TXo9zM+yDmxbyrwP+BRfhY+S/4PGXQWHflAtUXzDkdcV7R0uvarVNOvsReyxNnv2YquuQ8kzI8Tghcpl42b92U8zEYQHEGBOJqqYpjnwB9I9c1x7f+p/s2/huinseDQ8RAUEhNFhEnaVwEUSSnA++VHinWoEiyXfxGn0a/aFQM0NECRgh7euHlZDAUeu6tUJHvfOOg0fdQFI1kFozJF3LzqX/ZV/AW7Acx8ZA3i3p7NddF24WLQy9AuRfga6Gi40+XAof4zunXKD6gjXeu5j9qFWjVtt2BweXMyjdh5ZDyHE4IXKpeNmPuylmorIAYoyJRYv5/0vpDjLObtMLoON5Bm+/nPz9XwS0xgxHtGVZ1U2jLKWqG0RC+k0bQ9j5oDZh46vXMaBOeN8OpzXfhgSI6YGj4m0DoaNmndD+Wruvk0CiNWdIpKuPvjV/Re60d9OE//O3obxWMrmfuy7cLKojx1DUX4D2Oym4ZTkUdiQLDhXvHc1+NBQcyjUS9atTI3bNBDW6lsCLboZeRyuDhUvEy33CTTETxUz58WSM6SA6PvJSxP8OLu+QVTb25CYGbvk/FPc9WWeGIyAk1FuWFdStbh+3syI129SqF9gnSgqpc6lm/xQICALxZ0mCp0JqBomq43XbxpntqHgTI3hUnYt8d6ty41ozJE2c9QDhflK8WiT3tPvizaOF/L8Cr3NWsLAdBm+DwU2lO2CNPlV1wZDX085JjXO1+k090WiIifmhP2mNujUbmEHpeR6svhl6j8YJ4cPi5T7lppipxwKIMSYR1ZHjKPg/QnA0Dz6l9ugA+zf9BcMPfhXQwBmOSLMhUY9H6hNxVqRe7YBjcQJJYLM4Ux8Jv+tP7VYzQNQTNX3UCy616rgIHXXPa93QUjd4hB2v6lgrqDR51gPg23jZd4rISDOKN4vq/kMoes8A6aZdZPRRGNwMg7eW/izsnjIAgl+3evajVo3IbcNex6wxrW1I+IhRU7sPQ150M/QehRPCB8XLfcZNMVOLBRBjTGKqexdQzHwH5KXNqD/2+H+w79/fi79/K1BrhqPxIFK3T1CDerMioTWC20w7Xe87dK1QUvNEO771hySGKDMk9RJPjMBRt1292Y7yH4GzFNXnqs7XDR7V1wq6zpRjTZ31AB+Ry0j1fFxk5n1U0EL+NcD3W3dFH4YfhP2bYP9tMHRXyPNBIn7ontZv4kWdD/1Ja8Su6XDpVex+EwRVhZ7DkBf9GHqX44RwsXi5z7opZsLMvO8qxpiOoqopCvkrEfkLHO8LgdJsyOBdV5P/5d+DXwicDQHC75ZVdThREAntF2NWJGG7um2DhPWP2S+xCFMkgU2iTK3UmiRpSugov6luE/ChyE3wKJ0Ius5E+1TPQvpeciXZU99Fk36MD4K+VdK9P2xG8VbQwvAfgP5T+wYwBkP/WZoZGbgN8veCFpMFh4r3jc5+dEJwwM3sh5beqwLZpaRevBFyR+KEcJF4uc+5KWaCWAAxxjih48NrEf0Gjh9aOKHw3H8z8JOLGd9a2gNbe79Hi4JIjetNbxNcp267gONxVlxFqZewyQFRckO0RuF9Is+KhPWJEjoqDgTMdlR3qBVKqBUwwvrUXm6FpMie8nb61lxFKntQ9cjdEHmIVOqNIt1bmnOB1tBC/k3Ad9o9jgP8Qdh/R3mGZBPkf0Xof6y1wketti5mUCKdcxhiEs0Clfqr6mQAUdDsMryzNkLuCJwQfZ94vZ93U8xUswBijHFGdXAJxdS3gPOadAWGH/wnBm+/HH94FxBvWdbkubA+049XvGxWGInbNuRcw8GkHao/tEdoE3auZuCYcixK6Ag6PLV9rWs1FDymnpvSPrNkFfM2fJrMkjOqR++QfAmv5+KZtt8jiOr+xRS97TRhVtaJ8ecmw8jAJhh9YvJcjQ/dLQ0OtWpEahv2OkGNqvcVsx865Vj2CLyzfwy5pTgh+l7xer/oppiZaib8eDLGzCDNXpIF4A/vYnDz5Qz/9z8BWidUxAsi1V3q9qt5PvjaYU3qtg1rH/F8za6ufxrUCA2hp6LMktQNEXHbRw8d0w6HhYta56IED5iy3Oog+tZcRXbl20Ga9VlaBkDfJencjU26QFtoYejfadL+NOdGHy8FkYFNpVAy8ayRqTMXDc04lGsk6lenRuyajdWYOktYEUTK5yS3HO/sjZA7HDf03ZLu/bKjYqbMAogxpil0fPg8RL9Fk5ZkAYxvvYfBzf+PsadvB+rNbiQIIvXOVZ+v2T9CGAmqF6VPrX5J2zVDlIAR0DbWrEikgBISOoI61pntSBo8ws4d+HAlKbIveBd953yUVHYhTXQfnrxRJPtEMy/SDqojR1H0/xvItXss8SgMPwT7boOBzbD/TigOxZypqH7vcPYjxkyFk9mPqnOhsx9Tj/WuwHvJzUjWVQiRd0k6+xVHxQwWQIwxTVRakuV9FfRlzbzO6KMbGbz9cgq7/gdoQRAJOh+7TYOBJORcYPNO/U5f/cEiQpuw8/X7xgsd9dqELrOqeS48eEw93rV8A/POvYr0IS+gqZRPkc5eIiKF5l6ofbQw9DvAt0DcPIywHXQcBu+FfZtKgWTwXvDHppwn+HXF+0ZnPxoPDi43nk99feDPibYKqor0HoW3ZiOSPQw35J2Szn7NUbE5r1N/LBljZglVBT//HlQ+CfQ17UJ+geGHbmDwrqvwB7cB4UuppgWRaeeC+9WqOe1t0jAS1Lf6UAPLsKJ0T/STIcLsRs0mUWZHYs2KxAgcUdtFne0IKhQheGSet5q+c6+ia9magAE6tQP0nZLu3djsC3UC1dETKBavA17R7rE4URyC/XeX7q61ZxPkHwL80rnAD/INhI8D7x0uvUo8loCN5zrZrvJY+Qur7xjSa25Gss/DAb88E/I1F8XmOgsgxpiWUB1eTlG/StM2qJevMz5E/r7PMXTPJ9GxQSBZEKnVb7Jv+PmKt3X2eSQJJIGH435Hb9VPgCjhIqR9aNdpJ6Z3anroqHs+fI/H1H7pg06k7yUfpfvYV9CC/1O+i1d8n8i8nc2+UKfR8eFzSOkqlHMpfR9a0OYhuTG+CwZuh723wr7NMPJY6XinBIdaNWLUrB86Jt5XhhTmHUvm3JuRrJPVwH55JuTrLorNZRZAjDEtU5oNGX4/yrU0eV22P7yb/C8+R/7+z6OjA0C9IDLlQNDLFoWR8LbRQkno6U76bh8QBuLPjkxPD3UDR3C30HBSq02tJVhRg4c3bxm9Z19G9uS3gnghA3ZmB/C+2bbRPClVTTGePx1P1qK6AeQcoKfd43Ji9EnYu6m0ZGvfZhjb0TmzH7Xa1ahZK3RUHtPJ9lPaybzjyZx/M9JzCA74IG+TdPabLorNVZ30I8kYM0eojhxD0f9n4MymX2t0gPwvPk/+/s/hD+8G6sxsBKWJuEuwooaRoLax2kedGmmoWcMiT4DUChpVb2tNgCRu39BsB1Q8QLD6/JS+qdwh9K7+ENnT3oOkW/KZd87OekSlqj0URs4EfwMia4FVQLrd42qcQn4L7L2tHErugsJAxenA1wfeN3H2I0agibLxXCcOhoQU+k+g6/ybkZ6DccAH3irp3LddFJuLLIAYY9pCVVP4wx9CuZoW/OZRxwYZfuDLDN33GfyhHUCUjec1gkh134D3gW3C2oW1rdcn+oFIp5qmbgoJDhqhXeMGjrCDjYaOcgMNOz91xmP+CnpXf5Cek3+/VcHDZj0SUt3dT7H7PFTWkZL1qJ7U7jE5oQXY/4tSGNm7GQbuAX+0fG5qu4kXMfePBLZtbAYldPbjQOiYOKYBxyrbSf8JdK3diPQsxgEf+F1J577rothcYwHEGNNW5b0hfwO8qiXXKwwz/MBXGLrv0/j7twJRgkh1g7A2wedD29RqG3KuVr/Qw6E1WvEjICQpBByOFTSqzicOHGFjqfshq8ZsR1X/9MEr6X3Rh+k54XWtWGo14cbyrMeOVl1wNivf0W8t+BtA1gKOHrfdZsU8DPysFEZ23wZDD4L6ToKDm9mP+BvPg/eFTB5LzT+JrnU3uQohBUohxEJ+TBZAjDEdQQtDrwD5W2B5S65XHGV0y/fI3/8FxrfdB0Td6xHwbbNeGAk4FieQTDsU5Tt33D0icevVndGI2TxKvQZmRaKEjtizHdVtqs51LX0JvWf+KV0r1tPCH7ePgl4k6d5bWnXBuUh15Bj84lpUNgBrgUXtHpMT43tg7x2lJVt7NkP+0YTBAZp+292KIKIBxyrbTd2gLgtOpnvdTUjPQThQAN4s6dz3XBSbKyyAGGM6Rmkddv4KRD4EdLXquuPP3kv+F59n9JHvo8XS/fVrzYpA/b0igTVC2tVsW+O4k43mzf4pEDOoVPcJ7V6rbtLAEdiuTuioqiPpLD3Hv57s6X9MZskZNQbpXB6Rj5HquV5Exuo3N66UN7SfWtrQLutA1zDjHn4YYuTp0uzIntthz20wsm3yXMfMfmjAMSa/LiuO6YFjqQWn0L3hJqTbSXYcozQTYiEkIgsgxsxApfva+2cCY2hxN+neW2fTh47yffv/jtJvFlvGH9rO8AP/SP6//gF/aDsQdVYkqFFAu5BmsQNJvXNhpzvhO37QcqcEfarPRZ4RSRqOkxCvAAAgAElEQVQ6qttVnfcWHkvuBe+i5+S3NfvJ5UG+hycfFMk+2eoLm+lUtau8oX0dIuuB1cyKDe3A0JbSzMiezbD7DijsKx2PGj4C2wa/r7vk6kDA0IBjEdoppBa9gJ4NNyHdTu7IPAb6Rkn3/tBFsdmuE34cGWMi0sLQy8rLlI6pOrUb5Wuks5eLSL4dY2sGLeTfAlwHLG3pdYtjjP76+ww/8I+MPXMXEz8VXYWRWs2C2kbqE6F/g01jizX5EaVx3LBRPh6tfYTQUV0vlaH76JeTO+3ddB15Hi3/kao8AqmLJNPzk9Ze2MShqn0U8+eVNrSzFmVlu8fkhBZh/y9h9ybYfTvs/Tn4I5UBpJHwUT6W5La7U4NIxbNBqvqjIItOJXvBTUjX/IT/IiqMgb5e0r03uSg2m1kAMWaG0PH8JxE+VLORyEOkePls+k2oqvZRyF+CyAdo5pPUQxT3PMbwr77ByK9uoDjw1IHjQVtBkoaRWk1r9ak43InLrybESiKT7Wt2qxE4Ak+HpZC4oQNILzqOnhPfTHblO0j1OXnCclyDCFeTyn5mNs18zhWq+w8pbWjXiQ3ty9s9Jif8kVII2b0Zdm2G/Q+AX5w8HyOMuLjtbpwN6qlFp5F92U1IV3+D/xKAUgh5raR7N7ooNltZADFmBtDC0B+B/EPE5k/ipc4X6XmsqYNqMdWhJRRTV4L+Ie1YzqA+Y0/dwcivvsnII9+ffMr6gf+pEjrjESOQhNWOci5OnVbTwJd124adjzUjkjB0pPoOo+eEN9Bz0pvJHHpanUE1zRjKF0kXrhbpt2d6zBKqI0dRLK6FAxvandyeqe3G98GeO8szJJth/68nz0VYejX1dezb7lb014Bj09t5i1eRveDf3IUQ9V8tmT67GUSITvqRZIwJoKo5isPbiffb/63lEPJIs8bVLqqjJ1EsXkOLbtsbOIaxQUZ+/X1GHrqhtERLfSDpHbCi7jCPGSYSfndv9IdC3MmOWJ3CwkbNGhEDR0D9VM9Cuo99NT3PfwtdS88BSUUcqHM+6A14qctn0+ymmU5VYXxoJV5q/ZQN7S2f+W2KkW2TYWTnJhgp3Qa98muxwdvuBgYSDQ4pVTVRJXXwi8i97PuuQshIOYTYEskAFkCM6XBayH8D+L0EXXdQLK6T7nkPuR5TJ9Dx4TWIXksLnqZeiz+0ndFHb2bk1z9g/OnbD9xFC2IGkpodgvsF90/I9U+DRElksl+i5VcTJ+PMilS1la55dB/1MnpOfBNdKzYgXstuxhbmhxSLl0r3vIfbPRDTeqqapjByZmnviG6gtKG97f9ROjH0v6WlWjs3we47YXxPhNAx8brOrEbYEq2qmlPbTRzzDjmT3IXfRzLzXPwtR9DUKyXT81MXxWYTCyDGdDgt5O8FViXsvhNfN0hX7wMux9QpVBWKw29AuQaZtjG/9eMZ2cfoYz9m5JEfMvbEf6DjQwfOJXruR5Rd53GWYUVs3zRxll5FajSZHpIGDgBvwdF0H30h3Ue/jMzSczohdADcjnKpZHJ3t3sgpnOUZsTza1DZMGVDe9um5pxRH/b/Fzy3Cd15O7r751DIO73tbq09IAcCSPlY+tCzyF34PSTjZPIpj8orJZO91UWx2cICiDEdTFXTFIf30NgU/F58LpCu3D2uxtVpSv+eRt6C+pchckK7xwOghWHGHv8po4/exOhjP8HPb6843/hdsCJ+++707/KRZ0rqhI1aJ6pDRypN1+Hn0H3UBXQdfSHpg46LOohWuB31P2bLNkwUqgOLKabPK+0f0fXAUe0ekxP+KLrnHvS5zbBjE/6eX4JfqDmrEWmJFgGzJej0YwrekrPp/Z3vIZleF3+jPCovl0x2k4tis0Gn/2gyZk7T8eFzEL3DQaUBNPVyyWTvbLxW51LVFMXh1yFcTofd6rKw82HGnriVsd/eytjTdx7YxD6hked+TM8kDr61xy2RdMlVUJFGlmGF9PUWHE3X0rPpWrGB7hUbkG4na7xd8YGb8LlGunI/b/dgzMylOnwERdaDrgPWA4e0e0xOjA+gu+7G33Ebuv02/IEtIUuuJmc+QpdcVQSR4KVcE3+mn/cSel/+r0jayXMl86hcKJns7S6KzXQWQIzpYFoc/n+oXumo3JyZBi4tzcq/CpErUE5v93im8QuMP3sPo0/cxtgTtzK+7V7wCxVNImeJOCu02rYWK3jtlZNlWAFLqpAU6UUn0nXEOWSWnk3X0rPbdbvcegqgN+ClrxPptj0exilVhbHBk0l7a1E2gK4B6ajknZSObEd3bMbfvhl/x2Z08Mlpsx+1ng0StERr+r6Q8nKsw9bQ9/IbXYaQC2b7LwOjsABiTAfTQv4O4ByHJUcoPSRpztyfvPzwxsuBs9o9ljA6tp/xbfczvvUexrfey/i2+/CHtgW2jfwwwjjtGuje8MRH1AI1ZkXE6yJ9yKlklp5F19JzyBz+4nY8jTyOPMqXSXOdSO7pdg/GzA2lDe3Dq0nJWlTXUfqe2BEbnhql+3+Dv/12its34W/bjI7scrpBPX34+fS9/LuuQshgeSZkTocQCyDGdKjy7Xf34f6ZF2Ogb5Z07w8c1+1oOpZfTYqLgDcxA37oFgeeYvzZexl/9j4KOx6iuPvXFPc/Fdre2eqrttyHd3r/sDKpnoWkDzmV9KEryRy8kvQhp5A+6HhIZRq8cEtsQ+TvSI1/XqR/d7sHY+Y2Vc1RGD0H/HWkWI9yKrNkQ7u/9yGKz96G/+wmCtt/BuNDdTeeBy/RmmyXWbqOvld8B0lnXYxyEOWCuXyTCQsgxnSo8m/uf9yk8gXgbZLOfbtJ9TuW6uASfO89qL4XWNLu8cShowMUdv+awnMPU9zzCIXnfkVh168pDjxJvU/+bb8TltZ8O4109eH1r8BbeDSZg08mfegLSB+yEq9/WdOG2ER3g3wBr+e79uRy06lU9y2imDkPZAOqaxE66u4MifljFHfeR3HrJorP3EbhufvAH68ZOiYfhqgVxzLL1jPvFd9B0j0OBiYDqF4gmbm578sCiDEdSsfzn0T4UBMv4YO8U9LZrzfxGh2rfIexNwAX0+ZniTRKx4coDjxJcd9T+PufoTj4DP6+Jynuf4bi/qfx9z+FFkbaPcwK4nWTyi4m1X8E3sKjSM9fgbdgBd7Co/AWHEUqd3C7h9ioQZAb8ItfkK6+B9s9GGPiUs0vpShrQTdQ2tA+o35hE0bHByluu4vC1nIg2fWrydmQqqVXQftCMkdsYN4rv4N43Q5GIwOlW+XP3rtUhrEAYkyH0mL+l+Up8WbyEX2veL1favJ1OpqODa0ixftA3sBseepwFT//HH5+B/7IHnRk3+Sfo3vR0b34I3vRkb3o2BA6uq+irxbyFQ9YRIvlp4ILqe4FIIJ0LwBJkeruh5SHdM1D0uWQkTuYVO+hpHKLS+97D+20u1C5IzwI+gVSuRtEZLB+B2NmBtXRk/CLa1HWAecBC9o8JCd0+DkKz2xmfOsmCk9vprjv8cmlVzB9X4hC1/IL6H/lt8HJM4NkAN9fJ1299zkoNmNYADGmA5Xv7b6dVq3HFS4WL/fZllyrg6lqH8WR14D/dpC1zIb10KYVRoAbUb4wl9d0m7lDVVOMD6/Ck/VTNrS7WJfUdv7A44w/vYnxpzdTeHoT/tBz04KIKnStuJD5r/ymoxDCXnxdJ12997soNhNYADGmA2kh/ybgOy29qHCJeLlPtPSaHUx1+Ah8/gBf394JT1k3HccH+QnwLbyeH4jIQLsHZEy7qGoPhZGzQDcgrAVWMSt+gaMUd/2K8d/eytjTmxl/6k50fPBAEOk66nfof+U3EAshsVkAMaYDaWH470Hf0/ILi1whXvaqll+3w+l4/kxE3gn6BmBRu8dj2upuhG+RKn5XZN6Odg/GmE6kumcBxa7zQNahuh6RE9o9Jif8AuPb7mX8t7cx9uRtjD97L10rLqT/Ff/kKoTsLi3H6nvARbFOZgHEmA6khfxvgKPac3E+IZncJW25docr3Ud/ZA2irwdeBSxt95hMC4g8BHyLFN8UyT7R7uEYM9OoDh1GMbUW/A3l5a2z4nunjg8x/vTdSPd8MoetdlV2ZzmEzOqbV1gAMabDqA4vp6iPt3cQfJZ09mIR+xYRRlVhfHg1wuuB18yaW1YaKN2m+m6EH5HybhLp3tLuARkzm6iOHIdfXI/KxIZ2m1mutJOif7509z3U7oE0i326MKbDaGH4D0H/MVFnfxhSTh6SBMiX8Hr+2EJINDq6/yTS6degeiGl2/q6foCkaa7dwC3Aj/DGbhFZsLfdAzJmLihtaM+fjidrUd0Achbg5JHjM9xOisVzpXvew+0eSDPYJwtjOowW8t8C3hK7455/gr3fgSP/BVK9rkbzdbzcO0XEd1RwTijdTSt/HiobSMl6VE9q95hMAJGH8PUmkJtJ99xt/50b036q2lXa0O5vQGRiQ/tc/YXODjzvfJHuWRdCLIAY00FUFYrD24FDYnd+6h2w77uQOwuO/B54zp6z8G287NtEpOCq4FyjOrSEYmp9ef3zeuCwdo9pDvKB+1HuRHQznn+nyLyd7R6UMaY2Ve2nmF8zh3+hswPPO3e2LQW1AGJMB9HR/Sfjef+doCdsOQrGt5e+qrOrYPkPwXP2nKgf4GXfLCJj9ZuaelSHj6CoZ6K8CGE1pd/wzYp76HeQMeAeVG8H3Uy69257MKAxM5/q4BKK3lrw15V/oXNEu8fUAtvwUueK9DzS7oG4YgHEmA6ixfwHUD4du+Pow/DIqspj2RfA8psgfZCj0clGvJ7Xi8iIo4KmTFXTjOdX4rEa5cUoqxE5jllxH/2WGAEeAnkA8X+JLw+Qzt5ngdmY2U915JjSE9plA6UN7YvbPKRm2YqXOn+2hBALIMZ0EC3kfwS8InbH5z4H2/5s+vHuE+GojZA+tPHBldyKl32liORdFTTBVHf3U8iuIqWnovp8kJNBTgB1trZuhtoJ+gAqDyDyXxQLD9DVt8WWCBpjyhvaV5ae0C7rQNcwuza0by3PhDza7oE0ygKIMR1CVdMU87tA4n/AfOINMLCx9Lr6q7r7OFhxM2QOb3yQJXfiZS+05SztoZo/jELqZFL+SaicCHoypWfGLGn32BzaCjwK+hiS+g2qj+LzGJnCYyL9tm/DGBNJeUP76vKG9vXAamb+hvanyyHksXYPpBEWQIzpEDqePwvhrvgdC/DwUigOVB6f+tXdtRxW/Bi6jmxojFPcgzd6gchCu1Vph1DVLhhdSkGXIixHOAJlGbC09FqX0P6lCYMoWxF2AjtBtqH+NlI8i/I0Xvox6HrMlvkZY5qhfIfCNaisI8V6lJXtHlMiqg+Tzp02k5eZWgAxpkNocfgvUb06dsf8z+HRteHnJ77Ku5bB8puh+5hkA5xe935ShQ0i/bvdFDStoLpnAfQsYNxfgKQWILoIZAGiC/D1IJDSbwdFqu5goDkqN8qPgORRzQNjpGQ/6BjoIFBAZQB0AJ9tZGQHZHdasDDGdBLV/YeUNrTLOtC1lGaTZwbVv5ZM72XtHkZSFkCM6RBayG8G1sTuuP1a2HZl6XXYV/TE8cwSWL4Rek5IMsSAuvIQqeI6kb4dbgoaY4wx7aE6chTFYjmQsJYkt8Rvnd142YNn6vOLLIAY0wFUNUdxeA/QFbvzoxfA0B2Vx2oFkfTBsOIm6Dkl9qUCKVtIs04kt9VNQWOMMaa9VBXGhlaSTk3d0N7X7nFV8PWF0tV7X7uHkYQFEGM6gI6PvBTx/z12Rz8P/304MBp8PuwrPL2wFEKyp8W+ZIjH8OR8keyTrgoaY4wxnUJV0xSGV5cfhriB0ob2+L80dDuqV0u694ftHUMydo95YzqCvy5Rt6G7QUdBQ86HHS/sgccvLO0fceMoinqH6oijDSbGGGNM5xCRgmRyd4uXvUrSuZfgZRei/oUo1yM8ALR+KZSmZuzdKC2AGNMJUqxP1G9w0+RrJThwhB0vDMBjr5q+fCu5Iyj6m1VHHW0wMcYYYzqTiOQl03eLZHIfES93Gl7hUOCNIF9CacVzOgqk/S0tuE5T2BIsY9pMdd8iipnnSPILgS1nw8gvg8/V25A+IZWDI78N85JloGD6ckn3bnRY0BhjjJkxVIePoMh60IkN7Y6f1SQbJZ19uduarWMBxJg200L+dcC/xu5Y2AP/vQzwo4eNsHPSDUd+E/ovjD2MmpTrQX5MuufOmXy/cmM6Wfkhpi8FeRcix6G6GNiC6t2ki5+2hzca0346uv8k0t56lA2lDe0JHjo8aQRfXzJTN6CDBRBj2k4Lw18A/T+xO+79ATz+e5XH4gaRihDSBUd8Fea/NvZQIhgEfgL6Yzy5RST3dDMuYsxco4X8a4Dv12iyF/Qjku79cqvGZIypTVXTjA+vwpO15Q3tZxF9Q7sP8nZJZ29o4hCbzgKIMW2m4/lfIxwXu+NTH4Cd/0DgBo+kQUQ8WPZlWPDm2MOJReQhfL0F5Oby7EihuRc0ZnbRsfxqUlwLnBepg+h7xev9YlMHZYxJRFVzFEbPAn8DwlrgdIKWZStbgHdJJnd3q8fomgUQY9pINb+UIk8l6vzwqTDyv1O+iquCSNTlV9XHxYPD/xYWvSPRsOKTAdCf2uyIMfWV1pXrtcBbYnb18bxTRLofbsa4jDHulPeGrkFYjq8HkUoN4+utpLP3zNQHD1azAGJMG2lh+B2gX43dcexpeOj4ymMC7mZDBA7/NBz0nthDa1hpduSm8t6Ru212xBhQ3bOAQvflCH8C9CSrIl+WdPbdTgdmjDEJWAAxpo20kP9n4Pdjd9x1A/z2j4PPOQsiAs/7azj44tjDc8dmR8zcpqpd+MPvQbkCWNxgud2Szh3kYlzGGNMICyDGtJEW8s+S5NZ8j/8R7P5W6XXNYOEgiDzvo3DIn8UZXfMID5T2jqRsdsTMeuUN5tcB7h7w6Y0uFFm411k9Y4xJwAKIMW2iOnoSxeKvEnV+8GgY31Z5LOirOe7+kLDjh14CS66IPLzWmJgdkR/hFW8R6dtWv48xnU/H8meS4jrgHOfFPTlSJPuk87rGGBNDut0DMGbO8otrE/Ub/p/p4QMmM4YEHRMqQkhQ21rHt18LOgrP+1jAyXbRfuB1oK+jmEKLeZsdMTOa6vByinoN8TeYG2PMjBL/ycvGGDeUDYn67d9cCgoBq6vKdYOPqTAtPITVCTq+4zPwzIdqXLjNlFMR+XNEN1Mcfk4L+e9oYfgdqoOOnz5rjFuqexboeP6TFPXXWPgwxswBnfKrTGPmFFVNURzeBSyI3fnRN8PemyqPxVlSFbYsK2qdQz4Mz7u61gg7z4G9I/Ij0tmfz5bbGJqZrbzB/E9QLqPxDebR2BIsY0wHsABiTBuUHyL2n/E7FuGBZVDcF3zeRRCJUqP3bFj+TUgfHDbSTrYb+CnIj23viGkHVYXisPsN5lFYADHGdABbgmVMO3iyPlG//P1Q2Bdv+VXY8QPLrBIsyxq6C7ashK1/BsP317hwR1oEvAn0qxRTz2ox/0st5P9VC/nXtXtgZvbTsfyZFId/BnyfVocPY4zpEDYDYkwbaCH//wHxN6Fv/QQ8c2XlsUQPGgw7nnBZVuZQmPdSmLcB5q0Db2FIp453O17q3SI9j7R7IGZ2UR05hqL/MeBNbR2IzYAYYzqABRBjWkxVeygO7yHJ04y3vAL23xZ8zkUQibssK+iceJBdBfMvhP4LoGdlnQKdRgZQeb1ken7a7pGYmW/KE8zfD3S1ezx4hYNF+ne2exjGmLltJn0qMGZW0PGR9Yj/H7E7+sNw/1LwR+KHjVrnQoOIi6epU5od6ZtxsyO78fwTRfp2tHsgZmYqbzB/P8rlJLnZRLN4I/NFFg20exjGmLnNngNiTMsV1yXK/oP/WQofEP85HhPnoh6f2BtSHUTiXleBse2w559L/0gacmeWwkj/Szt5dmQRRbkOeHu7B2JmlvIG8zdRHP4YtsfDGGMCdeRPfmNmMy3k7wVWxe749Edh6/UTVSrPOd0HEnbc0YzIVBOzI/0vg7514PWHdGyLvXjZg+yWvSaq8hPMPw2c2e6xhLIZEGNMB7AAYkwLqe5ZQLF7F0nuQPfQuTD0i8af45H0eCO37Y1UPw29Z0JfB82O+HqadPU+0N5BmE5X3mB+LdCaO6npGEjC7SQWQIwxHcBuw2tMKxW7ziPJ111hH+TLn4Mrbp8bcAvdIEmOV59r5La9Ua6rBRi8E7ZfAf/7YthyNDzzJ7DvB1Bs2+clW6ZqQqkOLC49wdz/Fa0KHwM/hEfPgP23tORyxhjTDPbD1ZiWkg2Jug3cUXoI4VQH9l1I5YEk+zSCjk+ca+b+kFrHx7fB7q+V/pnYO9K3obRcq+eUgME2Qcbb25oLmZnkwAbzIpcjLdpgPnwPPHsp5H/WkssZY0wzWQAxppVU104GhhgGbq29iRyaF0RqHa++ZrOuqwUYurP0z/YroOvwUhiZ91LoXducvSPKo9D9qPvCZqYqbzB/C8Xha4DlLbno2OOw/UrY9y+gU77OUn0tubwxxjSDBRBjWkQ1fxhFTkjUeeCOcpHy+5qzFcK0QFAzuDRwPCz81Ltuo+MZe6Y0M7Lna6XZkeyZ0P87sPgDAYUTSvEPkiQsmllJx4fPoTh8Ha3aYF7cB899HHZ+obTno5rYCmpjzMxlAcSYVinK2vBNETWMbYX8/1Qeq/thPeJsyMQ5J7ftnbhuA7MhSa6rBcjfBQt/L6BTYveQyn7GZUHjnqp2wb7c5JFMD3iT78fGc0hqcre2pPoqdm+L30/FnixdgEx9LwtQORb0jxJ97SahY7Dri/DcdVDYVaNda4ZjjDHNYAHEmJbxNyS6q9O+zQ3MVrRhWVYr9odUHE/B4X8HC509suMxPF4vIgG/djZxqCoUhl4KqfMRlgNpkH7wKz/kT/3QrxV7KtJAf9X7ybVHxWGmP1x8yl2TPa96RNT+5C4Bp1v1SV9LG8y3/SWM/ibwtDHGzBYWQIxpGVmbqNu+TZOva+7HCOhbsSxrSoF27g9xuRws5cHhn4eFbwsomshjeJwrknvaVcG5SseH11DIfwFJnVR1hsh3b5sr8vfAs39W+nPCXP93YoyZ1SyAGNMCqqMnUCwuTdR5agA5ULD8Z+B+jFptY+wPaTQoxF2WFXc84sHhf+9u6ZXyCGnOF8ltdVNw7tJC/jWg3wLpafdYOtrob2D7R2Hf9wBtUehYaM8AMca0nQUQY1rBL6xNtPxq+BEYfab0OvZ+jLDjDc6GhF235ngcL8sSD5b9Ayx4S8AgElAeIa3ni/Ra+GiQ6vARFPUbgIWPMMW98Ny18FzIBvMwDgKK3VjBGNMJLIAY0woq6xL127d5So3yn86WTc3Q/SF4sOwfYcGbqk8ko2wph49tbgrOcUX9GJCr224u0rHSXa12fLx0l6u67Zs/JGOMaQcLIMY0maqmKA4n2/+x97aAguU/Y+3HCBrYxPEW3rb3QP2Et+0VD474Kix4Q0DDBFTL4aPPwocD5f/WX9PucXQehb03wvargjeYT2lmjDFzgQUQY5ptPH86KUnwtGQf9t3uZp9Gu2/bGzqeGLftlUw5fLwu4CIJqD5cDh873BQ0MHYCU+9SZUoby7dWbTCfEDdwWEAxxswSFkCMaTZP1ib64DD4X1AoL9NwtU+jXcuyao4nwrIs6YIjvwYLHP1yXeQhvOI6kXkWPlwaG0/j2QPygNJMx7bLYN+PCPxvOyoLHcaYWcgCiDHNpprs+R8Hll9NCQVOl0EFXLOd+0NCl2V1wfKvw/xXBQw4AeFBUoV1IvN2uiloDujyn6Y4xwNIYRc89wnY+felPR9NCxxz/N+zMWZGs+9gxjRR6UnNck6izntvr/owIhz45K4Ef1CJczysLVOPR3xeg9PxTPl7ShesuMFl+HjAwkfziPTvRnig3eNoCx2D5/4GtpwMO/4W/IjhQ6v+idrem9fAYI0xpr1sBsSYZiqMnIUkuB2pPwoDd5deT5s1qJoRcXKb3FrHm7w/JPQhg92w4hsw/3cCOiZwIHz073ZT0ATyuRXh1HYPo3UU9v4LPHsFjP02UvO45Y0xZraxGRBjmsrfkKjb/v8Ef7jy2LTfkDqcDYl0fMrMRLOvK12w4lsuw8f9pMYtfLRCOnsJIg+1exgtMXQX/O/58Nt31A4fcWY4krQ3xpgZxgKIMc0kkvD2u5sjLndyvCyLkGMVxwOWZbkMIqkeOPq7MP9lIQOJSbif1Ng6kfkWPlpARAr4XNzucTSPwtAd8Pib4NEN4Xe3SrKsqmZ7mfxH7WGCxpiZzZZgGdMkqrv7KbI6Uec9m8pFyu/rLl+KuCwrqFbQ8bjLsqaNJ2ycda6RysJR34b+9QEdErmH1MgGkUUDrgqa+iSTvVUL+R8Ajd22bHwr6Ojkex0CHZ98X9wPWpjyfgDwp7zfW+5H6fjUh/9pAXRwyvsx8Icm2/ujoFNmIbufD/tvgbHfQKEqyzZlWVXVbKMbfv0mxhjTfBZAjGmWYvcakswyFgZg8BeVxyKHh/JzNVzt03C1PyTKeFI5OPpbLsPHz/FGLrDw0SaefJCivgwS7IECGH0UHn1hVQCJ0d952+8lqx2r/ZTZzKaQwfptjDGm+WwJljHNopJs/8e+u8AvNrCsqUnLspq5P0RycPR3XIaPuy18tJdI9glUr09coPsYOOj90ZcyNbLsKYqmtJ+ypEol/t/TGGNmKAsgxjRLSpJ9mj7w/A8i7MeodbxD9oeEtZ84l8rBsf8C/cm2ywS4Gy97oYWPDpDOXQM8mbj/wR+BzKHB55qyz6LZ7av2cTQjWBljzAxgAcSYJlAdXILqSYk6776t8n3D4aEqiASJEhQiXzfibAiA9MKx34N554U0iO1OvOwFImLhowOISB64JHEBrx8Ovbr0uiMCRNz2IYHDZjmMMXOcBRBjmqHoJft1/th2yNgWftgAAB9fSURBVP+6ScumEs6GEHK80SDi9cHx34d5Lwm5aGy3l8OHrXPvJF7228CdifsvfCtkI9zLoSMCBzQcOKKOxRhjZjALIMY0hb8uUbc9mzjw6SLJMqi6QaHFy7LCgkhqHhz3feg7O6RzbJtKy64k76qgcUNEwPcvIvEdmAQO/xSBP67izhQ0pX2D+ziaEZaMMabDWQAxpimS7v+4ffqxOMugiHrccRCJNJ7y9bz+0sxH31khHWK7FS/7cgsfnUu6+h4A+VLiAtnTYdHbOmSWowX7OKK0l0yEQsYY05ksgBjjmOrIMcARiTrv2eR4GVS94w3uD4l7XW9+OXy8OKRoXPpTvOwrLXzMAN74ZUDyh0Ee+tFSeK2llYEjTuhwMo6q9pKN0NAYYzqTBRBjXPOLyfZ/5H8DI09R+qBDkwJH2PEW3LbX64fj/w36zgzokIT+BC/3agsfM4NI/26EKxMXyBwKh1xaeaxpMyIt2sfRzOVjxhjTwSyAGONa0ud/VCy/mvgARPwP/oFjqnG8YolUk/aHpOfDiTdB3wtDBhKX3GLhYwZKZT+PyEOJ+x/8J9B9fJMDR4fs44jb3hhjZhALIMY4pKopINkMSODyqwSBIG5IoPp4xGVZkWc+FsAJN0Hv6SHF4pJb8HpeLSIjjgqaFhGRAj4XJS+QgcOvq90mTuBo9z6ORtobY8wMZgHEGJfGh1YCi2L3Ux/2bC6/JlkgCDrWzGVZUcaTXlia+eg9LaRhXLKxHD7GHBU0LSaZ7CbgxsQF5q2H/gsn30f64J5gH0enBQ4nAUXt68YY0xEsgBjjkpdKdveroV/BeNX+3LAg4nJ5VN3jDSzL8haVw8epAScTuQmv57UWPmYBTz4MJJ/BOuxaoNtt4ID4H/Cb2b45MyK2ZNEY0xEsgBjjkkqy53/sujXGcqcW7g+pvma9+hPHM4vh+TdB7wtCisf2Q7zs6y18zA4i2SdRvT5xgZ5j4JDqlVwt3jje7PaBpgQrY4yZwSyAGOOIqnaBrknUOXT51dQLVB9IsE/DybKsOtdNL4aTbobcypAGsX0PL/tGCx+zTDp3DfBk4v5L/gy6DmdG7+Oo214q/3E/I2KMMW1hAcQYVwojZwK52P38Mdj3s8pjcQNBrOASp36t6wYczxwMJ/8Ycs8PGUxsN+Jl32zhY/Yp38Hsw4kLpPrgeVfX/jDe9gARt32NwGGhwxgzi1gAMcYZP9nyq4F7oTDkZmbC5bKsunWqZkMyh8DzN0L2xJCisd2Il/1dESm4Kmg6i6RzNwKbEhdY9GboXV15rJn7MuK2t8BhjDGBLIAY44pIsg3oE8uvIN4sxsTxRoNI3NmTaccFupaUwkfOWfj4bnnmw8LHbOf7FwN+ss4Cyz4JmurMWY5AVfs4kgYgY4yZwSyAGOOAqvYBq+s2DLJrU1Ux4s1iEHS8hbft7VoCz78ZcieEXCy2b5dnPhJ+KDUziXT1PQjypcQFcqfD4j8IPz/Tl1WFtU9lI3Q2xpjOZAHEGBeK+TVAOna/wn7Y94sm7tNo8m17uw+DkzdC7viADoncgJd9q4WPOcYbvwzYXbddmMOvBG9+6fVsDRzVUl0RihljTGeyAGKMCyobEvXbezfoeLlGWO0ax5sdRGqNp/twOPlmyB4b0jAu/Tpe9u0WPuYekf7diF6WuEB6MTzvL2bmPo447ePWNsaYDmUBxBgXUqxN1G/3psr3TpZfhR1P8EDBsLZdS0szH9ljQi4el34NL/dOCx9zWCr3JYQHE/c/5I8hGzIT16n7OCxwGGPmKAsgxjRIdf9ilGQPvdi1uXnLowKPR3iOR706PcvglI2QPSqkQFz6Fbzcuyx8zG0i4uPLxckLZGDZJ0qvZ+qyKgscxpg5wgKIMY0qesnufjW2EwYfpuJBatWaHUTi1uk+ohw+VgScTEK+bOHDTJBMdhNwY+IC/ethwSvrt+uUwFHdNopGwomST9jTGGOcsgBiTMMk2fM/dm+m8pNEnUAQpOF9IzGCSM9yWPnj0p9OyJfwet4tIo7qmVnBkw9DAx+Ul30cUj2Vxzo1cLiuXU/KbmttjOkMFkCMaZgmmwHZvSlkn0ZIIHA1G0LQ8TrLsnpWwMqN0HNESIPYPo/X88cWPkw1keyTiFyTuED3clhy0czdx2HLsIwxc4AFEGMaoDq8HFieqPOu8gMIAz9oTAki0y4a1N7F8ZDwkz2qHD6WBRRJ5HN42fdZ+DChUj3XA08m7r/kT6HrsKqDHbqPI2l7Y4yZwSyAGNOIop9s9iP/Wxj+beWxsCBSa39IEJdBJHsMvGAj9CwNuVhMymfxshdZ+DC1iMgI8OHEBbw+WPYxOn4fh82IGGPmKAsgxjQk6f6PTTGDQsxlWTg4njsWXnBz6XkfLiifIZ292MKHiULSuRuBTYkLHPRG6Dt7Zu7jCGxbNYNjjDEzmAUQYxJSVYCE+z82TykUdoHqAy1cltV7XGnmo7t6GUtCyqckk/ughQ8TS7F4EZBw47TA8usI/THXqYHjQPsagcNmQowxM5wFEGOSGh9aCSyO31En939MORRvNqSJQaT3+PLMx5KADgkon5BMLvlyGjNnSfe8h1A+n7hAbiUc8rbJ9zM5cFS3T/dFuJAxxnQmCyDGJOWlkj39fP+vYHSngwCRcH9I2HEFek+AU2+GrkNDGsakfFwyuUvcFDNzUnr8SmB34v5LrwRvvtt9HM4CSozAMY39+DbGzFz2HcyYpFQ2JOq3K8nyqynHG90fEnb8QPg4JOTiMan+tWRyl7opZuYqkfm7Eb0scYHMYlj6l9OPO9mXEbd9xFmOKLWNMWYGswBiTAKqmgZdk6jzrk1VxYgXFAg63uD+kN6T4LSN0HVwyAVjUv0ryfQm/9BozFSp3JcQHkjc/9B3Q89Jnb+sKmp9Y4yZ4SyAGJNEYXg1EH8Rto7D7p81b/9Gkv0hvafAaTdBV4LtLEFUr5JM7+VuihkDIuLjy0XJC6RhxSdqt+nkwGGhwxgzy1gAMSaJlCS7+9XeX0Bhf+m1k+VXYcdDlmVV1+9bCaf/yF34ELlcMr1XuClmzCTJZO8Evp24wPzzYNErJt93xD6OBtonoTrQpMrGGBOLBRBjklBN9vyPnZuq6uBg+VXY8ZAnm0+07XtBKXxkFoWPNw6Ry8TL/pWbYsYE8OQSIJ+4/5EfB+npnH0crQ8ofuKexhjjkAUQY2JS1RxwZqK+u25Hm7b8Kux4wP6QeaeWw8fC+oOOQuRS8bJ/7aaYMcFEsk8ick3iAj3L4fAPhJ/vtH0ctgTLGDNLWQAxJq5ifg3QFb/fEOy5FxS0/M80zQ4iKjDvNDjjR5BZEGf04YRLxMt+3E0xY+pI9VwPPJG4/+Efgu5lpdedto8jansLJMaYGc4CiDFxqSRafqW77kaLY+U35T8Upn3ImXI+1vEoQWT+qlL4SM+vP+AohI+Il6uzu9cYd0RkBPSDiQukcnDEVZ2xjyNOe5sNMcbMIhZAjIkrRbIN6LvuqJz9KP+jqsFBxPX+kPkvgtO/D+n+JKOfTvigeLnr3RQzJjpJ9/4AuDVxgYPfAP1n09H7OFqxKd0YY9rEAogxMagOLEZZmajv9lurgkdYEKnuSOPLrxacCaff6DJ8XCxe7jNuihmTQLF4MVBI1lngqOtBvM7ZxxFnHGI/uo0xM5t9FzMmjmL6PJJ83YztQgd+BUzZ+1GxDKvyfWgQCVIviCx4sevwcZF4uc+6KWZMMtI97yGUzycu0HsKHPrO+u2auY8jad1U/EcQGWNMJ7EAYkwssiFJL33uDtT3a8x+VL6HkP0hcZdfLTwLzrgR0vOSDHs60feJl/ucm2LGNCg9egWwM3H/Iy6HdNWd4DppH8e09iF7VYwxZoaxAGJMLLo2Ua/nNpX+1PJnierZjmYsy1p4Til8eI5+Wyr6XvF6k//G2RjHRBbuBb00cYHMIlh2aefs45jWvsYduYwxZgazAGJMRKrDRwDHJOnr79hU8cGiImgQJYjUWJYVOPNxLpzxL+D1Jhlu0IXeLV7vFx0VM8YdL/cVhAcS9z/s3ZA7sXabTgkccWdQjDGmQ1kAMSaqYrK7X2n+SXTwscnZjKpgMX3ZVb33dW7be9D5cMa3wcslGW41H+Rdku79sotixrgmIj6+XJS8QBqOqbqZWyv2ccQNHG5Chz0J3RjTESyAGBOZJnv+x47NUz5A6LQgEnn2Y9qyrID9IQetg9O/6Th8ZL/iopgxzSKZ7J3ANxMXmL8GFr+2M/ZxNHWWQwabUdUYY+KyAGJMBFr6xJ9o/4e/fXPAJvNyEIEDHzQa3h+yeB2c/g2X4eOdks5+zUUxY5rO4yNA8g/YKz4GqZ7pxzttlsOWYBljZgELIMZEMTZ4MrAkfkfFn5gBYXqIQEtBJPKyrLAZksXr4YxvgpdN/nec5IO8XdLZr7soZkwriOS2IvKxxAV6lsGyD3Ru4LDgYYyZRSyAGBNF2kt296t9W9Dh7cGbzpn6PuKyLCprAHDwBcgZ3wr+7W18PsjbJJ29wUUxY1oq1fMZ4InE/Zd+sBREarHAYYwxDbMAYkwUSqLnf/jbN1d8mKi9Cb3OsqyAYMIhL0POuAFSXQ385SaHC/yupLPJ19Ib00YiMgL6wcQFvBwcFTCJEmcfR7MDhwUTY8wsYAHEmDpUNQ26Jknf4rbb6oaIsGVZ09pM1KDc/tDfQc74Z1fhowC8WdK577ooZky7SLr3B6A/SVzg4NeWNqUnneWIotntjTGmw1kAMaaewvAqkP7Y/bRAccddNUNErffUuG2vLHkFqVX/5DJ8/K6kcze6KGZM23npiyn9d53MsdeWbs/b7lmOsPZuvu6NMaZtLIAYU09Kkt39atf9MLav9rKrejMiTJ8N4XmvIrXqq64+hIxRmvmw8GFmDZHuLSifS1yg92Q47B2T79sdOKqJk5tNGGNM21gAMaYe1UT7P4rbNk0JETVmO2oEk+r9IXL4a/BWfcV1+Piei2LGdJT06JXAzsT9l18O6UWdETjitjfGmA5nAcSYGlS1BzgrSV//2U1TQoQeWFIVurejzmxI6vDX473wK5DKuPirjYG+XtK5H7goZkynEVm4F/TSxAUyi2DF5eHnm7mPwwKHMWaWswBiTC2F0TVA/OmG4jDF5+4BqkNGhCBS3QeQpW/EW/1lEK+xv0/JGOhrJd17k4tixnQsL/cV4L7E/Q97B/SdXHrdylmOKO2MMWYGswBiTE3+uiS9itvvRgujNUJGOYhAxQePoGVYqWVvJr36Sy7Dx6sl3bvRRTFjOpmI+PhclLyAB8d8vP3Lqg60C9kUH5mONNDZGGOcsQBiTC1Cog3oxWc3VwaPkGVVB2ZDIHD2wzvyd0mv/qKr8DGC+q+WdO8tLooZMxNIV+7nQPJn2yxcA4e8dvrxVgUOrXH73/gsgBhjOoIFEGNCqO5bBJyepG9h66aKUEFVyKh4H7IsK7X8raRXf95t+Mj0Wfgwc4/HR4DBxP2P+avSQwqbHjhwHTiMMaYjWQAxJkwxcx4JvkZ0dA/+rv+KMPsRvj/EW/E2Mqv/zlX4yKOpV0qmL/nD2YyZwURyWxEJeMR5RD3L4IgID1hvOHCEhA7blG6MmWUsgBgTLtn+j213oOqXggbEDiLpo/+AzIs+B+LkyzOPyisl0/NTF8WMmbFSPZ9CeTRx/yMvhuwRlcca2sdhgcMYM3dZADEmjLI+SbfCM7cdSBQ69QNEyCbzqe+9Y95J5kV/i6PlF3lUXi6Z7K0uihkzk4nIGKIRpjFCpHrg6Kubt4/DAocxZg6xAGJMANX8UoTjkvQtPLOpHCwC9nZA6Kbz9LHvoutFf4PD8HGhZLKbXBQzZjYo3Xpaky9FPPS1pU3pQeLu42jmJnZjjOlwFkCMCVKURHe/8oeewd/3vwGbzGsvw8oc/x66XvRpHIWPQVQukEz2dhfFjJlVvPTFQCFx/xOuA0k3fx9HrfapbJKRG2NMx7AAYkwg3ZCk1+TsB1V7OyYOVM5+oJA+8b10rb4eN+FDB1AukEz2TgfFjJl1RLq3oHw2cYHeE2Hpu2lp4KgmmYiDNcaYzmQBxJhgiWZASvs/Jic+ps92VC7Lypz0PrpXX4ub8CEDpWVXubsdFDNm9kpnrwS2Je5/1J9DZtH043GXSDW7vTHGdCgLIMZUUR09CTgsSd/CM7dXbjKHkE3oStfz30/36o/jLHz4eoGFD2PqE5EBkMsSF8gshKP/svn7OGzfhzFmlrIAYkw1v5js6ee7/wd/cGvtW+5Snvk45WK6V1/jaMAygK8byk98NsZE4fV8Dbgvcf+l74B5p9RuY4HDGGMCWQAxppome/5H4Znb6z/rQ6Fr5QfpWZ38mWhV9uL766Qrd4+rgsbMBSLi43NR8gIenPgJKmYwWzkjkojkk/Y0xhiXLIAYM4WqpoDzkvQdf3py/0fFsis48FDC7lM/Qs/qqxsfaMlufF0nXb3Jf4trzBxWmjXUrycusOAsWPL65u3jcD8jkvzuX8YY45AFEGOmGh9eBSyI3U+LjD9zO2G33EWh+/RL6HnhFa5GOhE+7ndV0Jg5ydNLQAcS9z/2SvBy4edbPsthjDGdzwKIMVN5yZ7/UdjxS3RkX+Atd1Wh54xL6Vl1uatR7iwtu+p9wFVBY+Yqkb5tiCRfE5ldCis+MPm+icuwJn6xYdnEGDPTWQAxZipN9vyP8aduC73lbnbVZfS8MPkNd6qUw0efhQ9jXEllP4PyaOL+Ky6G7JFNWFYlk6FjyrJOSyDGmJnOAogxZaraA5yVpO/4U5sDn/3Rs/pyel54qash7qTony9dfQ+6KmiMAREZQ/TixAVSPXB8yF3tGggcOjHdEXRzC2OMmcEsgBgzoTByFtATt5sWRhjf+rPJDwiUPiDkXnwl2VV/7mp0OygWz5XuvodcFTTGTJJ070aQjYkLHPpyOOj80usmBI5p+8qMMWYGswBizAF+ouVXhWd/ho6PVHw4yJ11NT1n/KmrgW3D886V7nkPuypojAngycXAWOL+J14DpGs0aCBwTDmPNy/xEI0xphNYADFmgiTbgD725ObSi/JnidzZHyN7xodcjWobnne+SPcWVwWNMcFEeh5F+VziAn0nwpF/VF21MnDAtBmS0H0eYeftR7cxZoaz72LGAKp7FgCrkvQd/+2mAx8Oel9yDdkzPlC/UzRb8VLnWvgwpoXS2SuBbYn7H/MXaGZxw7MctUKJrcAyxsx0FkCMASh2nUeCrwcd3cf49l+ACn3nXkv29P/rakRb8VLni/Q84qqgMaY+ERkAuSRxgcx85Lgr3AaOoPPGGDODWQAxBgBZl6TX2FO3o75P3/nXkz39/a4G83Rp5sPChzFt4fV8Hfh54v7Lfh+dd4q7wBG0D8QYY2YwCyDGAKgm2//x203MW/dpsqf9H1cjebIcPpI/k8AY0xARAZ/kt+WVFKmTPwEqkfZ5RJ8h0fKSroQJRBt44rsxxjhkAcTMeapDhyFyUpK+3ce/luyp73E1lCfx5FyRnsdcFTTGJCNduXtAv564wKKz4PA3RAod054VEhg4qvaSJOMn7mmMMQ5ZADGmmEo0+wHQtfQcV6N4ohQ+sk+4KmiMaZCnl0DyWYPUiVeD1xd5Y/lE4NCgwGH7QIwxs4gFEGMSPv/DIQsfxnQgkb5tiFyZuED2ecixH4q3rGpaKAkILcYYM8NZADGGZM//cOSxcvh4so1jMMaESWU/i5L4Vtipo9+H5I4MCRwaOsNRK7RYCDHGzHQWQMycpjpyHLC0PRfnUTwsfBjTwUSkgOiHExfwepCT/7qhwBF43hhjZjALIGZu84vr23Jd5RHSnCuSe7ot1zfGRCbp3o0gG5P2Tx32CuSQdY0FjonjgNqPbmPMDGffxczcpsme/9HYNXmEtJ4vktva8msbY5Lx5GJgLHH3ldeCZGpvLA8KHQScT/c1+Jcxxpj2sgBi5ixVTQHntfaibCGt54r0WvgwZgYR6XkU5VOJ+/cfh3f0e8I3lodtPA8ILLYEyxgz01kAMXPXeP50YFHLrqe6hbR/vkjvtpZd0xjjTjr7MSDxLw+8E/8c6VocvKyqOlwEnrcEYoyZHSyAmLnLa+Hdr0QeLs189Fn4MGaGEpFBkEsTF+iaj3fKR4OXVQXuA6k+wIFZEmOMmcksgJi5S7U1+z9EHiJVOFekb0dLrmeMaR6v5+vAzxN3X/H7pBaeVmPjeUDgCJsliU3tSejGmI5gAcTMSaraBbKm6RcSHiRVOF9k3s6mX8sY03QiAr5eBCT7MC8p0mdcj6oEBA4NDxzV+0CSSKX2J+xpjDFOWQAxc1Nh5Eygp6nXEB4gVVhn4cOY2UW6eu8D+UrS/qmDXoi3/I3TllXVvBtW9cZ1Y4yZwSyAmDnKv6Cp5Q+Ej34LH8bMRl7hMtCBpN0zp16Fen2JnwlijDEzmQUQMzdJEzegC/eTGl8n0r+7adcwxrSVyLwdiFyZuH/uMDIn/2miu2FZADHGzHQWQMyco6r9wKomlb+P1Og6kfkWPoyZ7VLZz6JsSdo9c+L7kXnHxJsBAQsgxpgZzwKImXuK+TVAugmV78EbWSeycG8TahtjOoyIFCB1ceICXjddq66JFDiqb45ljDEzmQUQM/eobGhC1Z/jjWwQWZR4Tbgx/3979xMi51nHAfz7m3dmd2fyx4LSVBCLaBGKrWghRSoiFmlExENP2oN4kiJBaixaSqi0SA0Ej6XkIF4sHkLpSaSUEjR48tBDEJUeSg49SIlSwlra3Xk9ND3YTUz23Zl9Z3Y+H9jDwvye+Z52+fK8z/uwfGq08XKSl7rON584kcHHH9y5w3HdQnLtlxrtPThAjxQQVs9g5uc//pzmnYeUD1hRzeDxJO92HV8/fiap0Q12QXa+ojfNeFbJAXqhgLBS2vbqHWnbz81wyYtpxt9QPmB1VW28nja/6jo/uO2zGd396HUKR3v9UgKw5BQQVst2M8vdj2vlo5QPWHXD8S+SvNl1fO3zP02Nb7/lt2EBLDMFhBUzfXBGC/0xzfihqro6o/WAJfb+34J6vPP82tGs3/fzGx8+z3UOpwMsKQWEVfPJGaxx4drOx+YM1gIOimbjhSQXu46P7nokg49+8f9eQLi3x7Dad7pOAsySAsJqqfrYHld4Nc34m8oH8GFVlUzbx5JMuy0wyPiBs0lbN7wTZG+7HwoIsBgUEFZLmz38A25fSTP+lvIB3EitHfpLUr/uOt/cfjyju757810QgCWmgLBa2vbVboP1cpqJ8gHcXLP1RJLOF5Ju3P90anR05w5IvAkLOBgUEFbLdPrbJFu7G6o/pNn4dlV5fAG4qaojb6XyVNf5weRY1r/wk50Hz1vbH8DBoICwUmr9yF/Ttr/cxYTyAezeYPxc2vZvXcc37v1hBh/5dD7YAmk/uBMkOgiw/BQQVs9w8kxS527hk7+7Vj4633AMrKaq2kqaH3VeoFnP5IEz1z8HArDkFBBWTlW9W8PxD5L6fqou7fhAm9eTPFzDyXeUD6CrGm28nOSlrvOjO09kdOeJHWdBMhzPLCNAHxQQVlYNx7+pZnxPtrfvSTv4epKH09SnajS5q4aTF/vOBxwATT2WdH/73uTLZ9I2a/+zC1KD0cziAfRBAWHl1fqRSzXaeKWGkxerxm/0nQc4OKrGb6Rtz3adb277TMb3PrrzPhCAJaaAAMA8DSfPJnmz6/j4+M9Sk2POgQAHhgICAHP0/v1B9Xjn+bWjOfTA03Y/gANDAQGAeWs2Xkhysev4+t2PZHTH8b3tgLQDF6kCC0EBAYA5q6pkOj2ZZNpxhRz+2tn3z4J0fwZrl5ewAsyHAgIA+6DWDr92i3cQXdfw2H1Zv/sRZ0CApaeAAMB+abZOJ/l31/HDX3kmtXZ0hoEA9p8CAgD7pOrIW6k81XV+cOhYDn3piVlGAth3CggA7KfB+LlUXeo6XqPJLNMA7DsFBAD2UVVtZZqTfecA6IsCAgD7rEbjC0le7DsHQB8UEADoQ1OnkrzTdwyA/aaAAEAPqsZvpG3P9p0DYL8pIADQl+Hk2SSX+44BsJ8UEADoSVVtJjnVdw6A/aSAAECPajg5n+Ti/L9p+vb8vwPg5hQQAOjbdHoyyXTe3zLn9QFuiQICAD2rtcOvJXWu7xwA+0EBAYBF0Lz3ZJIrfccAmDcFBAAWQNXRK6n2dN85AOZNAQGARTGYnEvVpb5jAMyTAgIAC6KqtjLNyb5zAMyTAgIAC6RG4wtJzvedA2BeFBAAWDRNnUqy2XcMgHlQQABgwVSNL6dtz/adA2AeFBAAWETDyZkkl/uOATBrCggALKCq2kxyamYLtq2b0IGFoIAAwIKq4eR8kguzWa25Opt1APZGAQGARba9fTLJVt8xAGZFAQGABVbrRy4lOdd3DoBZUUAAYNE1W6eTXOk7BsAsKCAAsOCqjl5JtU/2nQNgFhQQAFgGg8m5VF7rOwbAXikgALAEqmqaaZ3svMCw/jnDOACdKSAAsCRqNL6Y5HyHybeT9X/MPBBABwoIACyTpk4l2dzd0PSlqppLHIDdUkAAYIlUjS+n2t3ckL6ZZnB6boEAdkkBAYAlU82h55N6/hY++m6S71WNL887EwAAcIC1bTtotzd/3G5t/qvd2mx3/Ly3+ff2vf98te+cAB/mgVAAWGJte/WObDcnktyftIfT5s1U+6c0k99X1bTvfAAAAAAAAAAAAAAAAAAAAAAAAADQv/8C/41JGf5/qYUAAAAASUVORK5CYII=;" vertex="1" parent="7">
                    <mxGeometry x="690" y="135" width="500" height="500" as="geometry"/>
                </mxCell>
            </root>
        </mxGraphModel>
    </diagram>
</mxfile>